G04*
G04 #@! TF.GenerationSoftware,Altium Limited,Altium Designer,19.0.12 (326)*
G04*
G04 Layer_Physical_Order=2*
G04 Layer_Color=11511158*
%FSLAX25Y25*%
%MOIN*%
G70*
G01*
G75*
%ADD11C,0.01000*%
%ADD17C,0.01181*%
%ADD20C,0.01575*%
%ADD26R,0.04724X0.11811*%
%ADD27R,0.04500X0.05400*%
%ADD28R,0.03100X0.03800*%
%ADD29R,0.03800X0.03100*%
%ADD30R,0.01968X0.01968*%
%ADD34R,0.04724X0.05118*%
%ADD58C,0.01968*%
%ADD59C,0.00630*%
G04:AMPARAMS|DCode=60|XSize=39.37mil|YSize=39.37mil|CornerRadius=0mil|HoleSize=0mil|Usage=FLASHONLY|Rotation=0.000|XOffset=0mil|YOffset=0mil|HoleType=Round|Shape=Octagon|*
%AMOCTAGOND60*
4,1,8,0.01968,-0.00984,0.01968,0.00984,0.00984,0.01968,-0.00984,0.01968,-0.01968,0.00984,-0.01968,-0.00984,-0.00984,-0.01968,0.00984,-0.01968,0.01968,-0.00984,0.0*
%
%ADD60OCTAGOND60*%

%ADD61C,0.05906*%
%ADD62C,0.01968*%
%ADD63C,0.01575*%
%ADD64C,0.02756*%
%ADD65R,0.01181X0.05906*%
%ADD66R,0.05906X0.01181*%
%ADD67R,0.01772X0.05906*%
%ADD68R,0.05118X0.04724*%
%ADD69R,0.05315X0.01181*%
%ADD70R,0.06299X0.07874*%
%ADD71R,0.01968X0.01968*%
%ADD72R,0.03937X0.02362*%
%ADD73R,0.02000X0.02500*%
%ADD74R,0.09843X0.06693*%
%ADD75R,0.09843X0.05906*%
%ADD76R,0.05906X0.06693*%
%ADD77R,0.06693X0.05906*%
%ADD78R,0.06299X0.02756*%
%ADD79R,0.05400X0.04500*%
%ADD80R,0.02756X0.07874*%
%ADD81R,0.01575X0.02756*%
%ADD82R,0.03937X0.04724*%
%ADD83R,0.02500X0.02000*%
%ADD84R,0.15748X0.04724*%
%ADD85R,0.06693X0.03937*%
%ADD86R,0.04724X0.04724*%
%ADD87R,0.06299X0.06299*%
%ADD88R,0.01575X0.05512*%
%ADD89R,0.07874X0.07874*%
%ADD90R,0.11811X0.15748*%
%ADD91R,0.08465X0.03937*%
%ADD92R,0.08465X0.12992*%
%ADD93C,0.01378*%
G36*
X158012Y376319D02*
X156437D01*
Y376713D01*
X153681Y379468D01*
Y379862D01*
X158012D01*
Y376319D01*
D02*
G37*
G36*
X152894Y379468D02*
X155650Y376713D01*
Y376319D01*
X151319D01*
Y379862D01*
X152894D01*
Y379468D01*
D02*
G37*
G36*
X212993Y334000D02*
X204485D01*
X204284Y334500D01*
X206142Y336358D01*
X206492Y336882D01*
X206615Y337500D01*
Y341743D01*
X206978D01*
Y350817D01*
X203022D01*
Y341743D01*
X203385D01*
Y338169D01*
X202331Y337115D01*
X196615D01*
Y341743D01*
X196978D01*
Y350817D01*
X193022D01*
Y341743D01*
X193385D01*
Y337115D01*
X186615D01*
Y341743D01*
X186978D01*
Y350817D01*
X183022D01*
Y341743D01*
X183385D01*
Y337115D01*
X179279D01*
X176615Y339778D01*
Y341743D01*
X176978D01*
Y350817D01*
X176552D01*
Y355063D01*
X176429Y355681D01*
X176079Y356205D01*
X174142Y358142D01*
X173618Y358492D01*
X173000Y358615D01*
X167152D01*
X166534Y358492D01*
X166010Y358142D01*
X163358Y355490D01*
X163114Y355126D01*
X162614Y355277D01*
Y358559D01*
X159752D01*
Y355000D01*
X159252D01*
Y354500D01*
X155890D01*
Y351615D01*
X155890Y351441D01*
X155525Y351115D01*
X149056D01*
Y351841D01*
X150403D01*
Y358159D01*
X149056D01*
Y361841D01*
X150403D01*
Y368159D01*
X150403D01*
X150353Y368659D01*
X152991Y371297D01*
X159577D01*
X160195Y371420D01*
X160719Y371770D01*
X162957Y374008D01*
X163307Y374533D01*
X163430Y375151D01*
Y376781D01*
X163307Y377399D01*
X162957Y377924D01*
X162199Y378681D01*
X164642Y381124D01*
X164992Y381648D01*
X165115Y382266D01*
Y386000D01*
X164992Y386618D01*
X164642Y387142D01*
X164118Y387492D01*
X163500Y387615D01*
X162882Y387492D01*
X162358Y387142D01*
X162008Y386618D01*
X161885Y386000D01*
Y382936D01*
X159246Y380296D01*
X158481D01*
X158471Y380321D01*
X158012Y380512D01*
X153681D01*
X153287Y380349D01*
X152894Y380512D01*
X151319D01*
X150860Y380321D01*
X150799Y380175D01*
X150209Y380058D01*
X149474Y380793D01*
X149110Y381036D01*
X148681Y381122D01*
X148681Y381121D01*
X144595D01*
X144403Y381583D01*
X144793Y381973D01*
X144793Y381973D01*
X145036Y382337D01*
X145122Y382766D01*
X145122Y382766D01*
Y385038D01*
X147159D01*
Y390962D01*
X140841D01*
Y390962D01*
X140571Y390850D01*
X140100Y391321D01*
X139736Y391564D01*
X139307Y391649D01*
X139307Y391649D01*
X136788D01*
X136788Y391649D01*
X136359Y391564D01*
X135995Y391321D01*
X135995Y391321D01*
X135113Y390438D01*
X134869Y390074D01*
X134784Y389645D01*
X134784Y389645D01*
Y382973D01*
X134439Y382628D01*
X128002D01*
Y380246D01*
Y376309D01*
Y372372D01*
X134517D01*
Y372441D01*
X138414D01*
X138414Y372441D01*
X138843Y372527D01*
X139207Y372770D01*
X140341Y373904D01*
X140841Y373696D01*
Y373227D01*
X142878D01*
Y372591D01*
X142382Y372492D01*
X141858Y372142D01*
X141508Y371618D01*
X141385Y371000D01*
X141508Y370382D01*
X141858Y369858D01*
X142382Y369508D01*
X142823Y369420D01*
X143019Y368948D01*
X143020Y368910D01*
X142424Y368314D01*
X142181Y367950D01*
X142096Y367521D01*
X142096Y367521D01*
Y365613D01*
X142050Y365579D01*
X141550Y365831D01*
Y366932D01*
X139500D01*
Y364032D01*
Y361132D01*
X141550D01*
Y362744D01*
X142050Y362896D01*
X142075Y362858D01*
X142599Y362508D01*
X143218Y362385D01*
X143836Y362508D01*
X143979Y362603D01*
X144479Y362336D01*
Y361841D01*
X145826D01*
Y358159D01*
X144479D01*
Y351841D01*
X145826D01*
Y349559D01*
X145949Y348941D01*
X146299Y348417D01*
X150858Y343858D01*
X151382Y343508D01*
X152000Y343385D01*
X153470D01*
Y342500D01*
X157770D01*
Y347500D01*
X158049Y347885D01*
X158670D01*
Y345500D01*
X163770D01*
Y347900D01*
X164131Y348237D01*
X164312Y348358D01*
X165642Y349688D01*
X165992Y350212D01*
X166115Y350831D01*
Y353679D01*
X167821Y355385D01*
X169069D01*
X169221Y354885D01*
X168858Y354642D01*
X168508Y354118D01*
X168385Y353500D01*
X168508Y352882D01*
X168858Y352358D01*
X168878Y352344D01*
Y350817D01*
X168022D01*
Y341743D01*
X168878D01*
Y337859D01*
X168633Y337492D01*
X168510Y336874D01*
X168633Y336256D01*
X168983Y335732D01*
X169508Y335382D01*
X170126Y335259D01*
X170744Y335382D01*
X171268Y335732D01*
X171618Y336256D01*
X171741Y336874D01*
X171618Y337492D01*
X171268Y338017D01*
X171122Y338114D01*
Y341743D01*
X171978D01*
Y350817D01*
X171122D01*
Y352344D01*
X171142Y352358D01*
X171492Y352882D01*
X171615Y353500D01*
X171492Y354118D01*
X171142Y354642D01*
X170779Y354885D01*
X170931Y355385D01*
X172331D01*
X173322Y354394D01*
Y350817D01*
X173022D01*
Y341743D01*
X173385D01*
Y339109D01*
X173508Y338491D01*
X173858Y337967D01*
X177325Y334500D01*
X177124Y334000D01*
X162500D01*
Y335150D01*
X157500D01*
Y334615D01*
X156563D01*
X155036Y336142D01*
X154512Y336492D01*
X153894Y336615D01*
X152568D01*
Y337962D01*
X146250D01*
Y336122D01*
X144465D01*
X142293Y338293D01*
X141929Y338536D01*
X141500Y338622D01*
X141500Y338621D01*
X135656D01*
X135642Y338642D01*
X135118Y338992D01*
X134845Y339047D01*
X134681Y339589D01*
X135040Y339948D01*
X135390Y340472D01*
X135513Y341090D01*
X135390Y341709D01*
X135312Y341825D01*
Y342661D01*
X135957D01*
Y346614D01*
Y350567D01*
X134571D01*
Y350167D01*
X132460D01*
Y350693D01*
X134646Y352878D01*
X138414D01*
X138414Y352878D01*
X138843Y352964D01*
X139207Y353207D01*
X139793Y353793D01*
X139793Y353793D01*
X140036Y354157D01*
X140104Y354500D01*
X141150D01*
Y359500D01*
X136850D01*
Y355121D01*
X135550D01*
Y359500D01*
X135015D01*
Y361532D01*
X135550D01*
Y366532D01*
X134522D01*
Y367566D01*
X134522Y367566D01*
X134436Y367995D01*
X134193Y368359D01*
X134193Y368359D01*
X133610Y368942D01*
X133615Y368966D01*
X133492Y369584D01*
X133142Y370108D01*
X132618Y370458D01*
X132000Y370581D01*
X131382Y370458D01*
X130858Y370108D01*
X130508Y369584D01*
X130385Y368966D01*
X130508Y368348D01*
X130858Y367824D01*
X131382Y367474D01*
X131908Y367369D01*
X132206Y366921D01*
X132110Y366532D01*
X131250D01*
Y361532D01*
X131785D01*
Y359500D01*
X131250D01*
Y354500D01*
X132442D01*
X132633Y354038D01*
X130694Y352099D01*
X130194Y352306D01*
Y354220D01*
X130087Y354762D01*
X129780Y355221D01*
X125464Y359536D01*
X125005Y359843D01*
X124464Y359950D01*
X124150D01*
Y361500D01*
X119850D01*
Y356500D01*
X124150D01*
X124150Y356500D01*
Y356500D01*
X124619Y356381D01*
X127066Y353934D01*
X127048Y353822D01*
X127040Y353806D01*
X126509Y353459D01*
X126220Y353516D01*
X125602Y353393D01*
X125078Y353043D01*
X124728Y352519D01*
X124605Y351901D01*
X124728Y351283D01*
X125078Y350759D01*
X125099Y350745D01*
Y350167D01*
X122988D01*
Y350567D01*
X121602D01*
Y346614D01*
X120602D01*
Y350567D01*
X119665D01*
Y351133D01*
X119580Y351562D01*
X119336Y351926D01*
X119336Y351926D01*
X118751Y352512D01*
X118387Y352755D01*
X117958Y352840D01*
X117958Y352840D01*
X115530D01*
X115339Y353302D01*
X117329Y355293D01*
X117551Y355625D01*
X117679Y355817D01*
X117679Y355817D01*
X117679Y355817D01*
X117735Y356100D01*
X117802Y356435D01*
Y356500D01*
X118550D01*
Y361500D01*
X118015D01*
Y363500D01*
X118550D01*
Y368500D01*
X114250D01*
Y363500D01*
X114785D01*
Y361500D01*
X114250D01*
Y356783D01*
X112083Y354615D01*
X110127D01*
Y355962D01*
X103809D01*
Y350038D01*
X110127D01*
Y351385D01*
X111980D01*
X112172Y350923D01*
X107762Y346513D01*
X107300Y346705D01*
Y347350D01*
X100700D01*
Y341650D01*
X100224Y341592D01*
X99909D01*
X99500Y342000D01*
X99041Y342307D01*
X98500Y342415D01*
X93350D01*
Y344300D01*
X87650D01*
Y337700D01*
X89632D01*
Y336559D01*
X89755Y335941D01*
X90106Y335417D01*
X90821Y334701D01*
X90775Y334297D01*
X90304Y334113D01*
X88274Y336142D01*
X87750Y336492D01*
X87132Y336615D01*
X86514Y336492D01*
X85990Y336142D01*
X85640Y335618D01*
X85517Y335000D01*
X85640Y334382D01*
X85990Y333858D01*
X88724Y331124D01*
X89200Y330806D01*
Y328531D01*
X86878D01*
X85974Y327627D01*
X85512Y327818D01*
Y328819D01*
X85349Y329213D01*
X85512Y329606D01*
Y331181D01*
X85321Y331640D01*
X84862Y331831D01*
X84484D01*
Y331984D01*
X80516D01*
Y328016D01*
X80669D01*
Y326850D01*
X80832Y326457D01*
X80669Y326063D01*
Y325669D01*
X48864D01*
X48371Y325685D01*
X48370Y326169D01*
Y327169D01*
X47567D01*
Y326488D01*
X44402D01*
Y326169D01*
X43909Y325669D01*
X10276Y325669D01*
X9927Y326165D01*
X6073D01*
X5724Y325669D01*
X2007D01*
Y392993D01*
X27993D01*
Y355000D01*
X28146Y354232D01*
X28581Y353581D01*
X29232Y353146D01*
X30000Y352993D01*
X80000D01*
X80768Y353146D01*
X81419Y353581D01*
X81854Y354232D01*
X82007Y355000D01*
Y392993D01*
X212993D01*
Y334000D01*
D02*
G37*
G36*
Y308144D02*
X212568Y307962D01*
X212493Y307962D01*
X209439D01*
X209390Y308462D01*
X209618Y308508D01*
X210142Y308858D01*
X210492Y309382D01*
X210615Y310000D01*
X210492Y310618D01*
X210142Y311142D01*
X209618Y311492D01*
X209000Y311615D01*
X208382Y311492D01*
X207858Y311142D01*
X207844Y311122D01*
X205500D01*
X205500Y311122D01*
X205071Y311036D01*
X204707Y310793D01*
X203207Y309293D01*
X202964Y308929D01*
X202878Y308500D01*
X202878Y308500D01*
Y307962D01*
X201132D01*
Y302038D01*
X202085D01*
Y293002D01*
X201132D01*
Y290483D01*
X200303D01*
X199684Y290360D01*
X199160Y290010D01*
X197811Y288661D01*
X197461Y288137D01*
X197338Y287519D01*
X197461Y286901D01*
X197811Y286377D01*
X198335Y286027D01*
X198953Y285904D01*
X199571Y286027D01*
X200095Y286377D01*
X200680Y286962D01*
X201132Y287077D01*
Y287077D01*
X202085D01*
Y285433D01*
X199258Y282605D01*
X198908Y282081D01*
X198785Y281463D01*
Y278500D01*
X198250D01*
Y273500D01*
X202067D01*
Y271758D01*
X202138Y271401D01*
X202340Y271098D01*
X203857Y269582D01*
X203828Y269523D01*
X203228Y269425D01*
X202184Y270468D01*
X199616D01*
X198331Y269184D01*
Y266616D01*
X199616Y265332D01*
X201396D01*
X201750Y264980D01*
X201750Y264831D01*
Y261780D01*
X208250D01*
Y264936D01*
X208250Y264980D01*
X208086Y265480D01*
X209068Y266462D01*
Y268141D01*
X209569Y268449D01*
X210000Y268364D01*
X210618Y268487D01*
X211142Y268837D01*
X211492Y269361D01*
X211615Y269979D01*
X211492Y270597D01*
X211142Y271121D01*
X211122Y271135D01*
Y276000D01*
Y287077D01*
X212493D01*
X212568Y287077D01*
X212993Y286895D01*
Y3507D01*
X80764D01*
X80400Y3834D01*
X80400Y4007D01*
Y5884D01*
X77500D01*
X74600D01*
Y4007D01*
X74600Y3834D01*
X74236Y3507D01*
X70764D01*
X70400Y3834D01*
X70400Y4007D01*
Y5884D01*
X67500D01*
X64600D01*
Y4007D01*
X64600Y3834D01*
X64236Y3507D01*
X2007D01*
Y324500D01*
X14853D01*
Y317550D01*
X25895D01*
Y324500D01*
X81319D01*
Y326063D01*
X81713D01*
X84469Y328819D01*
X84862D01*
Y324488D01*
X81697D01*
Y323685D01*
X84545D01*
X84812Y323185D01*
X84768Y323118D01*
X84645Y322500D01*
X84768Y321882D01*
X85118Y321358D01*
X85642Y321008D01*
X86260Y320885D01*
X89200D01*
Y319650D01*
X90885D01*
Y318169D01*
X90331Y317615D01*
X85850D01*
Y319300D01*
X80150D01*
Y312700D01*
X81385D01*
Y309500D01*
X80850D01*
Y304500D01*
X85150D01*
Y305385D01*
X86612D01*
X87230Y305508D01*
X87754Y305858D01*
X87774Y305878D01*
X88125Y306402D01*
X88248Y307020D01*
X88125Y307638D01*
X87774Y308162D01*
X87250Y308512D01*
X86632Y308635D01*
X86531Y308615D01*
X85150D01*
Y309500D01*
X84615D01*
Y312700D01*
X85850D01*
Y314385D01*
X91000D01*
X91618Y314508D01*
X92142Y314858D01*
X93642Y316358D01*
X93992Y316882D01*
X94115Y317500D01*
Y319650D01*
X95800D01*
Y320487D01*
X96330D01*
X97960Y318858D01*
X98484Y318508D01*
X99102Y318385D01*
X100849D01*
X100860Y318360D01*
X100885Y318349D01*
Y317153D01*
X101008Y316535D01*
X101358Y316011D01*
X102511Y314858D01*
X103035Y314508D01*
X103653Y314385D01*
X112331D01*
X113057Y313659D01*
X112849Y313159D01*
X112849D01*
Y306841D01*
X118773D01*
Y308385D01*
X127250D01*
Y307500D01*
X131550D01*
Y312500D01*
X127250D01*
Y311615D01*
X118773D01*
Y313159D01*
X116615D01*
Y314000D01*
X116492Y314618D01*
X116142Y315142D01*
X114636Y316649D01*
X114843Y317149D01*
X115278D01*
X115278Y317149D01*
X115279Y317149D01*
X115528Y317198D01*
X115708Y317234D01*
X115708Y317234D01*
X115708Y317234D01*
X115876Y317347D01*
X116071Y317477D01*
X116071Y317477D01*
X116072Y317477D01*
X116777Y318183D01*
X116904Y318373D01*
X117020Y318547D01*
X117020Y318547D01*
X117020Y318547D01*
X117063Y318763D01*
X117106Y318976D01*
Y319433D01*
X118043D01*
Y323386D01*
X119043D01*
Y319433D01*
X120429D01*
Y319833D01*
X122540D01*
Y318450D01*
X122500Y317971D01*
X121882Y317848D01*
X121358Y317498D01*
X121008Y316974D01*
X120885Y316356D01*
X121008Y315738D01*
X121358Y315214D01*
X121882Y314864D01*
X122500Y314741D01*
X123118Y314864D01*
X123642Y315214D01*
X123992Y315738D01*
X124024Y315895D01*
X124106Y316007D01*
X124146Y316023D01*
X124718Y315713D01*
X124728Y315662D01*
X125078Y315138D01*
X125602Y314788D01*
X126220Y314665D01*
X126839Y314788D01*
X127363Y315138D01*
X127713Y315662D01*
X127836Y316280D01*
X127803Y316446D01*
X127968Y316613D01*
X128244Y316791D01*
X128780Y316685D01*
X129315Y316791D01*
X129591Y316613D01*
X129756Y316446D01*
X129723Y316280D01*
X129846Y315662D01*
X130196Y315138D01*
X130720Y314788D01*
X131339Y314665D01*
X131957Y314788D01*
X132481Y315138D01*
X132831Y315662D01*
X132954Y316280D01*
X132922Y316442D01*
X133163Y316647D01*
X133367Y316769D01*
X133937Y316655D01*
X134555Y316778D01*
X135079Y317128D01*
X135389Y317593D01*
X135576Y317675D01*
X135955Y317734D01*
X137329Y316360D01*
X137693Y316117D01*
X138122Y316032D01*
X138122Y316032D01*
X139882D01*
X141123Y314791D01*
X141006Y314201D01*
X140860Y314140D01*
X140669Y313681D01*
Y309350D01*
X140832Y308957D01*
X140669Y308563D01*
Y306988D01*
X140486Y306714D01*
X137824D01*
X137550Y307100D01*
X137550Y307214D01*
Y309500D01*
X132450D01*
Y307100D01*
X132610D01*
X132666Y307019D01*
X132607Y306385D01*
X132607Y306385D01*
X131175Y304954D01*
X130932Y304590D01*
X130847Y304161D01*
X130847Y304161D01*
Y301368D01*
X121410D01*
X121312Y301868D01*
X121650Y302374D01*
X121773Y302992D01*
X121650Y303610D01*
X121300Y304134D01*
X120775Y304484D01*
X120157Y304607D01*
X119539Y304484D01*
X119015Y304134D01*
X118665Y303610D01*
X118542Y302992D01*
X118665Y302374D01*
X119003Y301868D01*
X118905Y301368D01*
X105187D01*
Y294262D01*
X105256D01*
Y263248D01*
X105256Y263248D01*
X105342Y262819D01*
X105585Y262455D01*
X108150Y259890D01*
Y251520D01*
X107754Y251123D01*
X107293Y251369D01*
X107369Y251752D01*
X107246Y252370D01*
X106896Y252894D01*
X106372Y253244D01*
X105754Y253367D01*
X105136Y253244D01*
X104611Y252894D01*
X104598Y252873D01*
X103238D01*
Y254568D01*
X104706D01*
X104720Y254547D01*
X105244Y254197D01*
X105862Y254074D01*
X106480Y254197D01*
X107004Y254547D01*
X107354Y255071D01*
X107477Y255689D01*
X107354Y256307D01*
X107004Y256831D01*
X106923Y256885D01*
Y257486D01*
X107142Y257633D01*
X107492Y258157D01*
X107615Y258775D01*
X107492Y259393D01*
X107142Y259917D01*
X106618Y260267D01*
X106000Y260390D01*
X105382Y260267D01*
X104858Y259917D01*
X104508Y259393D01*
X104385Y258779D01*
X103238D01*
Y260404D01*
Y264341D01*
Y268278D01*
Y272215D01*
Y276152D01*
Y280089D01*
Y284026D01*
Y287963D01*
Y292313D01*
X99802D01*
X99685Y292336D01*
X94430D01*
X93966Y292244D01*
X93572Y291980D01*
X93572Y291980D01*
X92962Y291371D01*
X92500Y291562D01*
Y291766D01*
X91594D01*
Y292500D01*
X91471Y293118D01*
X91121Y293642D01*
X90029Y294734D01*
X89505Y295084D01*
X88887Y295207D01*
X86632D01*
X86014Y295084D01*
X85490Y294734D01*
X85140Y294210D01*
X85115Y294087D01*
X84615Y294136D01*
Y294724D01*
X84492Y295342D01*
X84142Y295866D01*
X82678Y297331D01*
X82153Y297681D01*
X81535Y297804D01*
X80981D01*
X80971Y297829D01*
X80946Y297840D01*
Y299392D01*
X80823Y300010D01*
X80473Y300534D01*
X79949Y300884D01*
X79331Y301007D01*
X78713Y300884D01*
X78189Y300534D01*
X77838Y300010D01*
X77715Y299392D01*
Y298020D01*
X76181D01*
X75787Y297856D01*
X75394Y298020D01*
X73819D01*
X73360Y297829D01*
X73285Y297650D01*
X72707Y297521D01*
X72322Y297907D01*
Y305099D01*
X72236Y305528D01*
X71993Y305892D01*
X71993Y305892D01*
X69300Y308585D01*
X68936Y308828D01*
X68507Y308914D01*
X68507Y308913D01*
X58320D01*
X57890Y308828D01*
X57526Y308585D01*
X57526Y308585D01*
X55324Y306383D01*
X55081Y306019D01*
X54996Y305590D01*
X54996Y305590D01*
Y292275D01*
X54996Y292275D01*
X55081Y291846D01*
X55324Y291482D01*
X57599Y289207D01*
X57599Y289207D01*
X57963Y288964D01*
X58392Y288878D01*
X58750D01*
Y288147D01*
X58750Y288022D01*
Y287647D01*
X58750Y287522D01*
Y283717D01*
X58350D01*
Y281839D01*
X62500D01*
X66650D01*
Y283717D01*
X66250D01*
Y284548D01*
X70680D01*
X70694Y284527D01*
X71218Y284177D01*
X71836Y284054D01*
X72455Y284177D01*
X72979Y284527D01*
X73329Y285051D01*
X73452Y285669D01*
X73329Y286287D01*
X72979Y286811D01*
X72552Y287097D01*
X72529Y287438D01*
X72531Y287465D01*
X72574Y287637D01*
X73042Y287950D01*
X73392Y288474D01*
X73515Y289092D01*
X73392Y289710D01*
X73042Y290234D01*
X72518Y290584D01*
X72177Y290652D01*
X72119Y290793D01*
X72426Y291364D01*
X72518Y291383D01*
X73042Y291733D01*
X73392Y292257D01*
X73494Y292771D01*
X73650Y292965D01*
X73965Y293177D01*
X78150D01*
X78543Y293340D01*
X78937Y293177D01*
X80512D01*
X80885Y293332D01*
X81385Y293128D01*
Y290906D01*
X80850D01*
Y285906D01*
X85150D01*
Y290906D01*
X84615D01*
Y293048D01*
X85115Y293097D01*
X85140Y292974D01*
X85490Y292450D01*
X86014Y292100D01*
X86632Y291977D01*
X87087D01*
X87500Y291766D01*
Y287466D01*
X92500D01*
X92678Y287040D01*
Y286566D01*
X90500D01*
Y284016D01*
X90000D01*
Y283516D01*
X87100D01*
Y281466D01*
X90216D01*
X90408Y281004D01*
X89361Y279957D01*
X89118Y279593D01*
X89033Y279164D01*
X88687Y278850D01*
X86700D01*
Y273150D01*
X93300D01*
Y278850D01*
X92079D01*
X91888Y279312D01*
X94593Y282017D01*
X94593Y282017D01*
X94836Y282381D01*
X94922Y282810D01*
X94922Y282810D01*
Y287127D01*
X95632Y287838D01*
X96132Y287631D01*
Y284026D01*
Y280089D01*
Y276152D01*
Y272215D01*
Y268278D01*
Y264685D01*
X93700D01*
Y267000D01*
X90000D01*
X86300D01*
Y265605D01*
X85838Y265413D01*
X82789Y268462D01*
X82425Y268706D01*
X81996Y268791D01*
X81996Y268791D01*
X77387D01*
Y269647D01*
X74613D01*
Y268791D01*
X73985D01*
X73971Y268812D01*
X73447Y269162D01*
X72829Y269285D01*
X72211Y269162D01*
X71687Y268812D01*
X71337Y268287D01*
X71237Y267788D01*
X70900Y267619D01*
X70727Y267591D01*
X69178Y269140D01*
X68814Y269383D01*
X68385Y269468D01*
X68385Y269468D01*
X66250D01*
Y270199D01*
X66250Y270324D01*
Y270699D01*
X66250Y270824D01*
Y274530D01*
X66250Y274655D01*
Y275030D01*
X66250Y275155D01*
Y275886D01*
X69760D01*
X69774Y275866D01*
X70298Y275516D01*
X70916Y275393D01*
X71534Y275516D01*
X72058Y275866D01*
X72408Y276390D01*
X72531Y277008D01*
X72435Y277489D01*
X72680Y277828D01*
X72810Y277925D01*
X73011Y277885D01*
X73629Y278008D01*
X73929Y278208D01*
X74581D01*
X74613Y278176D01*
Y274353D01*
X77387D01*
Y278309D01*
X77387D01*
X77171Y278719D01*
X77122Y278970D01*
X76858Y279364D01*
X75942Y280280D01*
X75548Y280544D01*
X75083Y280636D01*
X75083Y280636D01*
X74157D01*
X74153Y280642D01*
X73629Y280992D01*
X73011Y281115D01*
X72393Y280992D01*
X71869Y280642D01*
X71519Y280118D01*
X71396Y279500D01*
X71491Y279018D01*
X71247Y278680D01*
X71117Y278583D01*
X70916Y278623D01*
X70298Y278500D01*
X69774Y278150D01*
X69760Y278129D01*
X66250D01*
Y278961D01*
X66650D01*
Y280839D01*
X62500D01*
X58350D01*
Y278961D01*
X58750D01*
Y275155D01*
X58750Y275030D01*
Y274655D01*
X58750Y274530D01*
Y270824D01*
X58750Y270699D01*
Y270324D01*
X58750Y270199D01*
Y266368D01*
X66250D01*
Y267225D01*
X67921D01*
X72376Y262770D01*
X72460Y262714D01*
X72308Y262214D01*
X68500D01*
X68500Y262214D01*
X68036Y262122D01*
X67642Y261858D01*
X67642Y261858D01*
X64129Y258345D01*
X63690Y258614D01*
Y265600D01*
X55798D01*
Y260010D01*
X55336Y259818D01*
X54268Y260886D01*
Y272844D01*
X54627Y273202D01*
X55118Y273300D01*
X55642Y273650D01*
X55992Y274174D01*
X56115Y274792D01*
X55992Y275410D01*
X55642Y275934D01*
X55118Y276284D01*
X54500Y276407D01*
X53882Y276284D01*
X53358Y275934D01*
X53008Y275410D01*
X52910Y274919D01*
X52196Y274205D01*
X51933Y273811D01*
X51841Y273346D01*
X51841Y273346D01*
Y260383D01*
X51841Y260383D01*
X51933Y259918D01*
X52196Y259524D01*
X55240Y256480D01*
X55240Y256480D01*
X55634Y256217D01*
X56099Y256125D01*
X56099Y256125D01*
X56635D01*
X56886Y255874D01*
Y255000D01*
X55950D01*
Y250000D01*
X60250D01*
Y251336D01*
X60465Y251378D01*
X60858Y251642D01*
X63888Y254671D01*
X64350Y254480D01*
Y253000D01*
X66400D01*
Y255400D01*
X65270D01*
X65079Y255862D01*
X69003Y259786D01*
X74497D01*
X80510Y253774D01*
X80613Y253316D01*
X80613D01*
Y249361D01*
X80786D01*
Y248507D01*
X80786Y248507D01*
X80786Y248507D01*
Y247035D01*
X80508Y246618D01*
X80385Y246000D01*
X80508Y245382D01*
X80858Y244858D01*
X81382Y244508D01*
X82000Y244385D01*
X82618Y244508D01*
X83142Y244858D01*
X83492Y245382D01*
X83615Y246000D01*
X83573Y246215D01*
X83890Y246601D01*
X86026D01*
Y245250D01*
X84740D01*
Y240950D01*
X89740D01*
Y245250D01*
X88454D01*
Y246601D01*
X95732D01*
Y246346D01*
X99685D01*
X103638D01*
Y247437D01*
X103238D01*
Y250630D01*
X104598D01*
X104611Y250610D01*
X104906Y250413D01*
X104932Y249829D01*
X104858Y249779D01*
X104508Y249255D01*
X104385Y248637D01*
X104508Y248019D01*
X104858Y247495D01*
X105382Y247145D01*
X106000Y247022D01*
X106618Y247145D01*
X107142Y247495D01*
X107202Y247585D01*
X107283Y247601D01*
X107647Y247844D01*
X110065Y250262D01*
X110065Y250262D01*
X110308Y250626D01*
X110393Y251055D01*
X110393Y251055D01*
Y260354D01*
X110393Y260354D01*
X110308Y260784D01*
X110065Y261147D01*
X110065Y261147D01*
X107500Y263713D01*
Y267270D01*
X108000Y267477D01*
X110016Y265461D01*
X110079Y265367D01*
X113189Y262256D01*
Y251443D01*
X113169Y251430D01*
X112819Y250906D01*
X112696Y250287D01*
X112819Y249669D01*
X113169Y249145D01*
X113693Y248795D01*
X114311Y248672D01*
X114929Y248795D01*
X115453Y249145D01*
X115803Y249669D01*
X115926Y250287D01*
X115803Y250906D01*
X115453Y251430D01*
X115433Y251443D01*
Y262594D01*
X115728Y262777D01*
X115922Y262815D01*
X116382Y262508D01*
X117000Y262385D01*
X117618Y262508D01*
X118142Y262858D01*
X118492Y263382D01*
X118615Y264000D01*
X118492Y264618D01*
X118142Y265142D01*
X117618Y265492D01*
X117287Y265558D01*
X116443Y266402D01*
X116457Y266522D01*
X116640Y266913D01*
X117118Y267008D01*
X117642Y267358D01*
X117992Y267882D01*
X118115Y268500D01*
X117992Y269118D01*
X117642Y269642D01*
X117118Y269992D01*
X116500Y270115D01*
X115882Y269992D01*
X115804Y269940D01*
X114929Y270814D01*
X115091Y271360D01*
X115525Y271650D01*
X115595Y271754D01*
X116238Y271817D01*
X122909Y265146D01*
X122718Y264685D01*
X122038D01*
X122038Y264685D01*
X121609Y264599D01*
X121245Y264356D01*
X121245Y264356D01*
X117707Y260818D01*
X117464Y260454D01*
X117378Y260025D01*
X117378Y260025D01*
Y253656D01*
X117358Y253642D01*
X117008Y253118D01*
X116885Y252500D01*
X117008Y251882D01*
X117358Y251358D01*
X117882Y251008D01*
X118500Y250885D01*
X119118Y251008D01*
X119642Y251358D01*
X119992Y251882D01*
X120115Y252500D01*
X119992Y253118D01*
X119821Y253375D01*
X119877Y253612D01*
X120444Y253835D01*
X120484Y253808D01*
X121102Y253685D01*
X121721Y253808D01*
X122245Y254158D01*
X122258Y254179D01*
X135195D01*
X135255Y253681D01*
X134891Y253437D01*
X131212Y249759D01*
X117715D01*
X117715Y249759D01*
X117286Y249673D01*
X116922Y249430D01*
X116922Y249430D01*
X113459Y245967D01*
X113216Y245603D01*
X113130Y245174D01*
X113130Y245174D01*
Y240738D01*
X109468D01*
Y241354D01*
X109468Y241354D01*
X109383Y241783D01*
X109140Y242147D01*
X109139Y242147D01*
X108308Y242978D01*
X107944Y243221D01*
X107515Y243307D01*
X107515Y243307D01*
X104748D01*
X104748Y243307D01*
X104319Y243221D01*
X103955Y242978D01*
X103955Y242978D01*
X103738Y242761D01*
X103238Y242968D01*
Y244256D01*
X103638D01*
Y245346D01*
X99685D01*
X95732D01*
Y244256D01*
X96132D01*
Y242687D01*
X102957D01*
X103164Y242187D01*
X95098Y234121D01*
X79991D01*
X79977Y234142D01*
X79453Y234492D01*
X78835Y234615D01*
X78216Y234492D01*
X77692Y234142D01*
X77342Y233618D01*
X77219Y233000D01*
X77342Y232382D01*
X77692Y231858D01*
X78216Y231508D01*
X78835Y231385D01*
X79453Y231508D01*
X79977Y231858D01*
X79991Y231878D01*
X95563D01*
X95563Y231878D01*
X95992Y231964D01*
X96356Y232207D01*
X100070Y235921D01*
X100585Y235780D01*
X100607Y235751D01*
X100491Y235169D01*
X100506Y235094D01*
X89315Y223904D01*
X88815Y224111D01*
Y226091D01*
X88692Y226709D01*
X88342Y227233D01*
X86409Y229166D01*
X85885Y229516D01*
X85267Y229639D01*
X84222D01*
X84211Y229664D01*
X83752Y229854D01*
X79421D01*
X79027Y229691D01*
X78634Y229854D01*
X77059D01*
X76600Y229664D01*
X76449Y229299D01*
X75948Y229093D01*
X75846Y229195D01*
X75845Y229195D01*
X75621Y229419D01*
X75097Y229769D01*
X74479Y229892D01*
X74400D01*
Y230993D01*
X69400D01*
Y230506D01*
X66661D01*
X66043Y230383D01*
X65519Y230033D01*
X65169Y229509D01*
X65046Y228891D01*
Y225149D01*
X64858Y224961D01*
X64508Y224437D01*
X64385Y223819D01*
Y195150D01*
X63500D01*
Y190850D01*
X68500D01*
Y195150D01*
X67615D01*
Y223150D01*
X67804Y223338D01*
X68154Y223862D01*
X68277Y224480D01*
Y227276D01*
X69400D01*
Y226693D01*
X72310D01*
X72466Y226662D01*
X73810D01*
X74706Y225766D01*
X74372Y225393D01*
X73912Y225393D01*
X69400D01*
Y221093D01*
X74400D01*
Y221189D01*
X74862Y221380D01*
X76378Y219864D01*
Y218238D01*
X75522D01*
Y209164D01*
X79478D01*
Y218238D01*
X78622D01*
Y220328D01*
X78536Y220757D01*
X78293Y221121D01*
X78293Y221121D01*
X75507Y223907D01*
X75143Y224150D01*
X74714Y224236D01*
X74400Y224581D01*
X74400Y225364D01*
X74771Y225700D01*
X75295Y225350D01*
X75913Y225227D01*
X76531Y225350D01*
X76539Y225348D01*
X76600Y225202D01*
X77059Y225012D01*
X81390D01*
X81783Y225175D01*
X82177Y225012D01*
X83752D01*
X84211Y225202D01*
X84401Y225661D01*
Y225898D01*
X84901Y226105D01*
X85585Y225422D01*
Y224171D01*
X81358Y219945D01*
X81008Y219421D01*
X80885Y218802D01*
Y218238D01*
X80522D01*
Y209164D01*
X84478D01*
Y218238D01*
X84478Y218238D01*
X84478D01*
X84654Y218672D01*
X85917Y219935D01*
X86378Y219743D01*
Y218238D01*
X85522D01*
Y209164D01*
X89478D01*
Y218238D01*
X88622D01*
Y220038D01*
X90929Y222345D01*
X91390Y222099D01*
X91378Y222043D01*
X91378Y222042D01*
Y218238D01*
X90522D01*
Y209164D01*
X94478D01*
Y218238D01*
X93622D01*
Y221578D01*
X102933Y230890D01*
X102957Y230885D01*
X103576Y231008D01*
X104100Y231358D01*
X104450Y231882D01*
X104573Y232500D01*
X104450Y233118D01*
X104100Y233642D01*
X103682Y233921D01*
X103544Y234470D01*
X103599Y234550D01*
X103722Y235169D01*
X103599Y235787D01*
X103249Y236311D01*
X102724Y236661D01*
X102106Y236784D01*
X101524Y236668D01*
X101495Y236690D01*
X101354Y237205D01*
X104687Y240538D01*
X105187Y240331D01*
Y233632D01*
X109194D01*
Y232091D01*
X99207Y222104D01*
X98964Y221740D01*
X98878Y221311D01*
X98878Y221311D01*
Y218238D01*
X95522D01*
Y209164D01*
X97421D01*
X97688Y208664D01*
X97660Y208622D01*
X83766D01*
X83766Y208622D01*
X83337Y208536D01*
X82973Y208293D01*
X82973Y208293D01*
X78744Y204064D01*
X78382Y203992D01*
X77858Y203642D01*
X77508Y203118D01*
X77385Y202500D01*
X77508Y201882D01*
X77858Y201358D01*
X78382Y201008D01*
X79000Y200885D01*
X79618Y201008D01*
X80142Y201358D01*
X80492Y201882D01*
X80615Y202500D01*
X80572Y202720D01*
X84230Y206379D01*
X98552D01*
X98552Y206378D01*
X98981Y206464D01*
X99345Y206707D01*
X100793Y208155D01*
X100793Y208155D01*
X101036Y208519D01*
X101122Y208948D01*
Y209164D01*
X104478D01*
Y218238D01*
X101122D01*
Y220846D01*
X110950Y230675D01*
X111207Y230805D01*
X111613Y230689D01*
X112045Y230257D01*
X112045Y230257D01*
X112409Y230014D01*
X112838Y229929D01*
X113666D01*
X113666Y229929D01*
X114095Y230014D01*
X114459Y230257D01*
X115045Y230843D01*
X115045Y230843D01*
X115288Y231207D01*
X115374Y231636D01*
Y233232D01*
X115720D01*
Y237185D01*
Y241138D01*
X115374D01*
Y244710D01*
X118179Y247516D01*
X131676D01*
X131676Y247515D01*
X132106Y247601D01*
X132469Y247844D01*
X136148Y251523D01*
X137959D01*
X138248Y251023D01*
X138153Y250857D01*
X137882Y250804D01*
X137358Y250453D01*
X137008Y249929D01*
X136885Y249311D01*
X137008Y248693D01*
X137358Y248169D01*
X137882Y247819D01*
X138500Y247696D01*
X138731Y247232D01*
X137081Y245582D01*
X136838Y245218D01*
X136752Y244789D01*
X136752Y244789D01*
Y241138D01*
X136406D01*
Y237185D01*
X135406D01*
Y241138D01*
X135151D01*
Y241803D01*
X135151Y241803D01*
X135058Y242267D01*
X134795Y242661D01*
X134795Y242661D01*
X133498Y243958D01*
X133104Y244221D01*
X132640Y244314D01*
X132640Y244314D01*
X119697D01*
X119232Y244221D01*
X118839Y243958D01*
X118839Y243958D01*
X117331Y242450D01*
X117068Y242056D01*
X116975Y241592D01*
X116891Y241138D01*
X116720D01*
Y237185D01*
Y233232D01*
X116975D01*
Y225500D01*
X115850D01*
Y220500D01*
X116786D01*
Y210077D01*
X116786Y210077D01*
X116878Y209613D01*
X117142Y209219D01*
X117621Y208740D01*
X117456Y208197D01*
X117315Y208169D01*
X116791Y207819D01*
X116441Y207295D01*
X116318Y206677D01*
X116441Y206059D01*
X116791Y205535D01*
X117315Y205185D01*
X117933Y205062D01*
X118551Y205185D01*
X118770Y205331D01*
X119084Y205016D01*
X119448Y204773D01*
X119877Y204688D01*
X119877Y204688D01*
X120098D01*
X120148Y204614D01*
X119880Y204114D01*
X119750D01*
Y202736D01*
X91381D01*
X91381Y202736D01*
X90952Y202650D01*
X90588Y202407D01*
X90588Y202407D01*
X76707Y188526D01*
X76464Y188162D01*
X76378Y187733D01*
X76378Y187733D01*
Y180836D01*
X75522D01*
Y171762D01*
X79478D01*
Y180836D01*
X78622D01*
Y187268D01*
X91846Y200493D01*
X119750D01*
Y199114D01*
X124050D01*
Y204114D01*
X123022D01*
Y204909D01*
X122936Y205339D01*
X122693Y205702D01*
X122693Y205702D01*
X122571Y205824D01*
X122763Y206286D01*
X124497D01*
X126169Y204614D01*
X126004Y204114D01*
X125350D01*
Y199114D01*
X125885D01*
Y191500D01*
X125350D01*
Y186500D01*
X129650D01*
Y187385D01*
X134083D01*
X134274Y186923D01*
X132473Y185122D01*
X121248D01*
X120331Y186038D01*
X120523Y186500D01*
X124050D01*
Y191500D01*
X123022D01*
Y193567D01*
X123042Y193581D01*
X123392Y194105D01*
X123515Y194723D01*
X123392Y195341D01*
X123042Y195865D01*
X122518Y196215D01*
X121900Y196338D01*
X121282Y196215D01*
X120758Y195865D01*
X120408Y195341D01*
X120285Y194723D01*
X120408Y194105D01*
X120758Y193581D01*
X120778Y193567D01*
Y191500D01*
X119750D01*
Y190122D01*
X89071D01*
X88642Y190036D01*
X88278Y189793D01*
X88278Y189793D01*
X81707Y183222D01*
X81464Y182858D01*
X81378Y182429D01*
X81378Y182429D01*
Y180836D01*
X80522D01*
Y171762D01*
X84478D01*
Y180836D01*
X83622D01*
Y181965D01*
X89294Y187637D01*
X89460Y187604D01*
X89625Y187061D01*
X87100Y184537D01*
X87071Y184531D01*
X86707Y184288D01*
X86464Y183924D01*
X86378Y183495D01*
Y180836D01*
X85522D01*
Y171762D01*
X85885D01*
Y170569D01*
X84431Y169115D01*
X76669D01*
X70737Y175048D01*
X70213Y175398D01*
X69594Y175521D01*
X68500D01*
Y176150D01*
X63500D01*
Y175615D01*
X56669D01*
X50394Y181890D01*
X49870Y182240D01*
X49252Y182363D01*
X44006D01*
Y189222D01*
X30994D01*
Y172274D01*
X44006D01*
Y179133D01*
X48583D01*
X54858Y172858D01*
X55382Y172508D01*
X56000Y172385D01*
X63500D01*
Y171850D01*
X68500D01*
Y172110D01*
X69000Y172216D01*
X74858Y166358D01*
X75382Y166008D01*
X76000Y165885D01*
X85100D01*
X85718Y166008D01*
X86242Y166358D01*
X88642Y168758D01*
X88992Y169282D01*
X89115Y169900D01*
Y171762D01*
X89478D01*
Y180836D01*
X88622D01*
Y182886D01*
X91465Y185729D01*
X117468D01*
X119990Y183207D01*
X120354Y182964D01*
X120783Y182878D01*
X120783Y182878D01*
X132938D01*
X132938Y182878D01*
X133367Y182964D01*
X133731Y183207D01*
X136318Y185794D01*
X137452D01*
X137661Y185654D01*
X138091Y185569D01*
X138091Y185569D01*
X141430D01*
X141430Y185569D01*
X141859Y185654D01*
X142223Y185898D01*
X142258Y185933D01*
X142500Y185885D01*
X143118Y186008D01*
X143642Y186358D01*
X143992Y186882D01*
X144115Y187500D01*
X143992Y188118D01*
X143642Y188642D01*
X143118Y188992D01*
X142500Y189115D01*
X142331Y189082D01*
X141894Y189504D01*
X141924Y189712D01*
X142035Y189786D01*
X162338D01*
X162338Y189786D01*
X162803Y189878D01*
X163196Y190142D01*
X169372Y196317D01*
X169372Y196317D01*
X169635Y196711D01*
X169727Y197176D01*
Y198061D01*
X174394D01*
Y197661D01*
X175780D01*
Y201614D01*
Y205567D01*
X175603D01*
X175263Y206067D01*
X175336Y206433D01*
X175213Y207051D01*
X174863Y207575D01*
X174338Y207925D01*
X173720Y208048D01*
X173102Y207925D01*
X172578Y207575D01*
X172228Y207051D01*
X172226Y207038D01*
X171683Y206874D01*
X168276Y210281D01*
X167912Y210524D01*
X167483Y210610D01*
X167483Y210610D01*
X156018D01*
X156004Y210630D01*
X155480Y210981D01*
X154862Y211104D01*
X154244Y210981D01*
X153720Y210630D01*
X153370Y210106D01*
X153247Y209488D01*
X153370Y208870D01*
X153720Y208346D01*
X154244Y207996D01*
X154862Y207873D01*
X155480Y207996D01*
X156004Y208346D01*
X156018Y208367D01*
X167018D01*
X169718Y205667D01*
X169511Y205167D01*
X164558D01*
Y198061D01*
X167017D01*
X167183Y197561D01*
X161835Y192214D01*
X145151D01*
X144960Y192676D01*
X145865Y193581D01*
X146215Y194105D01*
X146338Y194723D01*
Y195463D01*
X146978D01*
Y204537D01*
X143022D01*
Y195463D01*
X142779Y195064D01*
X139858Y192142D01*
X139631Y191804D01*
X139293Y191577D01*
X138331Y190615D01*
X129650D01*
Y191500D01*
X129115D01*
Y199114D01*
X129650D01*
Y204114D01*
X128714D01*
Y205000D01*
X128621Y205465D01*
X128358Y205858D01*
X128358Y205858D01*
X125858Y208358D01*
X125464Y208622D01*
X125000Y208714D01*
X125000Y208714D01*
X121080D01*
X119214Y210580D01*
Y212038D01*
X135974D01*
Y213878D01*
X137531D01*
X137531Y213878D01*
X137960Y213964D01*
X138324Y214207D01*
X140124Y216007D01*
X140124Y216007D01*
X140367Y216371D01*
X140452Y216800D01*
Y219249D01*
X140452Y219249D01*
X140367Y219678D01*
X140124Y220042D01*
X140124Y220042D01*
X136866Y223300D01*
X137073Y223800D01*
X138156D01*
Y225300D01*
X135906D01*
Y226300D01*
X138156D01*
Y227657D01*
X138610Y227909D01*
X152313Y214207D01*
X152313Y214207D01*
X152676Y213964D01*
X153106Y213878D01*
X156034D01*
Y212038D01*
X172982D01*
Y217681D01*
X178844D01*
X178858Y217660D01*
X179382Y217310D01*
X180000Y217187D01*
X180618Y217310D01*
X181142Y217660D01*
X181492Y218184D01*
X181615Y218802D01*
X181492Y219421D01*
X181142Y219945D01*
X180618Y220295D01*
X180000Y220418D01*
X179382Y220295D01*
X178858Y219945D01*
X178844Y219924D01*
X174697D01*
X174647Y220424D01*
X174895Y220473D01*
X175259Y220716D01*
X175793Y221250D01*
X175793Y221250D01*
X176036Y221614D01*
X176122Y222043D01*
X176418Y222431D01*
X178946D01*
Y223879D01*
X183243D01*
Y223150D01*
X186443D01*
Y226850D01*
X183243D01*
Y226121D01*
X178946D01*
Y227569D01*
X171054D01*
Y223198D01*
X170613Y222963D01*
X170554Y223002D01*
X169936Y223125D01*
X169318Y223002D01*
X168794Y222652D01*
X168444Y222128D01*
X168321Y221509D01*
X168444Y220891D01*
X168756Y220424D01*
X168691Y220175D01*
X168557Y219924D01*
X160085D01*
X156122Y223887D01*
Y224600D01*
X157000D01*
Y227500D01*
Y230400D01*
X155592D01*
X154699Y231293D01*
X154335Y231536D01*
X153906Y231622D01*
X153906Y231622D01*
X153533D01*
X151984Y233170D01*
X152176Y233632D01*
X152708D01*
X152919Y233316D01*
X153505Y232730D01*
X153505Y232730D01*
X153869Y232487D01*
X154298Y232401D01*
X155881D01*
X155881Y232401D01*
X156310Y232487D01*
X156674Y232730D01*
X157624Y233680D01*
X157624Y233680D01*
X157867Y234043D01*
X157952Y234473D01*
X157952Y234473D01*
Y235981D01*
X157973Y235995D01*
X158323Y236519D01*
X158446Y237137D01*
X158323Y237755D01*
X157973Y238279D01*
X157449Y238630D01*
X156831Y238753D01*
X156213Y238630D01*
X155689Y238279D01*
X155339Y237755D01*
X155313Y237625D01*
X154813Y237674D01*
Y240738D01*
X154744D01*
Y245468D01*
X154744Y245468D01*
X154658Y245897D01*
X154415Y246261D01*
X154415Y246261D01*
X149653Y251023D01*
X149860Y251523D01*
X150966D01*
X150966Y251523D01*
X151396Y251608D01*
X151760Y251851D01*
X153598Y253690D01*
X153622Y253685D01*
X154240Y253808D01*
X154764Y254158D01*
X155114Y254682D01*
X155237Y255300D01*
X155114Y255918D01*
X155036Y256036D01*
X155303Y256536D01*
X156762D01*
Y252530D01*
Y247437D01*
X156362D01*
Y246346D01*
X160315D01*
X164268D01*
Y246693D01*
X168246D01*
X168246Y246693D01*
X168675Y246779D01*
X168926Y246946D01*
X169200Y246892D01*
X169818Y247015D01*
X170342Y247365D01*
X170692Y247889D01*
X170815Y248507D01*
X170692Y249125D01*
X170342Y249649D01*
X169818Y249999D01*
X169619Y250039D01*
X169455Y250581D01*
X172268Y253394D01*
X172960D01*
X173356Y253142D01*
X173356Y252894D01*
Y251092D01*
X176256D01*
X179156D01*
Y252904D01*
X179213Y253189D01*
X179529Y253449D01*
X179603Y253464D01*
X180000Y253385D01*
X180618Y253508D01*
X181142Y253858D01*
X181492Y254382D01*
X181615Y255000D01*
X181492Y255618D01*
X181142Y256142D01*
X180618Y256492D01*
X180000Y256615D01*
X179382Y256492D01*
X178894Y256166D01*
X178751Y256207D01*
X178431Y256403D01*
X178521Y256855D01*
X178398Y257473D01*
X178048Y257997D01*
X178044Y258000D01*
X178196Y258500D01*
X181250D01*
Y263500D01*
X176950D01*
Y262214D01*
X170311D01*
X170311Y262214D01*
X169846Y262122D01*
X169453Y261858D01*
X169453Y261858D01*
X164497Y256903D01*
X163868D01*
Y260404D01*
Y264341D01*
Y268278D01*
Y272215D01*
Y276084D01*
X164014Y276191D01*
X164368Y276286D01*
X172313Y268340D01*
X172616Y268138D01*
X172973Y268067D01*
X181690D01*
X181830Y267858D01*
X182354Y267508D01*
X182972Y267385D01*
X183419Y267474D01*
X183614Y267485D01*
X183954Y267149D01*
X184008Y266882D01*
X184358Y266358D01*
X184882Y266008D01*
X185500Y265885D01*
X186118Y266008D01*
X186182Y266050D01*
X186682Y265783D01*
Y263900D01*
X185200D01*
Y261000D01*
Y258100D01*
X186682D01*
Y257419D01*
X186805Y256801D01*
X187155Y256276D01*
X192086Y251346D01*
Y241384D01*
Y235499D01*
X192209Y234881D01*
X192559Y234357D01*
X194358Y232557D01*
X194882Y232207D01*
X195500Y232084D01*
X196700D01*
Y230835D01*
X198385D01*
Y228833D01*
X198258Y228706D01*
X197908Y228182D01*
X197785Y227564D01*
Y226142D01*
X197250D01*
Y225257D01*
X196811D01*
X196193Y225134D01*
X195669Y224784D01*
X194058Y223173D01*
X193708Y222649D01*
X193585Y222031D01*
Y217985D01*
X192350D01*
Y211385D01*
X194348D01*
Y210260D01*
X194471Y209641D01*
X194821Y209117D01*
X195885Y208054D01*
Y207500D01*
X195350D01*
Y202500D01*
X195885D01*
Y201969D01*
X190330Y196415D01*
X186086D01*
X185371Y197129D01*
Y198061D01*
X185442D01*
Y205167D01*
X178165D01*
Y205567D01*
X176780D01*
Y201614D01*
Y197661D01*
X177717D01*
Y193173D01*
X169165Y184622D01*
X162603D01*
X162602Y184622D01*
X162173Y184536D01*
X161810Y184293D01*
X161809Y184293D01*
X157440Y179923D01*
X156978Y180115D01*
Y183277D01*
X153022D01*
Y174203D01*
X153878D01*
Y172156D01*
X153858Y172142D01*
X153508Y171618D01*
X153385Y171000D01*
X153508Y170382D01*
X153858Y169858D01*
X154382Y169508D01*
X155000Y169385D01*
X155618Y169508D01*
X155787Y169621D01*
X156248Y169403D01*
X156325Y168955D01*
X156311Y168934D01*
X155963Y168701D01*
X155612Y168177D01*
X155490Y167559D01*
X155612Y166941D01*
X155963Y166417D01*
X156487Y166067D01*
X157105Y165944D01*
X157723Y166067D01*
X158247Y166417D01*
X158597Y166941D01*
X158720Y167559D01*
X158597Y168177D01*
X158547Y168253D01*
X158622Y168629D01*
X158622Y168629D01*
Y177500D01*
X158622Y177500D01*
X158599Y177611D01*
Y177911D01*
X163067Y182378D01*
X163674D01*
X164158Y182339D01*
X164158Y181878D01*
Y178886D01*
X166043D01*
Y178386D01*
X166543D01*
Y174433D01*
X167481D01*
Y141259D01*
X167481Y141259D01*
X167566Y140830D01*
X167809Y140466D01*
X171561Y136714D01*
X171561Y136684D01*
X171406Y136214D01*
X160192D01*
X158636Y137770D01*
X158597Y137965D01*
X158247Y138489D01*
X157723Y138839D01*
X157105Y138962D01*
X156487Y138839D01*
X155963Y138489D01*
X155612Y137965D01*
X155490Y137347D01*
X155612Y136729D01*
X155963Y136204D01*
X156487Y135854D01*
X157105Y135731D01*
X157219Y135754D01*
X158357Y134615D01*
X158150Y134115D01*
X145483D01*
X135955Y143643D01*
Y151875D01*
Y171231D01*
X135832Y171850D01*
X135482Y172373D01*
X135396Y172459D01*
X134872Y172809D01*
X134254Y172932D01*
X133636Y172809D01*
X133112Y172459D01*
X132762Y171935D01*
X132639Y171317D01*
X132725Y170886D01*
Y153491D01*
X54794D01*
X52642Y155642D01*
X52118Y155992D01*
X51500Y156115D01*
X50882Y155992D01*
X50358Y155642D01*
X50008Y155118D01*
X49885Y154500D01*
X50008Y153882D01*
X50358Y153358D01*
X52982Y150733D01*
X53506Y150383D01*
X54124Y150260D01*
X132725D01*
Y142974D01*
X132848Y142356D01*
X133198Y141832D01*
X143671Y131358D01*
X144195Y131008D01*
X144814Y130885D01*
X195285D01*
Y32500D01*
X194750D01*
Y31862D01*
X186157D01*
X185698Y31672D01*
X182041Y28014D01*
X181851Y27555D01*
Y27525D01*
X181497Y27172D01*
X179168D01*
Y22149D01*
X165801D01*
Y22644D01*
X156136D01*
Y17507D01*
X165801D01*
Y17851D01*
X179168D01*
Y12980D01*
X182786D01*
Y11576D01*
X182786Y11576D01*
X182878Y11111D01*
X183142Y10718D01*
X186737Y7122D01*
X186737Y7122D01*
X187131Y6859D01*
X187595Y6767D01*
X193650D01*
Y4680D01*
X199350D01*
Y11280D01*
X193650D01*
Y9194D01*
X188098D01*
X185214Y12079D01*
Y12980D01*
X188832D01*
Y27172D01*
X186797D01*
X186590Y27672D01*
X187269Y28350D01*
X194750D01*
Y27500D01*
X199050D01*
Y32500D01*
X198515D01*
Y132500D01*
Y155769D01*
X198392Y156387D01*
X198042Y156911D01*
X197284Y157669D01*
Y175758D01*
X198631D01*
Y181683D01*
X192707D01*
Y175758D01*
X194054D01*
Y161553D01*
X193592Y161362D01*
X192865Y162088D01*
Y169399D01*
X192742Y170017D01*
X192392Y170541D01*
X191868Y170891D01*
X191250Y171014D01*
X190632Y170891D01*
X190108Y170541D01*
X189758Y170017D01*
X189635Y169399D01*
Y161419D01*
X189758Y160801D01*
X190108Y160277D01*
X194527Y155858D01*
X195285Y155100D01*
Y134115D01*
X186539D01*
X186332Y134615D01*
X188058Y136342D01*
X188321Y136735D01*
X188414Y137200D01*
X188414Y137200D01*
Y186447D01*
X193253Y191286D01*
X196250D01*
Y188750D01*
X203750D01*
Y196250D01*
X196250D01*
Y193714D01*
X192905D01*
X192694Y194115D01*
X192683Y194198D01*
X198642Y200158D01*
X198992Y200682D01*
X199115Y201300D01*
Y202500D01*
X199650D01*
Y207500D01*
X199115D01*
Y208723D01*
X198992Y209341D01*
X198642Y209865D01*
X197622Y210885D01*
X197684Y211385D01*
X198050D01*
Y217985D01*
X196815D01*
Y220984D01*
X197250Y221142D01*
X197250Y221142D01*
Y221142D01*
X197250Y221142D01*
X201550D01*
Y226142D01*
X201015D01*
Y226895D01*
X201142Y227022D01*
X201492Y227546D01*
X201615Y228164D01*
Y230835D01*
X203300D01*
Y236535D01*
X196700D01*
Y235315D01*
X196169D01*
X195316Y236168D01*
Y241384D01*
Y252015D01*
X195193Y252633D01*
X194843Y253157D01*
X189912Y258088D01*
Y259256D01*
X190412Y259555D01*
X190865Y259464D01*
X191483Y259587D01*
X192008Y259937D01*
X192021Y259958D01*
X193650D01*
Y257980D01*
X195267D01*
X195613Y257665D01*
X195698Y257236D01*
X195942Y256872D01*
X198278Y254535D01*
Y253937D01*
X197250D01*
Y248937D01*
X198278D01*
Y245035D01*
X196700D01*
Y239335D01*
X203300D01*
Y245035D01*
X200522D01*
Y248937D01*
X201550D01*
Y253937D01*
X200522D01*
Y255000D01*
X200522Y255000D01*
X200436Y255429D01*
X200193Y255793D01*
X198468Y257518D01*
X198660Y257980D01*
X199350D01*
Y264580D01*
X193650D01*
Y262201D01*
X192021D01*
X192008Y262222D01*
X191483Y262572D01*
X190865Y262695D01*
X190412Y262605D01*
X189912Y262904D01*
Y283038D01*
X190155Y283402D01*
X190278Y284020D01*
X190155Y284638D01*
X189805Y285162D01*
X189281Y285512D01*
X188663Y285635D01*
X188045Y285512D01*
X187521Y285162D01*
X187473Y285115D01*
X182500D01*
X181882Y284992D01*
X181358Y284642D01*
X181141Y284318D01*
X181049Y284181D01*
X180804Y284183D01*
X180550Y284265D01*
X180550Y284560D01*
X180550Y284560D01*
X180550Y284577D01*
Y286500D01*
X178500D01*
Y284100D01*
X180100D01*
X180494Y284100D01*
X180876Y283926D01*
X180930Y283730D01*
X180885Y283500D01*
X180932Y283260D01*
X181008Y282882D01*
X181358Y282358D01*
X181882Y282008D01*
X182500Y281885D01*
X186682D01*
Y269937D01*
X186182Y269785D01*
X186160Y269818D01*
X184419Y271559D01*
X184116Y271761D01*
X183759Y271832D01*
X173243D01*
X171337Y273738D01*
X171529Y274200D01*
X175350D01*
Y280800D01*
X169650D01*
X169632Y281293D01*
Y281844D01*
X169653Y281858D01*
X170003Y282382D01*
X170126Y283000D01*
X170003Y283618D01*
X169653Y284142D01*
X169129Y284492D01*
X168510Y284615D01*
X167892Y284492D01*
X167833Y284453D01*
X167392Y284688D01*
Y285344D01*
X168302Y286254D01*
X168504Y286557D01*
X168575Y286914D01*
Y292819D01*
X169075Y293026D01*
X169913Y292188D01*
X169669Y291824D01*
X169546Y291206D01*
X169669Y290587D01*
X170019Y290063D01*
X170219Y289864D01*
Y287566D01*
X170250Y287410D01*
Y284500D01*
X174550D01*
Y289500D01*
X173450D01*
Y290533D01*
X173327Y291151D01*
X172976Y291675D01*
X172863Y291788D01*
X173055Y292250D01*
X174500D01*
Y295000D01*
X171300D01*
Y294888D01*
X170838Y294696D01*
X166676Y298858D01*
X166282Y299121D01*
X165818Y299214D01*
X165818Y299214D01*
X159365D01*
X156485Y302094D01*
X156091Y302357D01*
X155627Y302449D01*
X155627Y302449D01*
X153629D01*
X153165Y302357D01*
X152771Y302094D01*
X152553Y301768D01*
X152154D01*
Y297815D01*
X151154D01*
Y301768D01*
X150806D01*
Y303098D01*
X152177Y304469D01*
X155589D01*
X159394Y300663D01*
X159758Y300420D01*
X160187Y300335D01*
X160187Y300335D01*
X165907D01*
X165921Y300314D01*
X166445Y299964D01*
X167063Y299841D01*
X167681Y299964D01*
X168205Y300314D01*
X168555Y300838D01*
X168678Y301457D01*
X168555Y302075D01*
X168205Y302599D01*
X167681Y302949D01*
X167063Y303072D01*
X166445Y302949D01*
X165921Y302599D01*
X165907Y302578D01*
X160652D01*
X160042Y303188D01*
X160233Y303650D01*
X165800D01*
Y309350D01*
X159200D01*
Y308339D01*
X158738Y308148D01*
X157924Y308962D01*
X157560Y309205D01*
X157131Y309291D01*
X157131Y309291D01*
X155511D01*
Y311319D01*
X155349Y311713D01*
X155511Y312106D01*
Y313681D01*
X155321Y314140D01*
X154862Y314331D01*
X153444D01*
Y315592D01*
X153358Y316021D01*
X153115Y316385D01*
X153115Y316385D01*
X151680Y317820D01*
X151316Y318063D01*
X150887Y318149D01*
X150887Y318149D01*
X147108D01*
X145984Y319273D01*
Y319827D01*
X148909D01*
Y323189D01*
Y326551D01*
X145850D01*
X145850Y326551D01*
X145490Y326677D01*
X145336Y326941D01*
X145598Y327441D01*
X155425D01*
X156638Y328654D01*
X157100Y328463D01*
Y327900D01*
X159500D01*
Y329950D01*
X158588D01*
X158396Y330412D01*
X158834Y330850D01*
X162500D01*
Y333032D01*
X212993D01*
Y308144D01*
D02*
G37*
G36*
X84862Y329606D02*
X84469D01*
X81713Y326850D01*
X81319D01*
Y331181D01*
X84862D01*
Y329606D01*
D02*
G37*
G36*
X108012Y326319D02*
X106437D01*
Y326713D01*
X103681Y329468D01*
Y329862D01*
X108012D01*
Y326319D01*
D02*
G37*
G36*
X102894Y329468D02*
X105650Y326713D01*
Y326319D01*
X101319D01*
Y329862D01*
X102894D01*
Y329468D01*
D02*
G37*
G36*
X108012Y318819D02*
X106437D01*
Y319213D01*
X103681Y321968D01*
Y322362D01*
X108012D01*
Y318819D01*
D02*
G37*
G36*
X102894Y321968D02*
X105650Y319213D01*
Y318819D01*
X101319D01*
Y322362D01*
X102894D01*
Y321968D01*
D02*
G37*
G36*
X154862Y312106D02*
X154468D01*
X151713Y309350D01*
X151319D01*
Y313681D01*
X154862D01*
Y312106D01*
D02*
G37*
G36*
X144862D02*
X144468D01*
X141712Y309350D01*
X141319D01*
Y313681D01*
X144862D01*
Y312106D01*
D02*
G37*
G36*
X154862Y306988D02*
X151319D01*
Y308563D01*
X151713D01*
X154468Y311319D01*
X154862D01*
Y306988D01*
D02*
G37*
G36*
X144862D02*
X141319D01*
Y308563D01*
X141712D01*
X144468Y311319D01*
X144862D01*
Y306988D01*
D02*
G37*
G36*
X80512Y293827D02*
X78937D01*
Y294220D01*
X76181Y296976D01*
Y297370D01*
X80512D01*
Y293827D01*
D02*
G37*
G36*
X75394Y296976D02*
X78150Y294220D01*
Y293827D01*
X73819D01*
Y297370D01*
X75394D01*
Y296976D01*
D02*
G37*
G36*
X83752Y225661D02*
X82177D01*
Y226055D01*
X79421Y228811D01*
Y229205D01*
X83752D01*
Y225661D01*
D02*
G37*
G36*
X78634Y228811D02*
X81390Y226055D01*
Y225661D01*
X77059D01*
Y229205D01*
X78634D01*
Y228811D01*
D02*
G37*
G36*
X195500Y29000D02*
X187000D01*
X185500Y27500D01*
Y26000D01*
X182500D01*
X182500Y27555D01*
X186157Y31213D01*
X195500D01*
Y29000D01*
D02*
G37*
G36*
X180000Y18500D02*
X165000D01*
Y21500D01*
X180000D01*
Y18500D01*
D02*
G37*
%LPC*%
G36*
X189331Y391090D02*
X188902Y391005D01*
X188538Y390762D01*
X188538Y390762D01*
X188332Y390555D01*
X160733D01*
X160719Y390576D01*
X160195Y390926D01*
X159577Y391049D01*
X158958Y390926D01*
X158434Y390576D01*
X158084Y390052D01*
X157961Y389434D01*
X158084Y388815D01*
X158434Y388291D01*
X158958Y387941D01*
X159577Y387818D01*
X160195Y387941D01*
X160719Y388291D01*
X160733Y388312D01*
X170655D01*
X171150Y388300D01*
X171150Y387812D01*
Y381700D01*
X172878D01*
Y378575D01*
X172878Y378575D01*
X172964Y378146D01*
X173207Y377782D01*
X175378Y375610D01*
Y374656D01*
X175358Y374642D01*
X175008Y374118D01*
X174885Y373500D01*
X175008Y372882D01*
X175358Y372358D01*
X175882Y372008D01*
X176500Y371885D01*
X177118Y372008D01*
X177642Y372358D01*
X177992Y372882D01*
X178115Y373500D01*
X177992Y374118D01*
X177642Y374642D01*
X177622Y374656D01*
Y376075D01*
X177536Y376504D01*
X177293Y376868D01*
X177293Y376868D01*
X175122Y379039D01*
Y381700D01*
X176850D01*
X176850Y388300D01*
X177345Y388312D01*
X179250D01*
Y385500D01*
X182500D01*
X185750D01*
Y388312D01*
X188796D01*
X188796Y388312D01*
X189226Y388397D01*
X189280Y388434D01*
X191507Y386207D01*
X191507Y386207D01*
X191871Y385964D01*
X192300Y385878D01*
X193650D01*
Y383700D01*
X194839D01*
X195046Y383200D01*
X192560Y380714D01*
X190300D01*
X190300Y380714D01*
X189836Y380622D01*
X189442Y380358D01*
X189442Y380358D01*
X185142Y376058D01*
X184879Y375664D01*
X184786Y375200D01*
X184786Y375200D01*
Y370653D01*
X184508Y370236D01*
X184385Y369618D01*
X184483Y369126D01*
X184400Y368959D01*
X184268Y368820D01*
X184114Y368706D01*
X183807Y368700D01*
X183723Y368700D01*
X181406D01*
Y365500D01*
X184156D01*
X184156Y368234D01*
X184532Y368653D01*
X184585Y368648D01*
X184767Y368612D01*
X184858Y368476D01*
X185382Y368126D01*
X186000Y368003D01*
X186618Y368126D01*
X187142Y368476D01*
X187492Y369000D01*
X187615Y369618D01*
X187492Y370236D01*
X187214Y370653D01*
Y374697D01*
X190803Y378286D01*
X193063D01*
X193063Y378286D01*
X193527Y378379D01*
X193921Y378642D01*
X197358Y382079D01*
X197358Y382079D01*
X197622Y382472D01*
X197714Y382937D01*
Y383700D01*
X199350D01*
Y390300D01*
X193650D01*
Y388122D01*
X192765D01*
X190124Y390762D01*
X189761Y391005D01*
X189331Y391090D01*
D02*
G37*
G36*
X99185Y391924D02*
X98911Y391869D01*
X98254Y391431D01*
X97816Y390774D01*
X97761Y390500D01*
X99185D01*
Y391924D01*
D02*
G37*
G36*
X120950Y390900D02*
X118900D01*
Y388500D01*
X120950D01*
Y390900D01*
D02*
G37*
G36*
X117900D02*
X115850D01*
Y388500D01*
X117900D01*
Y390900D01*
D02*
G37*
G36*
X99185Y389500D02*
X97761D01*
X97816Y389226D01*
X98254Y388569D01*
X98911Y388131D01*
X99185Y388076D01*
Y389500D01*
D02*
G37*
G36*
X108362Y391059D02*
X105500D01*
Y388000D01*
X108362D01*
Y391059D01*
D02*
G37*
G36*
X100185Y391924D02*
Y390000D01*
Y388076D01*
X100459Y388131D01*
X101116Y388569D01*
X101138Y388603D01*
X101638Y388451D01*
Y388000D01*
X104500D01*
Y391059D01*
X101638D01*
X101224Y391268D01*
X101116Y391431D01*
X100459Y391869D01*
X100185Y391924D01*
D02*
G37*
G36*
X208250Y390700D02*
X205500D01*
Y387500D01*
X208250D01*
Y390700D01*
D02*
G37*
G36*
X204500D02*
X201750D01*
Y387500D01*
X204500D01*
Y390700D01*
D02*
G37*
G36*
X126150Y390500D02*
X121850D01*
Y385500D01*
X126150D01*
Y386385D01*
X127028D01*
X127646Y386508D01*
X128170Y386858D01*
X128520Y387382D01*
X128643Y388000D01*
X128520Y388618D01*
X128170Y389142D01*
X127646Y389492D01*
X127028Y389615D01*
X126150D01*
Y390500D01*
D02*
G37*
G36*
X120950Y387500D02*
X118900D01*
Y385100D01*
X120950D01*
Y387500D01*
D02*
G37*
G36*
X117900D02*
X115850D01*
Y385100D01*
X117900D01*
Y387500D01*
D02*
G37*
G36*
X108362Y387000D02*
X105500D01*
Y383941D01*
X108362D01*
Y387000D01*
D02*
G37*
G36*
X104500D02*
X101638D01*
Y383941D01*
X104500D01*
Y387000D01*
D02*
G37*
G36*
X208250Y386500D02*
X205500D01*
Y383300D01*
X208250D01*
Y386500D01*
D02*
G37*
G36*
X204500D02*
X201750D01*
Y383300D01*
X204500D01*
Y386500D01*
D02*
G37*
G36*
X117398Y383028D02*
X114240D01*
Y381937D01*
X117398D01*
Y383028D01*
D02*
G37*
G36*
X113240D02*
X110083D01*
Y381937D01*
X113240D01*
Y383028D01*
D02*
G37*
G36*
X185750Y384500D02*
X183000D01*
Y381300D01*
X185750D01*
Y384500D01*
D02*
G37*
G36*
X182000D02*
X179250D01*
Y381300D01*
X182000D01*
Y384500D01*
D02*
G37*
G36*
X199350Y376300D02*
X193650D01*
Y374214D01*
X191035D01*
X190618Y374492D01*
X190000Y374615D01*
X189382Y374492D01*
X188858Y374142D01*
X188508Y373618D01*
X188385Y373000D01*
X188508Y372382D01*
X188858Y371858D01*
X189382Y371508D01*
X190000Y371385D01*
X190618Y371508D01*
X191035Y371786D01*
X193650D01*
Y369700D01*
X199350D01*
Y376300D01*
D02*
G37*
G36*
X208250Y376700D02*
X205500D01*
Y373500D01*
X208250D01*
Y376700D01*
D02*
G37*
G36*
X204500D02*
X201750D01*
Y373500D01*
X204500D01*
Y376700D01*
D02*
G37*
G36*
X126250Y382037D02*
X118750D01*
Y372963D01*
X126250D01*
Y382037D01*
D02*
G37*
G36*
X97521Y379175D02*
X86479D01*
Y371282D01*
X97521D01*
Y374107D01*
X98307D01*
X99311Y373103D01*
X99137Y372842D01*
X98983Y372070D01*
X99137Y371298D01*
X99574Y370644D01*
X100228Y370207D01*
X101000Y370053D01*
X101772Y370207D01*
X102426Y370644D01*
X102863Y371298D01*
X103017Y372070D01*
X102863Y372842D01*
X102426Y373496D01*
X101772Y373933D01*
X101560Y373975D01*
X101457Y374129D01*
X99565Y376022D01*
X99201Y376265D01*
X98772Y376350D01*
X98772Y376350D01*
X97521D01*
Y379175D01*
D02*
G37*
G36*
X208250Y372500D02*
X205500D01*
Y369300D01*
X208250D01*
Y372500D01*
D02*
G37*
G36*
X204500D02*
X201750D01*
Y369300D01*
X204500D01*
Y372500D01*
D02*
G37*
G36*
X96151Y390659D02*
X90227D01*
Y384341D01*
X92067D01*
Y383000D01*
X92067Y383000D01*
X92153Y382571D01*
X92396Y382207D01*
X93959Y380644D01*
X93959Y380644D01*
X94323Y380401D01*
X94752Y380315D01*
X94752Y380315D01*
X99220D01*
X102829Y376707D01*
X102829Y376707D01*
X103193Y376464D01*
X103622Y376378D01*
X103622Y376378D01*
X108085D01*
X108292Y375879D01*
X106175Y373762D01*
X105932Y373398D01*
X105847Y372968D01*
X105847Y372968D01*
Y367773D01*
X103809D01*
Y361849D01*
X110127D01*
Y367773D01*
X108090D01*
Y372428D01*
X108423Y372693D01*
X108878Y372495D01*
Y372070D01*
X108878Y372070D01*
X108964Y371641D01*
X109077Y371471D01*
X108983Y371000D01*
X109137Y370228D01*
X109574Y369574D01*
X110228Y369137D01*
X111000Y368983D01*
X111772Y369137D01*
X112426Y369574D01*
X112863Y370228D01*
X113017Y371000D01*
X112863Y371772D01*
X112757Y371932D01*
X112992Y372372D01*
X116998D01*
Y376309D01*
Y379847D01*
X117398D01*
Y380937D01*
X113740D01*
X110083D01*
Y380590D01*
X105528D01*
X104642Y381476D01*
X104647Y381500D01*
X104524Y382118D01*
X104174Y382642D01*
X103649Y382992D01*
X103031Y383115D01*
X102413Y382992D01*
X101889Y382642D01*
X101539Y382118D01*
X101499Y381916D01*
X100956Y381752D01*
X100478Y382230D01*
X100114Y382473D01*
X99685Y382559D01*
X99685Y382559D01*
X95217D01*
X94311Y383465D01*
Y384341D01*
X96151D01*
Y390659D01*
D02*
G37*
G36*
X124550Y368900D02*
X122500D01*
Y366500D01*
X124550D01*
Y368900D01*
D02*
G37*
G36*
X121500D02*
X119450D01*
Y366500D01*
X121500D01*
Y368900D01*
D02*
G37*
G36*
X175256Y368300D02*
X169556D01*
Y366122D01*
X167645D01*
X167642Y366126D01*
X167118Y366476D01*
X166500Y366599D01*
X165882Y366476D01*
X165358Y366126D01*
X165008Y365602D01*
X164885Y364984D01*
X165008Y364366D01*
X165358Y363842D01*
X165882Y363492D01*
X166500Y363369D01*
X167118Y363492D01*
X167642Y363842D01*
X167666Y363878D01*
X169556D01*
Y361700D01*
X175256D01*
Y368300D01*
D02*
G37*
G36*
X162614Y368559D02*
X159752D01*
Y365500D01*
X162614D01*
Y368559D01*
D02*
G37*
G36*
X180406Y368700D02*
X177656D01*
Y365500D01*
X180406D01*
Y368700D01*
D02*
G37*
G36*
X158752Y368559D02*
X155890D01*
Y365500D01*
X158752D01*
Y368559D01*
D02*
G37*
G36*
X138500Y366932D02*
X136450D01*
Y364532D01*
X138500D01*
Y366932D01*
D02*
G37*
G36*
X12850Y383300D02*
X7150D01*
Y376700D01*
X8878D01*
Y374650D01*
X8878Y374650D01*
X8964Y374221D01*
X9207Y373857D01*
X11878Y371185D01*
Y368150D01*
X10500D01*
Y363850D01*
X15500D01*
Y368150D01*
X14121D01*
Y371650D01*
X14122Y371650D01*
X14036Y372079D01*
X13793Y372443D01*
X11122Y375115D01*
Y376700D01*
X12850D01*
Y383300D01*
D02*
G37*
G36*
X124550Y365500D02*
X122500D01*
Y363100D01*
X124550D01*
Y365500D01*
D02*
G37*
G36*
X121500D02*
X119450D01*
Y363100D01*
X121500D01*
Y365500D01*
D02*
G37*
G36*
X162614Y364500D02*
X159752D01*
Y361441D01*
X162614D01*
Y364500D01*
D02*
G37*
G36*
X158752D02*
X155890D01*
Y361441D01*
X158752D01*
Y364500D01*
D02*
G37*
G36*
X184156D02*
X181406D01*
Y361300D01*
X184156D01*
Y364500D01*
D02*
G37*
G36*
X180406D02*
X177656D01*
Y361300D01*
X180406D01*
Y364500D01*
D02*
G37*
G36*
X138500Y363532D02*
X136450D01*
Y361132D01*
X138500D01*
Y363532D01*
D02*
G37*
G36*
X15900Y362950D02*
X13500D01*
Y360900D01*
X15900D01*
Y362950D01*
D02*
G37*
G36*
X12500D02*
X10100D01*
Y360900D01*
X12500D01*
Y362950D01*
D02*
G37*
G36*
X208250Y362700D02*
X205500D01*
Y359500D01*
X208250D01*
Y362700D01*
D02*
G37*
G36*
X204500D02*
X201750D01*
Y359500D01*
X204500D01*
Y362700D01*
D02*
G37*
G36*
X185800Y361415D02*
X185182Y361292D01*
X184658Y360942D01*
X184490Y360690D01*
X184442Y360658D01*
X184442Y360658D01*
X179142Y355358D01*
X178878Y354964D01*
X178786Y354500D01*
X178786Y354500D01*
Y350817D01*
X178022D01*
Y341743D01*
X181978D01*
Y350817D01*
X181214D01*
Y353997D01*
X185468Y358251D01*
X185800Y358185D01*
X186418Y358308D01*
X186942Y358658D01*
X187292Y359182D01*
X187415Y359800D01*
X187292Y360418D01*
X186942Y360942D01*
X186418Y361292D01*
X185800Y361415D01*
D02*
G37*
G36*
X15900Y359900D02*
X13500D01*
Y357850D01*
X15900D01*
Y359900D01*
D02*
G37*
G36*
X12500D02*
X10100D01*
Y357850D01*
X12500D01*
Y359900D01*
D02*
G37*
G36*
X158752Y358559D02*
X155890D01*
Y355500D01*
X158752D01*
Y358559D01*
D02*
G37*
G36*
X208250Y358500D02*
X205500D01*
Y355300D01*
X208250D01*
Y358500D01*
D02*
G37*
G36*
X204500D02*
X201750D01*
Y355300D01*
X204500D01*
Y358500D01*
D02*
G37*
G36*
X21350Y383300D02*
X15650D01*
Y376700D01*
X16885D01*
Y364984D01*
X17008Y364366D01*
X17358Y363842D01*
X23385Y357815D01*
Y354967D01*
X23181Y354831D01*
X18850D01*
X18457Y354667D01*
X18063Y354831D01*
X16488D01*
X16029Y354640D01*
X15839Y354181D01*
Y350638D01*
X16029Y350179D01*
X16488Y349988D01*
X16548D01*
Y346634D01*
X14207Y344293D01*
X13964Y343929D01*
X13878Y343500D01*
X13879Y343500D01*
Y338705D01*
X12743Y337570D01*
X12338Y337872D01*
Y339480D01*
X9370D01*
X6402D01*
Y337799D01*
X6802D01*
Y334781D01*
X6802Y334459D01*
X6802Y333959D01*
Y330719D01*
X11938D01*
Y333959D01*
X11938Y334281D01*
X11938Y334765D01*
X12292Y335119D01*
X13000D01*
X13000Y335119D01*
X13429Y335204D01*
X13793Y335447D01*
X15793Y337447D01*
X15793Y337447D01*
X16036Y337811D01*
X16122Y338240D01*
X16122Y338240D01*
Y343035D01*
X18462Y345376D01*
X18462Y345376D01*
X18705Y345740D01*
X18791Y346169D01*
X18791Y346169D01*
Y349988D01*
X20819D01*
X20863Y350007D01*
X21363Y349673D01*
Y349016D01*
X21363Y349016D01*
X21448Y348586D01*
X21691Y348222D01*
X28207Y341707D01*
X28571Y341464D01*
X29000Y341378D01*
X29000Y341378D01*
X31340D01*
X31617Y340708D01*
X32187Y339966D01*
X32929Y339397D01*
X33599Y339119D01*
Y337465D01*
X31207Y335072D01*
X30964Y334709D01*
X30878Y334279D01*
X30669Y333850D01*
X30400D01*
Y330150D01*
X33600D01*
Y333850D01*
X33600D01*
X33470Y334163D01*
X35514Y336207D01*
X35757Y336571D01*
X35842Y337000D01*
X35842Y337000D01*
Y339119D01*
X36512Y339397D01*
X37255Y339966D01*
X37824Y340708D01*
X38182Y341573D01*
X38304Y342500D01*
X38182Y343427D01*
X37824Y344292D01*
X37255Y345034D01*
X36512Y345603D01*
X35833Y345885D01*
X35932Y346385D01*
X51225D01*
X51325Y345885D01*
X50646Y345603D01*
X49903Y345034D01*
X49334Y344292D01*
X48976Y343427D01*
X48854Y342500D01*
X48976Y341573D01*
X49334Y340708D01*
X49903Y339966D01*
X50646Y339397D01*
X51510Y339039D01*
X52437Y338917D01*
X53365Y339039D01*
X54229Y339397D01*
X54971Y339966D01*
X55305Y340402D01*
X55953Y340461D01*
X60149Y336264D01*
X60145Y336240D01*
X60268Y335622D01*
X60618Y335098D01*
X60878Y334924D01*
Y333850D01*
X60400D01*
Y330150D01*
X63600D01*
Y333850D01*
X63122D01*
Y335315D01*
X63122Y335315D01*
X63104Y335401D01*
X63252Y335622D01*
X63375Y336240D01*
X63252Y336858D01*
X62902Y337382D01*
X62378Y337733D01*
X61760Y337856D01*
X61735Y337851D01*
X56910Y342676D01*
X56546Y342919D01*
X56117Y343004D01*
X55900Y343415D01*
X55898Y343427D01*
X55541Y344292D01*
X54971Y345034D01*
X54229Y345603D01*
X53550Y345885D01*
X53649Y346385D01*
X62508D01*
X69385Y339508D01*
Y337150D01*
X68500D01*
Y336985D01*
X66000D01*
X65382Y336862D01*
X64858Y336512D01*
X64508Y335988D01*
X64385Y335370D01*
X64508Y334752D01*
X64858Y334228D01*
X65382Y333878D01*
X66000Y333755D01*
X68500D01*
Y332850D01*
X73500D01*
Y337150D01*
X72615D01*
Y340177D01*
X72492Y340795D01*
X72142Y341319D01*
X64319Y349142D01*
X63795Y349492D01*
X63177Y349615D01*
X27669D01*
X26596Y350689D01*
Y354424D01*
X26615Y354522D01*
Y358484D01*
X26492Y359102D01*
X26142Y359626D01*
X20115Y365653D01*
Y376700D01*
X21350D01*
Y383300D01*
D02*
G37*
G36*
X97521Y355946D02*
X86479D01*
Y353615D01*
X83447D01*
X82829Y353492D01*
X82305Y353142D01*
X82124Y352961D01*
X81774Y352437D01*
X81651Y351819D01*
X81774Y351201D01*
X82124Y350677D01*
X82648Y350327D01*
X83266Y350204D01*
X83884Y350327D01*
X83971Y350385D01*
X86479D01*
Y348054D01*
X97521D01*
Y351130D01*
X98021Y351398D01*
X98154Y351309D01*
X98772Y351186D01*
X99390Y351309D01*
X99914Y351659D01*
X100264Y352184D01*
X100387Y352802D01*
X100264Y353420D01*
X99914Y353944D01*
X99390Y354294D01*
X98772Y354417D01*
X98154Y354294D01*
X98021Y354206D01*
X97521Y354473D01*
Y355946D01*
D02*
G37*
G36*
X141718Y351615D02*
X141099Y351492D01*
X140575Y351142D01*
X140561Y351121D01*
X139843D01*
X139843Y351122D01*
X139413Y351036D01*
X139049Y350793D01*
X139049Y350793D01*
X138837Y350580D01*
X138342Y350567D01*
X138342Y350567D01*
X136957D01*
Y346614D01*
Y342661D01*
X138342D01*
Y343061D01*
X140502D01*
Y346892D01*
X140523Y347000D01*
X140523Y347000D01*
Y348291D01*
X141023Y348558D01*
X141099Y348508D01*
X141718Y348385D01*
X142336Y348508D01*
X142860Y348858D01*
X143210Y349382D01*
X143333Y350000D01*
X143210Y350618D01*
X142860Y351142D01*
X142336Y351492D01*
X141718Y351615D01*
D02*
G37*
G36*
X74776Y345924D02*
Y344500D01*
X76200D01*
X76145Y344774D01*
X75707Y345431D01*
X75051Y345869D01*
X74776Y345924D01*
D02*
G37*
G36*
X73776D02*
X73502Y345869D01*
X72846Y345431D01*
X72407Y344774D01*
X72353Y344500D01*
X73776D01*
Y345924D01*
D02*
G37*
G36*
X163770Y344500D02*
X161720D01*
Y342100D01*
X163770D01*
Y344500D01*
D02*
G37*
G36*
X160720D02*
X158670D01*
Y342100D01*
X160720D01*
Y344500D01*
D02*
G37*
G36*
X76200Y343500D02*
X74776D01*
Y342076D01*
X75051Y342131D01*
X75707Y342569D01*
X76145Y343226D01*
X76200Y343500D01*
D02*
G37*
G36*
X73776D02*
X72353D01*
X72407Y343226D01*
X72846Y342569D01*
X73502Y342131D01*
X73776Y342076D01*
Y343500D01*
D02*
G37*
G36*
X194900Y366215D02*
X194282Y366092D01*
X193758Y365742D01*
X193408Y365218D01*
X193285Y364600D01*
X193408Y363982D01*
X193758Y363458D01*
X194282Y363108D01*
X194688Y363027D01*
X194833Y362800D01*
X194574Y362306D01*
X194565Y362300D01*
X193650D01*
Y355700D01*
X195486D01*
Y355220D01*
X195486Y355220D01*
X195579Y354756D01*
X195842Y354362D01*
X198786Y351418D01*
Y350817D01*
X198022D01*
Y341743D01*
X201978D01*
Y350817D01*
X201214D01*
Y351920D01*
X201121Y352385D01*
X200858Y352779D01*
X200858Y352779D01*
X198399Y355238D01*
X198590Y355700D01*
X199350D01*
Y362300D01*
X197622D01*
Y363000D01*
X197622Y363000D01*
X197536Y363429D01*
X197293Y363793D01*
X197293Y363793D01*
X196510Y364576D01*
X196515Y364600D01*
X196392Y365218D01*
X196042Y365742D01*
X195518Y366092D01*
X194900Y366215D01*
D02*
G37*
G36*
X190000Y361415D02*
X189382Y361292D01*
X188858Y360942D01*
X188508Y360418D01*
X188385Y359800D01*
X188508Y359182D01*
X188786Y358765D01*
Y350817D01*
X188022D01*
Y341743D01*
X191978D01*
Y350817D01*
X191214D01*
Y358765D01*
X191492Y359182D01*
X191615Y359800D01*
X191492Y360418D01*
X191142Y360942D01*
X190618Y361292D01*
X190000Y361415D01*
D02*
G37*
G36*
X85250Y344700D02*
X82500D01*
Y341500D01*
X85250D01*
Y344700D01*
D02*
G37*
G36*
X81500D02*
X78750D01*
Y341500D01*
X81500D01*
Y344700D01*
D02*
G37*
G36*
X12338Y342161D02*
X9870D01*
Y340480D01*
X12338D01*
Y342161D01*
D02*
G37*
G36*
X8870D02*
X6402D01*
Y340480D01*
X8870D01*
Y342161D01*
D02*
G37*
G36*
X22569Y341761D02*
X17432D01*
Y338199D01*
X22569D01*
Y338859D01*
X23857D01*
X23858Y338858D01*
X24382Y338508D01*
X25000Y338385D01*
X25618Y338508D01*
X26142Y338858D01*
X26492Y339382D01*
X26615Y340000D01*
X26492Y340618D01*
X26142Y341142D01*
X25618Y341492D01*
X25000Y341615D01*
X24382Y341492D01*
X23858Y341142D01*
X23831Y341102D01*
X22569D01*
Y341761D01*
D02*
G37*
G36*
X85250Y340500D02*
X82500D01*
Y337300D01*
X85250D01*
Y340500D01*
D02*
G37*
G36*
X81500D02*
X78750D01*
Y337300D01*
X81500D01*
Y340500D01*
D02*
G37*
G36*
X51941Y336122D02*
X51941Y336122D01*
X42000D01*
X42000Y336122D01*
X41571Y336036D01*
X41207Y335793D01*
X38535Y333121D01*
X37900D01*
Y333850D01*
X34700D01*
Y330150D01*
X37900D01*
Y330878D01*
X39000D01*
X39000Y330878D01*
X39429Y330964D01*
X39793Y331207D01*
X42465Y333878D01*
X43243D01*
X43621Y333584D01*
Y330416D01*
X44024D01*
Y333181D01*
X46789D01*
Y333584D01*
X47168Y333878D01*
X51476D01*
X54148Y331207D01*
X54512Y330964D01*
X54941Y330878D01*
X54941Y330878D01*
X56100D01*
Y330150D01*
X59300D01*
Y333850D01*
X56100D01*
Y333121D01*
X55405D01*
X52734Y335793D01*
X52370Y336036D01*
X51941Y336122D01*
D02*
G37*
G36*
X22569Y334281D02*
X17432D01*
Y330719D01*
X22569D01*
Y330885D01*
X26000D01*
X26618Y331008D01*
X27142Y331358D01*
X27492Y331882D01*
X27615Y332500D01*
X27492Y333118D01*
X27142Y333642D01*
X26618Y333992D01*
X26000Y334115D01*
X22569D01*
Y334281D01*
D02*
G37*
G36*
X46789Y331222D02*
X45983Y330416D01*
X46771D01*
X46789Y330435D01*
Y331222D01*
D02*
G37*
G36*
X73900Y331950D02*
X71500D01*
Y329900D01*
X73900D01*
Y331950D01*
D02*
G37*
G36*
X70500D02*
X68100D01*
Y329900D01*
X70500D01*
Y331950D01*
D02*
G37*
G36*
X48370Y329654D02*
X47567D01*
Y328169D01*
X48370D01*
Y329654D01*
D02*
G37*
G36*
X45886D02*
X45221D01*
X44418Y328850D01*
X44402D01*
Y328169D01*
X44524D01*
X45886Y329532D01*
Y329654D01*
D02*
G37*
G36*
X8500Y328589D02*
Y327165D01*
X9924D01*
X9869Y327440D01*
X9431Y328096D01*
X8774Y328535D01*
X8500Y328589D01*
D02*
G37*
G36*
X7500D02*
X7226Y328535D01*
X6569Y328096D01*
X6131Y327440D01*
X6076Y327165D01*
X7500D01*
Y328589D01*
D02*
G37*
G36*
X73900Y328900D02*
X71500D01*
Y326850D01*
X73900D01*
Y328900D01*
D02*
G37*
G36*
X70500D02*
X68100D01*
Y326850D01*
X70500D01*
Y328900D01*
D02*
G37*
%LPD*%
G36*
X23181Y350638D02*
X21606D01*
Y351031D01*
X18850Y353787D01*
Y354181D01*
X23181D01*
Y350638D01*
D02*
G37*
G36*
X18063Y353787D02*
X20819Y351031D01*
Y350638D01*
X16488D01*
Y354181D01*
X18063D01*
Y353787D01*
D02*
G37*
%LPC*%
G36*
X162900Y329950D02*
X160500D01*
Y327900D01*
X162900D01*
Y329950D01*
D02*
G37*
G36*
X195500Y329324D02*
Y327900D01*
X196924D01*
X196869Y328174D01*
X196431Y328831D01*
X195774Y329269D01*
X195500Y329324D01*
D02*
G37*
G36*
X194500D02*
X194226Y329269D01*
X193569Y328831D01*
X193131Y328174D01*
X193076Y327900D01*
X194500D01*
Y329324D01*
D02*
G37*
G36*
X196924Y326900D02*
X195500D01*
Y325476D01*
X195774Y325531D01*
X196431Y325969D01*
X196869Y326626D01*
X196924Y326900D01*
D02*
G37*
G36*
X194500D02*
X193076D01*
X193131Y326626D01*
X193569Y325969D01*
X194226Y325531D01*
X194500Y325476D01*
Y326900D01*
D02*
G37*
G36*
X159500D02*
X157100D01*
Y324850D01*
X159500D01*
Y326900D01*
D02*
G37*
G36*
X152969Y326551D02*
X149909D01*
Y323689D01*
X152969D01*
Y326551D01*
D02*
G37*
G36*
Y322689D02*
X149909D01*
Y319827D01*
X152969D01*
Y322689D01*
D02*
G37*
G36*
X77750Y319700D02*
X75000D01*
Y316500D01*
X77750D01*
Y319700D01*
D02*
G37*
G36*
X74000D02*
X71250D01*
Y316500D01*
X74000D01*
Y319700D01*
D02*
G37*
G36*
X63297Y323474D02*
X56191D01*
Y315581D01*
X63297D01*
Y323474D01*
D02*
G37*
G36*
X175000Y331615D02*
X174382Y331492D01*
X173858Y331142D01*
X173508Y330618D01*
X173385Y330000D01*
Y323257D01*
X173022D01*
Y314183D01*
X176978D01*
Y323257D01*
X176615D01*
Y330000D01*
X176492Y330618D01*
X176142Y331142D01*
X175618Y331492D01*
X175000Y331615D01*
D02*
G37*
G36*
X162900Y326900D02*
X160500D01*
Y324850D01*
X162445D01*
X162709Y324850D01*
X162927Y324361D01*
X161707Y323141D01*
X161464Y322777D01*
X161378Y322348D01*
X161378Y322348D01*
Y317850D01*
X159200D01*
Y312150D01*
X165800D01*
Y317850D01*
X163622D01*
Y321883D01*
X165617Y323879D01*
X167913D01*
X168000Y323748D01*
X168022Y323257D01*
X168022D01*
Y314183D01*
X171978D01*
Y323257D01*
X171122D01*
Y323748D01*
X171122Y323748D01*
X171036Y324177D01*
X170793Y324541D01*
X170793Y324541D01*
X169541Y325793D01*
X169177Y326036D01*
X168748Y326122D01*
X168748Y326121D01*
X165152D01*
X164723Y326036D01*
X164359Y325793D01*
X164359Y325793D01*
X163389Y324823D01*
X162900Y325041D01*
X162900Y325271D01*
Y326900D01*
D02*
G37*
G36*
X206978Y323257D02*
X203022D01*
Y314297D01*
X202642Y313978D01*
X202412Y314024D01*
X202071Y314149D01*
X201978Y314577D01*
Y323257D01*
X198022D01*
Y314183D01*
X198704D01*
X198806Y313683D01*
X196820Y311697D01*
X196431Y312016D01*
X196542Y312182D01*
X196665Y312800D01*
X196542Y313418D01*
X196365Y313683D01*
X196632Y314183D01*
X196978D01*
Y323257D01*
X193022D01*
Y314183D01*
X193468D01*
X193735Y313683D01*
X193558Y313418D01*
X193435Y312800D01*
X193558Y312182D01*
X193908Y311658D01*
X194432Y311308D01*
X195050Y311185D01*
X195668Y311308D01*
X195834Y311419D01*
X196153Y311030D01*
X194207Y309084D01*
X193964Y308720D01*
X193878Y308291D01*
X193878Y308291D01*
Y306850D01*
X191700D01*
Y301150D01*
X198300D01*
Y306850D01*
X196122D01*
Y307827D01*
X200126Y311831D01*
X200698Y311696D01*
X200942Y311331D01*
X201466Y310981D01*
X202084Y310858D01*
X202702Y310981D01*
X203226Y311331D01*
X203451Y311668D01*
X203747Y311866D01*
X204141Y312260D01*
X204258D01*
X204258Y312260D01*
X204687Y312345D01*
X205051Y312588D01*
X205793Y313330D01*
X206036Y313694D01*
X206122Y314123D01*
X206605Y314183D01*
X206978D01*
Y323257D01*
D02*
G37*
G36*
X77750Y315500D02*
X75000D01*
Y312300D01*
X77750D01*
Y315500D01*
D02*
G37*
G36*
X74000D02*
X71250D01*
Y312300D01*
X74000D01*
Y315500D01*
D02*
G37*
G36*
X191978Y323257D02*
X188022D01*
Y314183D01*
X188878D01*
Y312965D01*
X187424Y311510D01*
X186910Y311704D01*
X186828Y312118D01*
X186478Y312642D01*
X186141Y312867D01*
X186122Y312896D01*
Y314183D01*
X186978D01*
Y323257D01*
X183022D01*
Y314183D01*
X183878D01*
Y312521D01*
X183878Y312520D01*
X183932Y312251D01*
X183843Y312118D01*
X183720Y311500D01*
X183843Y310882D01*
X184193Y310358D01*
X184718Y310008D01*
X185132Y309925D01*
X185326Y309412D01*
X184207Y308293D01*
X183964Y307929D01*
X183878Y307500D01*
X183878Y307500D01*
Y306850D01*
X181700D01*
Y301150D01*
X188300D01*
Y306850D01*
X186643D01*
X186436Y307350D01*
X190793Y311707D01*
X190793Y311707D01*
X191036Y312071D01*
X191122Y312500D01*
X191122Y312500D01*
Y314183D01*
X191978D01*
Y323257D01*
D02*
G37*
G36*
X137550Y312900D02*
X135500D01*
Y310500D01*
X137550D01*
Y312900D01*
D02*
G37*
G36*
X134500D02*
X132450D01*
Y310500D01*
X134500D01*
Y312900D01*
D02*
G37*
G36*
X107362Y313559D02*
X104500D01*
Y310500D01*
X107362D01*
Y313559D01*
D02*
G37*
G36*
X103500D02*
X100638D01*
Y310500D01*
X103500D01*
Y313559D01*
D02*
G37*
G36*
X79950Y309900D02*
X77900D01*
Y307500D01*
X79950D01*
Y309900D01*
D02*
G37*
G36*
X76900D02*
X74850D01*
Y307500D01*
X76900D01*
Y309900D01*
D02*
G37*
G36*
X107362Y309500D02*
X104500D01*
Y306441D01*
X107362D01*
Y309500D01*
D02*
G37*
G36*
X103500D02*
X100638D01*
Y306441D01*
X103500D01*
Y309500D01*
D02*
G37*
G36*
X79950Y306500D02*
X77900D01*
Y304100D01*
X79950D01*
Y306500D01*
D02*
G37*
G36*
X76900D02*
X74850D01*
Y304100D01*
X76900D01*
Y306500D01*
D02*
G37*
G36*
X181978Y323257D02*
X178022D01*
Y314183D01*
X178878D01*
Y313609D01*
X174207Y308937D01*
X173964Y308573D01*
X173878Y308144D01*
X173878Y308144D01*
Y306850D01*
X171700D01*
Y301150D01*
X178300D01*
Y306850D01*
X176122D01*
Y307679D01*
X180793Y312351D01*
X180793Y312351D01*
X181036Y312715D01*
X181122Y313144D01*
X181122Y313144D01*
Y314183D01*
X181978D01*
Y323257D01*
D02*
G37*
G36*
X198700Y298750D02*
X195500D01*
Y296000D01*
X198700D01*
Y298750D01*
D02*
G37*
G36*
X188700D02*
X185500D01*
Y296000D01*
X188700D01*
Y298750D01*
D02*
G37*
G36*
X178700D02*
X175500D01*
Y296000D01*
X178700D01*
Y298750D01*
D02*
G37*
G36*
X194500D02*
X191300D01*
Y296000D01*
X194500D01*
Y298750D01*
D02*
G37*
G36*
X184500D02*
X181300D01*
Y296000D01*
X184500D01*
Y298750D01*
D02*
G37*
G36*
X174500D02*
X171300D01*
Y296000D01*
X174500D01*
Y298750D01*
D02*
G37*
G36*
X198700Y295000D02*
X195500D01*
Y292250D01*
X198700D01*
Y295000D01*
D02*
G37*
G36*
X194500D02*
X191300D01*
Y292250D01*
X194500D01*
Y295000D01*
D02*
G37*
G36*
X188700D02*
X185500D01*
Y292250D01*
X188700D01*
Y295000D01*
D02*
G37*
G36*
X184500D02*
X181300D01*
Y292250D01*
X184500D01*
Y295000D01*
D02*
G37*
G36*
X178700D02*
X175500D01*
Y292250D01*
X178700D01*
Y295000D01*
D02*
G37*
G36*
X79950Y291306D02*
X77900D01*
Y288906D01*
X79950D01*
Y291306D01*
D02*
G37*
G36*
X76900D02*
X74850D01*
Y288906D01*
X76900D01*
Y291306D01*
D02*
G37*
G36*
X180550Y289900D02*
X178500D01*
Y287500D01*
X180550D01*
Y289900D01*
D02*
G37*
G36*
X177500D02*
X175450D01*
Y287500D01*
X177500D01*
Y289900D01*
D02*
G37*
G36*
X79950Y287906D02*
X77900D01*
Y285506D01*
X79950D01*
Y287906D01*
D02*
G37*
G36*
X76900D02*
X74850D01*
Y285506D01*
X76900D01*
Y287906D01*
D02*
G37*
G36*
X195894Y286424D02*
Y285000D01*
X197318D01*
X197263Y285274D01*
X196824Y285931D01*
X196168Y286369D01*
X195894Y286424D01*
D02*
G37*
G36*
X194894D02*
X194620Y286369D01*
X193963Y285931D01*
X193525Y285274D01*
X193470Y285000D01*
X194894D01*
Y286424D01*
D02*
G37*
G36*
X89500Y286566D02*
X87100D01*
Y284516D01*
X89500D01*
Y286566D01*
D02*
G37*
G36*
X177500Y286500D02*
X175450D01*
Y284100D01*
X177500D01*
Y286500D01*
D02*
G37*
G36*
X197318Y284000D02*
X195894D01*
Y282576D01*
X196168Y282631D01*
X196824Y283069D01*
X197263Y283726D01*
X197318Y284000D01*
D02*
G37*
G36*
X194894D02*
X193470D01*
X193525Y283726D01*
X193963Y283069D01*
X194620Y282631D01*
X194894Y282576D01*
Y284000D01*
D02*
G37*
G36*
X184250Y281200D02*
X181500D01*
Y278000D01*
X184250D01*
Y281200D01*
D02*
G37*
G36*
X180500D02*
X177750D01*
Y278000D01*
X180500D01*
Y281200D01*
D02*
G37*
G36*
X184250Y277000D02*
X181500D01*
Y273800D01*
X184250D01*
Y277000D01*
D02*
G37*
G36*
X180500D02*
X177750D01*
Y273800D01*
X180500D01*
Y277000D01*
D02*
G37*
G36*
X93700Y270750D02*
X90500D01*
Y268000D01*
X93700D01*
Y270750D01*
D02*
G37*
G36*
X89500D02*
X86300D01*
Y268000D01*
X89500D01*
Y270750D01*
D02*
G37*
G36*
X196484Y270771D02*
X193916D01*
X192631Y269487D01*
Y266918D01*
X193916Y265634D01*
X196484D01*
X197768Y266918D01*
Y269487D01*
X196484Y270771D01*
D02*
G37*
G36*
X184200Y263900D02*
X182150D01*
Y261500D01*
X184200D01*
Y263900D01*
D02*
G37*
G36*
X25895Y265600D02*
X14853D01*
Y258494D01*
X25895D01*
Y265600D01*
D02*
G37*
G36*
X184200Y260500D02*
X182150D01*
Y258100D01*
X184200D01*
Y260500D01*
D02*
G37*
G36*
X208250Y260780D02*
X205500D01*
Y257580D01*
X208250D01*
Y260780D01*
D02*
G37*
G36*
X204500D02*
X201750D01*
Y257580D01*
X204500D01*
Y260780D01*
D02*
G37*
G36*
X69450Y255400D02*
X67400D01*
Y253000D01*
X69450D01*
Y255400D01*
D02*
G37*
G36*
X55050D02*
X53000D01*
Y253000D01*
X55050D01*
Y255400D01*
D02*
G37*
G36*
X52000D02*
X49950D01*
Y253000D01*
X52000D01*
Y255400D01*
D02*
G37*
G36*
X207550Y254337D02*
X205500D01*
Y251937D01*
X207550D01*
Y254337D01*
D02*
G37*
G36*
X204500D02*
X202450D01*
Y251937D01*
X204500D01*
Y254337D01*
D02*
G37*
G36*
X44405Y258126D02*
X38000D01*
Y249752D01*
X44405D01*
Y258126D01*
D02*
G37*
G36*
X37000D02*
X30595D01*
Y249752D01*
X37000D01*
Y258126D01*
D02*
G37*
G36*
X69450Y252000D02*
X67400D01*
Y249600D01*
X69450D01*
Y252000D01*
D02*
G37*
G36*
X66400D02*
X64350D01*
Y249600D01*
X66400D01*
Y252000D01*
D02*
G37*
G36*
X55050D02*
X53000D01*
Y249600D01*
X55050D01*
Y252000D01*
D02*
G37*
G36*
X52000D02*
X49950D01*
Y249600D01*
X52000D01*
Y252000D01*
D02*
G37*
G36*
X179156Y250092D02*
X176756D01*
Y248042D01*
X179156D01*
Y250092D01*
D02*
G37*
G36*
X175756D02*
X173356D01*
Y248042D01*
X175756D01*
Y250092D01*
D02*
G37*
G36*
X207550Y250937D02*
X202450D01*
Y248537D01*
X205042D01*
X205233Y248075D01*
X204539Y247381D01*
Y246397D01*
X210476D01*
Y247381D01*
X208992Y248866D01*
X207550D01*
Y250937D01*
D02*
G37*
G36*
X188784Y248415D02*
X186216D01*
X184932Y247131D01*
Y246206D01*
X178756D01*
Y247142D01*
X173756D01*
Y246214D01*
X173032D01*
X172567Y246122D01*
X172173Y245858D01*
X172173Y245858D01*
X171589Y245274D01*
X168299D01*
X167835Y245181D01*
X167701Y245092D01*
X164268D01*
Y245346D01*
X160315D01*
X156362D01*
Y244256D01*
X156762D01*
Y242687D01*
X160198D01*
X160315Y242664D01*
X167260D01*
X167640Y242164D01*
X167585Y241885D01*
X167708Y241267D01*
X167769Y241175D01*
X167733Y240957D01*
X167570Y240573D01*
X167319Y240405D01*
X166270Y239356D01*
X166027Y238992D01*
X165941Y238563D01*
X165942Y238563D01*
Y236156D01*
X165921Y236142D01*
X165571Y235618D01*
X165448Y235000D01*
X165571Y234382D01*
X165921Y233858D01*
X166445Y233508D01*
X167063Y233385D01*
X167681Y233508D01*
X168205Y233858D01*
X168555Y234382D01*
X168678Y235000D01*
X168555Y235618D01*
X168205Y236142D01*
X168184Y236156D01*
Y238098D01*
X168577Y238491D01*
X173260D01*
X173840Y237911D01*
X173785Y237411D01*
X171054D01*
Y232274D01*
X178946D01*
Y233721D01*
X180585D01*
X180585Y233721D01*
X181014Y233806D01*
X181378Y234050D01*
X182507Y235178D01*
X183100D01*
Y234450D01*
X186300D01*
Y238150D01*
X183100D01*
Y237421D01*
X182043D01*
X181613Y237336D01*
X181249Y237093D01*
X181249Y237093D01*
X180121Y235964D01*
X178946D01*
Y237411D01*
X176122D01*
Y238337D01*
X176036Y238766D01*
X175793Y239130D01*
X175793Y239130D01*
X174660Y240264D01*
X174860Y240763D01*
X178351D01*
X178611Y240374D01*
X179136Y240023D01*
X179754Y239900D01*
X180372Y240023D01*
X180896Y240374D01*
X181246Y240898D01*
X181369Y241516D01*
X181246Y242134D01*
X180896Y242658D01*
X180372Y243008D01*
X179754Y243131D01*
X179256Y243032D01*
X178781Y243296D01*
X178831Y243778D01*
X185715D01*
X186216Y243278D01*
X188784D01*
X190068Y244562D01*
Y247131D01*
X188784Y248415D01*
D02*
G37*
G36*
X210476Y245397D02*
X208008D01*
Y242929D01*
X208992D01*
X210476Y244413D01*
Y245397D01*
D02*
G37*
G36*
X207008D02*
X204539D01*
Y244413D01*
X206023Y242929D01*
X207008D01*
Y245397D01*
D02*
G37*
G36*
X44405Y248752D02*
X38000D01*
Y240378D01*
X44405D01*
Y248752D01*
D02*
G37*
G36*
X37000D02*
X30595D01*
Y240378D01*
X37000D01*
Y248752D01*
D02*
G37*
G36*
X74650Y255000D02*
X70350D01*
Y250000D01*
X71378D01*
Y247185D01*
X70350D01*
Y242185D01*
X71378D01*
Y240710D01*
X71246Y240511D01*
X71123Y239893D01*
X71246Y239275D01*
X71596Y238751D01*
X72120Y238401D01*
X72738Y238278D01*
X73356Y238401D01*
X73880Y238751D01*
X74230Y239275D01*
X74353Y239893D01*
X74230Y240511D01*
X73880Y241035D01*
X73622Y241208D01*
Y242185D01*
X74650D01*
Y247185D01*
X73622D01*
Y250000D01*
X74650D01*
Y255000D01*
D02*
G37*
G36*
X90140Y240050D02*
X87740D01*
Y238000D01*
X90140D01*
Y240050D01*
D02*
G37*
G36*
X86740D02*
X84340D01*
Y238000D01*
X86740D01*
Y240050D01*
D02*
G37*
G36*
X191000Y238550D02*
X189500D01*
Y236800D01*
X191000D01*
Y238550D01*
D02*
G37*
G36*
X188500D02*
X187000D01*
Y236800D01*
X188500D01*
Y238550D01*
D02*
G37*
G36*
X90140Y237000D02*
X87740D01*
Y234950D01*
X90140D01*
Y237000D01*
D02*
G37*
G36*
X86740D02*
X84340D01*
Y234950D01*
X86740D01*
Y237000D01*
D02*
G37*
G36*
X191000Y235800D02*
X189500D01*
Y234050D01*
X191000D01*
Y235800D01*
D02*
G37*
G36*
X188500D02*
X187000D01*
Y234050D01*
X188500D01*
Y235800D01*
D02*
G37*
G36*
X182500Y233615D02*
X181882Y233492D01*
X181358Y233142D01*
X181008Y232618D01*
X180885Y232000D01*
X180890Y231976D01*
X180035Y231121D01*
X163470D01*
X163418Y231156D01*
X162800Y231279D01*
X162182Y231156D01*
X161658Y230806D01*
X161308Y230282D01*
X161185Y229664D01*
X161308Y229046D01*
X161658Y228522D01*
X162182Y228172D01*
X162800Y228049D01*
X163418Y228172D01*
X163942Y228522D01*
X164180Y228878D01*
X180500D01*
X180500Y228878D01*
X180929Y228964D01*
X181293Y229207D01*
X182476Y230390D01*
X182500Y230385D01*
X183118Y230508D01*
X183642Y230858D01*
X183992Y231382D01*
X184115Y232000D01*
X183992Y232618D01*
X183642Y233142D01*
X183118Y233492D01*
X182500Y233615D01*
D02*
G37*
G36*
X160050Y230400D02*
X158000D01*
Y228000D01*
X160050D01*
Y230400D01*
D02*
G37*
G36*
X191143Y227250D02*
X189643D01*
Y225500D01*
X191143D01*
Y227250D01*
D02*
G37*
G36*
X188643D02*
X187143D01*
Y225500D01*
X188643D01*
Y227250D01*
D02*
G37*
G36*
X160050Y227000D02*
X158000D01*
Y224600D01*
X160050D01*
Y227000D01*
D02*
G37*
G36*
X207550Y226542D02*
X205500D01*
Y224142D01*
X207550D01*
Y226542D01*
D02*
G37*
G36*
X204500D02*
X202450D01*
Y224142D01*
X204500D01*
Y226542D01*
D02*
G37*
G36*
X114950Y225900D02*
X112900D01*
Y223500D01*
X114950D01*
Y225900D01*
D02*
G37*
G36*
X111900D02*
X109850D01*
Y223500D01*
X111900D01*
Y225900D01*
D02*
G37*
G36*
X191143Y224500D02*
X189643D01*
Y222750D01*
X191143D01*
Y224500D01*
D02*
G37*
G36*
X188643D02*
X187143D01*
Y222750D01*
X188643D01*
Y224500D01*
D02*
G37*
G36*
X207550Y223142D02*
X205500D01*
Y220742D01*
X207550D01*
Y223142D01*
D02*
G37*
G36*
X204500D02*
X202450D01*
Y220742D01*
X204500D01*
Y223142D01*
D02*
G37*
G36*
X114950Y222500D02*
X112900D01*
Y220100D01*
X114950D01*
Y222500D01*
D02*
G37*
G36*
X111900D02*
X109850D01*
Y220100D01*
X111900D01*
Y222500D01*
D02*
G37*
G36*
X206950Y218385D02*
X204200D01*
Y215185D01*
X206950D01*
Y218385D01*
D02*
G37*
G36*
X203200D02*
X200450D01*
Y215185D01*
X203200D01*
Y218385D01*
D02*
G37*
G36*
X206950Y214185D02*
X204200D01*
Y210985D01*
X206950D01*
Y214185D01*
D02*
G37*
G36*
X203200D02*
X200450D01*
Y210985D01*
X203200D01*
Y214185D01*
D02*
G37*
G36*
X114478Y218238D02*
X110522D01*
Y209164D01*
X114478D01*
Y218238D01*
D02*
G37*
G36*
X109478D02*
X105522D01*
Y209164D01*
X109478D01*
Y218238D01*
D02*
G37*
G36*
X205650Y207900D02*
X203600D01*
Y205500D01*
X205650D01*
Y207900D01*
D02*
G37*
G36*
X202600D02*
X200550D01*
Y205500D01*
X202600D01*
Y207900D01*
D02*
G37*
G36*
X205650Y204500D02*
X203600D01*
Y202100D01*
X205650D01*
Y204500D01*
D02*
G37*
G36*
X202600D02*
X200550D01*
Y202100D01*
X202600D01*
Y204500D01*
D02*
G37*
G36*
X152378Y204937D02*
X150500D01*
Y200500D01*
X152378D01*
Y204937D01*
D02*
G37*
G36*
X149500D02*
X147622D01*
Y200500D01*
X149500D01*
Y204937D01*
D02*
G37*
G36*
X156978Y204537D02*
X153022D01*
Y195463D01*
X156978D01*
Y204537D01*
D02*
G37*
G36*
X136457Y211104D02*
X135838Y210981D01*
X135314Y210630D01*
X134964Y210106D01*
X134841Y209488D01*
X134964Y208870D01*
X135314Y208346D01*
X135838Y207996D01*
X136457Y207873D01*
X136481Y207878D01*
X138878Y205480D01*
Y204537D01*
X138022D01*
Y195463D01*
X141978D01*
Y204537D01*
X141122D01*
Y205945D01*
X141036Y206374D01*
X140793Y206738D01*
X140793Y206738D01*
X138067Y209464D01*
X138072Y209488D01*
X137949Y210106D01*
X137599Y210630D01*
X137075Y210981D01*
X136457Y211104D01*
D02*
G37*
G36*
X152378Y199500D02*
X150500D01*
Y195063D01*
X152378D01*
Y199500D01*
D02*
G37*
G36*
X149500D02*
X147622D01*
Y195063D01*
X149500D01*
Y199500D01*
D02*
G37*
G36*
X68900Y189950D02*
X66500D01*
Y187900D01*
X68900D01*
Y189950D01*
D02*
G37*
G36*
X65500D02*
X63100D01*
Y187900D01*
X65500D01*
Y189950D01*
D02*
G37*
G36*
X68900Y186900D02*
X66500D01*
Y184850D01*
X68900D01*
Y186900D01*
D02*
G37*
G36*
X65500D02*
X63100D01*
Y184850D01*
X65500D01*
Y186900D01*
D02*
G37*
G36*
X68900Y182150D02*
X66500D01*
Y180100D01*
X68900D01*
Y182150D01*
D02*
G37*
G36*
X65500D02*
X63100D01*
Y180100D01*
X65500D01*
Y182150D01*
D02*
G37*
G36*
X152378Y183677D02*
X150500D01*
Y179240D01*
X152378D01*
Y183677D01*
D02*
G37*
G36*
X149500D02*
X147622D01*
Y179240D01*
X149500D01*
Y183677D01*
D02*
G37*
G36*
X207693Y182083D02*
X204831D01*
Y179220D01*
X207693D01*
Y182083D01*
D02*
G37*
G36*
X203831D02*
X200969D01*
Y179220D01*
X203831D01*
Y182083D01*
D02*
G37*
G36*
X68900Y179100D02*
X66500D01*
Y177050D01*
X68900D01*
Y179100D01*
D02*
G37*
G36*
X65500D02*
X63100D01*
Y177050D01*
X65500D01*
Y179100D01*
D02*
G37*
G36*
X94878Y181236D02*
X93000D01*
Y176799D01*
X94878D01*
Y181236D01*
D02*
G37*
G36*
X92000D02*
X90122D01*
Y176799D01*
X92000D01*
Y181236D01*
D02*
G37*
G36*
X207693Y178220D02*
X204831D01*
Y175358D01*
X207693D01*
Y178220D01*
D02*
G37*
G36*
X203831D02*
X200969D01*
Y175358D01*
X203831D01*
Y178220D01*
D02*
G37*
G36*
X165543Y177886D02*
X164158D01*
Y174433D01*
X165543D01*
Y177886D01*
D02*
G37*
G36*
X152378Y178240D02*
X150500D01*
Y173803D01*
X152378D01*
Y178240D01*
D02*
G37*
G36*
X149500D02*
X147622D01*
Y173803D01*
X149500D01*
Y178240D01*
D02*
G37*
G36*
X146978Y183277D02*
X143022D01*
Y174203D01*
X144180D01*
Y173318D01*
X143680Y173023D01*
X143218Y173115D01*
X142599Y172992D01*
X142075Y172642D01*
X142061Y172622D01*
X141524D01*
X141122Y173024D01*
Y174203D01*
X141978D01*
Y183277D01*
X138022D01*
Y174203D01*
X138878D01*
Y172559D01*
X138878Y172559D01*
X138964Y172130D01*
X139207Y171766D01*
X140266Y170707D01*
X140266Y170707D01*
X140630Y170464D01*
X141059Y170378D01*
X141059Y170378D01*
X142061D01*
X142075Y170358D01*
X142528Y170056D01*
X142696Y169517D01*
X141801Y168622D01*
X141215D01*
X141201Y168642D01*
X140677Y168992D01*
X140059Y169115D01*
X139441Y168992D01*
X138917Y168642D01*
X138567Y168118D01*
X138444Y167500D01*
X138567Y166882D01*
X138917Y166358D01*
X139441Y166008D01*
X140059Y165885D01*
X140677Y166008D01*
X141201Y166358D01*
X141215Y166378D01*
X142265D01*
X142265Y166378D01*
X142694Y166464D01*
X143058Y166707D01*
X146095Y169743D01*
X146095Y169743D01*
X146338Y170107D01*
X146423Y170536D01*
X146423Y170536D01*
Y174203D01*
X146978D01*
Y183277D01*
D02*
G37*
G36*
X114478Y180836D02*
X110522D01*
Y171762D01*
X114478D01*
Y180836D01*
D02*
G37*
G36*
X109478D02*
X105522D01*
Y171762D01*
X109478D01*
Y180836D01*
D02*
G37*
G36*
X104478D02*
X100522D01*
Y171762D01*
X104478D01*
Y180836D01*
D02*
G37*
G36*
X99478D02*
X95522D01*
Y171762D01*
X99478D01*
Y180836D01*
D02*
G37*
G36*
X94878Y175799D02*
X93000D01*
Y171362D01*
X94878D01*
Y175799D01*
D02*
G37*
G36*
X92000D02*
X90122D01*
Y171362D01*
X92000D01*
Y175799D01*
D02*
G37*
G36*
X201287Y166924D02*
Y165500D01*
X202711D01*
X202657Y165774D01*
X202218Y166431D01*
X201562Y166869D01*
X201287Y166924D01*
D02*
G37*
G36*
X200287D02*
X200013Y166869D01*
X199357Y166431D01*
X198918Y165774D01*
X198864Y165500D01*
X200287D01*
Y166924D01*
D02*
G37*
G36*
X202711Y164500D02*
X201287D01*
Y163076D01*
X201562Y163131D01*
X202218Y163569D01*
X202657Y164226D01*
X202711Y164500D01*
D02*
G37*
G36*
X200287D02*
X198864D01*
X198918Y164226D01*
X199357Y163569D01*
X200013Y163131D01*
X200287Y163076D01*
Y164500D01*
D02*
G37*
G36*
X82692Y142630D02*
X82074Y142507D01*
X81550Y142157D01*
X81200Y141633D01*
X81077Y141015D01*
X81081Y140990D01*
X74345Y134254D01*
X74102Y133890D01*
X74016Y133461D01*
X74016Y133461D01*
Y81156D01*
X73996Y81142D01*
X73646Y80618D01*
X73523Y80000D01*
X73646Y79382D01*
X73996Y78858D01*
X74520Y78508D01*
X75138Y78385D01*
X75756Y78508D01*
X76280Y78858D01*
X76630Y79382D01*
X76753Y80000D01*
X76630Y80618D01*
X76280Y81142D01*
X76259Y81156D01*
Y132996D01*
X82667Y139404D01*
X82692Y139399D01*
X83310Y139522D01*
X83834Y139873D01*
X84184Y140397D01*
X84307Y141015D01*
X84184Y141633D01*
X83834Y142157D01*
X83310Y142507D01*
X82692Y142630D01*
D02*
G37*
G36*
X38000Y121615D02*
X37382Y121492D01*
X36858Y121142D01*
X36508Y120618D01*
X36385Y120000D01*
X36508Y119382D01*
X36858Y118858D01*
X36878Y118844D01*
Y110244D01*
X34745Y108110D01*
X34721Y108115D01*
X34102Y107992D01*
X33578Y107642D01*
X33228Y107118D01*
X33105Y106500D01*
X33228Y105882D01*
X33578Y105358D01*
X34102Y105008D01*
X34721Y104885D01*
X35339Y105008D01*
X35863Y105358D01*
X36213Y105882D01*
X36336Y106500D01*
X36331Y106524D01*
X38793Y108986D01*
X38793Y108986D01*
X39036Y109350D01*
X39122Y109779D01*
Y118844D01*
X39142Y118858D01*
X39492Y119382D01*
X39615Y120000D01*
X39492Y120618D01*
X39142Y121142D01*
X38618Y121492D01*
X38000Y121615D01*
D02*
G37*
G36*
X150869Y94115D02*
X150250Y93992D01*
X149726Y93642D01*
X149376Y93118D01*
X149253Y92500D01*
X149376Y91882D01*
X149726Y91358D01*
X150250Y91008D01*
X150869Y90885D01*
X151487Y91008D01*
X152011Y91358D01*
X152025Y91378D01*
X188258D01*
X189639Y89997D01*
X189635Y89972D01*
X189758Y89354D01*
X190108Y88830D01*
X190632Y88480D01*
X191250Y88357D01*
X191868Y88480D01*
X192392Y88830D01*
X192742Y89354D01*
X192865Y89972D01*
X192742Y90591D01*
X192392Y91115D01*
X191868Y91465D01*
X191250Y91588D01*
X191226Y91583D01*
X189515Y93293D01*
X189152Y93536D01*
X188722Y93622D01*
X188722Y93622D01*
X152025D01*
X152011Y93642D01*
X151487Y93992D01*
X150869Y94115D01*
D02*
G37*
G36*
X52500Y149615D02*
X51882Y149492D01*
X51358Y149142D01*
X51008Y148618D01*
X50885Y148000D01*
X51008Y147382D01*
X51358Y146858D01*
X51378Y146844D01*
Y131078D01*
X51072Y130618D01*
X50949Y130000D01*
X51072Y129382D01*
X51422Y128858D01*
X51442Y128844D01*
Y121054D01*
X51401Y120992D01*
X51316Y120563D01*
X51401Y120134D01*
X51644Y119770D01*
X59878Y111535D01*
Y88156D01*
X59858Y88142D01*
X59508Y87618D01*
X59385Y87000D01*
X59508Y86382D01*
X59858Y85858D01*
X60382Y85508D01*
X61000Y85385D01*
X61618Y85508D01*
X62142Y85858D01*
X62492Y86382D01*
X62615Y87000D01*
X62492Y87618D01*
X62142Y88142D01*
X62122Y88156D01*
Y112000D01*
X62122Y112000D01*
X62036Y112429D01*
X61793Y112793D01*
X61793Y112793D01*
X53685Y120901D01*
Y128844D01*
X53706Y128858D01*
X54056Y129382D01*
X54179Y130000D01*
X54056Y130618D01*
X53706Y131142D01*
X53622Y131199D01*
Y146844D01*
X53642Y146858D01*
X53992Y147382D01*
X54115Y148000D01*
X53992Y148618D01*
X53642Y149142D01*
X53118Y149492D01*
X52500Y149615D01*
D02*
G37*
G36*
X27500Y164115D02*
X26882Y163992D01*
X26358Y163642D01*
X26008Y163118D01*
X25885Y162500D01*
X26008Y161882D01*
X26358Y161358D01*
X26378Y161344D01*
Y90591D01*
X25882Y90492D01*
X25358Y90142D01*
X25008Y89618D01*
X24885Y89000D01*
X25008Y88382D01*
X25358Y87858D01*
X25882Y87508D01*
X26500Y87385D01*
X26981Y87480D01*
X27082Y86992D01*
X26558Y86642D01*
X26208Y86118D01*
X26085Y85500D01*
X26208Y84882D01*
X26558Y84358D01*
X27082Y84008D01*
X27700Y83885D01*
X28318Y84008D01*
X28842Y84358D01*
X29192Y84882D01*
X29315Y85500D01*
X29310Y85524D01*
X31393Y87607D01*
X31636Y87971D01*
X31722Y88400D01*
X31722Y88400D01*
Y159744D01*
X31742Y159758D01*
X32092Y160282D01*
X32215Y160900D01*
X32092Y161518D01*
X31742Y162042D01*
X31218Y162392D01*
X30600Y162515D01*
X29982Y162392D01*
X29546Y162101D01*
X29214Y162243D01*
X29085Y162349D01*
X29115Y162500D01*
X28992Y163118D01*
X28642Y163642D01*
X28118Y163992D01*
X27500Y164115D01*
D02*
G37*
G36*
X162126Y54115D02*
X161507Y53992D01*
X160983Y53642D01*
X160970Y53622D01*
X129656D01*
X129642Y53642D01*
X129118Y53992D01*
X128500Y54115D01*
X127882Y53992D01*
X127358Y53642D01*
X127008Y53118D01*
X126885Y52500D01*
X127008Y51882D01*
X127358Y51358D01*
X127882Y51008D01*
X128500Y50885D01*
X129118Y51008D01*
X129642Y51358D01*
X129656Y51378D01*
X160970D01*
X160983Y51358D01*
X161507Y51008D01*
X162126Y50885D01*
X162744Y51008D01*
X163268Y51358D01*
X163618Y51882D01*
X163741Y52500D01*
X163618Y53118D01*
X163268Y53642D01*
X162744Y53992D01*
X162126Y54115D01*
D02*
G37*
G36*
X112000Y136115D02*
X111382Y135992D01*
X110858Y135642D01*
X110508Y135118D01*
X110385Y134500D01*
X110508Y133882D01*
X110858Y133358D01*
X110878Y133344D01*
Y53656D01*
X110858Y53642D01*
X110508Y53118D01*
X110385Y52500D01*
X110508Y51882D01*
X110858Y51358D01*
X111382Y51008D01*
X112000Y50885D01*
X112618Y51008D01*
X113142Y51358D01*
X113492Y51882D01*
X113615Y52500D01*
X113492Y53118D01*
X113142Y53642D01*
X113122Y53656D01*
Y133344D01*
X113142Y133358D01*
X113492Y133882D01*
X113615Y134500D01*
X113492Y135118D01*
X113142Y135642D01*
X112618Y135992D01*
X112000Y136115D01*
D02*
G37*
G36*
X92500Y136804D02*
X91882Y136681D01*
X91358Y136331D01*
X91008Y135807D01*
X90885Y135189D01*
X91008Y134571D01*
X91358Y134047D01*
X91378Y134033D01*
Y67000D01*
X91378Y67000D01*
X91464Y66571D01*
X91707Y66207D01*
X98878Y59035D01*
Y53656D01*
X98858Y53642D01*
X98508Y53118D01*
X98385Y52500D01*
X98508Y51882D01*
X98858Y51358D01*
X99382Y51008D01*
X100000Y50885D01*
X100618Y51008D01*
X101142Y51358D01*
X101492Y51882D01*
X101615Y52500D01*
X101492Y53118D01*
X101142Y53642D01*
X101122Y53656D01*
Y59500D01*
X101036Y59929D01*
X100793Y60293D01*
X100793Y60293D01*
X93622Y67465D01*
Y134033D01*
X93642Y134047D01*
X93992Y134571D01*
X94115Y135189D01*
X93992Y135807D01*
X93642Y136331D01*
X93118Y136681D01*
X92500Y136804D01*
D02*
G37*
G36*
X37500Y39924D02*
Y38500D01*
X38924D01*
X38869Y38774D01*
X38431Y39431D01*
X37774Y39869D01*
X37500Y39924D01*
D02*
G37*
G36*
X36500D02*
X36226Y39869D01*
X35569Y39431D01*
X35131Y38774D01*
X35076Y38500D01*
X36500D01*
Y39924D01*
D02*
G37*
G36*
X38924Y37500D02*
X37500D01*
Y36076D01*
X37774Y36131D01*
X38431Y36569D01*
X38869Y37226D01*
X38924Y37500D01*
D02*
G37*
G36*
X36500D02*
X35076D01*
X35131Y37226D01*
X35569Y36569D01*
X36226Y36131D01*
X36500Y36076D01*
Y37500D01*
D02*
G37*
G36*
X37250Y33700D02*
X34500D01*
Y30500D01*
X37250D01*
Y33700D01*
D02*
G37*
G36*
X205050Y32900D02*
X203000D01*
Y30500D01*
X205050D01*
Y32900D01*
D02*
G37*
G36*
X202000D02*
X199950D01*
Y30500D01*
X202000D01*
Y32900D01*
D02*
G37*
G36*
X57600D02*
X55550D01*
Y30500D01*
X57600D01*
Y32900D01*
D02*
G37*
G36*
X33500Y33700D02*
X30750D01*
Y30500D01*
X33500D01*
Y33700D01*
D02*
G37*
G36*
X205050Y29500D02*
X203000D01*
Y27100D01*
X205050D01*
Y29500D01*
D02*
G37*
G36*
X202000D02*
X199950D01*
Y27100D01*
X202000D01*
Y29500D01*
D02*
G37*
G36*
X80050D02*
X78000D01*
Y27100D01*
X80050D01*
Y29500D01*
D02*
G37*
G36*
X77000D02*
X74950D01*
Y27100D01*
X77000D01*
Y29500D01*
D02*
G37*
G36*
X69050Y247185D02*
X64750D01*
Y242185D01*
X65285D01*
Y240678D01*
X21409Y196802D01*
X21058Y196278D01*
X20935Y195660D01*
Y78949D01*
X21058Y78331D01*
X21409Y77807D01*
X60385Y38831D01*
Y37000D01*
Y32900D01*
X58600D01*
Y30000D01*
X58100D01*
Y29500D01*
X55550D01*
Y27115D01*
X54928D01*
X54650Y27500D01*
Y32500D01*
X50350D01*
Y31615D01*
X45350D01*
Y33300D01*
X39650D01*
Y26700D01*
X40003D01*
X40194Y26238D01*
X35098Y21142D01*
X34748Y20618D01*
X34625Y20000D01*
Y17651D01*
X31503D01*
X26295Y22858D01*
X25901Y23122D01*
X25437Y23214D01*
X25437Y23214D01*
X21700D01*
X21236Y23122D01*
X20842Y22858D01*
X20842Y22858D01*
X19142Y21158D01*
X18879Y20764D01*
X18786Y20300D01*
X18786Y20300D01*
Y19005D01*
X17038D01*
Y5994D01*
X22962D01*
Y19005D01*
X21214D01*
Y19797D01*
X22203Y20786D01*
X24934D01*
X29668Y16052D01*
X29477Y15590D01*
X28544D01*
X28442Y15742D01*
X27918Y16092D01*
X27300Y16215D01*
X26682Y16092D01*
X26158Y15742D01*
X25808Y15218D01*
X25685Y14600D01*
X25808Y13982D01*
X26158Y13458D01*
X26452Y13261D01*
X26474Y13183D01*
X26425Y12688D01*
X26058Y12442D01*
X25708Y11918D01*
X25585Y11300D01*
X25708Y10682D01*
X26058Y10158D01*
X26582Y9808D01*
X27200Y9685D01*
X27818Y9808D01*
X28342Y10158D01*
X28692Y10682D01*
X28815Y11300D01*
X29302Y11378D01*
X32583D01*
Y11031D01*
X36240D01*
X39898D01*
Y12122D01*
X39498D01*
Y17627D01*
X37855D01*
Y19331D01*
X43642Y25118D01*
X43992Y25642D01*
X44115Y26260D01*
Y26700D01*
X45350D01*
Y28385D01*
X50350D01*
Y27500D01*
X51229D01*
Y26656D01*
X51352Y26037D01*
X51702Y25513D01*
X52858Y24358D01*
X53382Y24008D01*
X54000Y23885D01*
X60500D01*
X61118Y24008D01*
X61642Y24358D01*
X63142Y25858D01*
X63285Y26071D01*
X63785Y25919D01*
Y21214D01*
X63500D01*
X63036Y21122D01*
X62642Y20858D01*
X62642Y20858D01*
X59434Y17651D01*
X53760D01*
X53643Y17627D01*
X50502D01*
Y14090D01*
X50102D01*
Y13000D01*
X53760D01*
X57417D01*
Y13254D01*
X61758D01*
X62034Y12769D01*
X61923Y12603D01*
X61800Y11984D01*
X61923Y11366D01*
X62273Y10842D01*
X62797Y10492D01*
X63416Y10369D01*
X64034Y10492D01*
X64451Y10770D01*
X65000D01*
Y9834D01*
X70000D01*
X70000Y14134D01*
X70437Y14286D01*
X74563D01*
X75000Y14134D01*
Y9834D01*
X80000D01*
Y14134D01*
X78714D01*
Y14808D01*
X78622Y15273D01*
X78358Y15666D01*
X78358Y15667D01*
X78187Y15838D01*
X78378Y16300D01*
X80750D01*
Y19500D01*
X74250D01*
Y16714D01*
X71850D01*
Y23300D01*
X67891D01*
X67734Y23331D01*
X67578Y23300D01*
X67015D01*
Y24794D01*
X67508Y24882D01*
X67858Y24358D01*
X68382Y24008D01*
X69000Y23885D01*
X69618Y24008D01*
X70035Y24286D01*
X71000D01*
X71000Y24286D01*
X71465Y24378D01*
X71858Y24642D01*
X72758Y25542D01*
X72758Y25542D01*
X73022Y25936D01*
X73114Y26400D01*
Y27500D01*
X74050D01*
Y32500D01*
X74419Y32816D01*
X74950D01*
Y30500D01*
X80050D01*
Y32816D01*
X108018D01*
X111111Y29723D01*
X111062Y29268D01*
X110614Y29090D01*
X108931Y30773D01*
X108866Y31100D01*
X108559Y31560D01*
X108100Y31866D01*
X107559Y31974D01*
X107018Y31866D01*
X106588Y31579D01*
X106446Y31516D01*
X106114D01*
X105971Y31579D01*
X105541Y31866D01*
X105000Y31974D01*
X104459Y31866D01*
X104000Y31560D01*
X103693Y31100D01*
X103585Y30559D01*
X103693Y30018D01*
X104000Y29559D01*
X104459Y29252D01*
X104786Y29187D01*
X105633Y28340D01*
X105442Y27878D01*
X105441D01*
Y24122D01*
Y20366D01*
X106728D01*
Y20766D01*
X111521D01*
X111800Y20651D01*
X113500D01*
X113779Y20766D01*
X114006D01*
Y20953D01*
X114149Y21300D01*
Y28885D01*
X120831D01*
X122858Y26858D01*
X123382Y26508D01*
X124000Y26385D01*
X143481D01*
X144066Y25800D01*
X143859Y25300D01*
X143150D01*
Y18700D01*
X144385D01*
Y15150D01*
X143500D01*
Y10850D01*
X148500D01*
Y15150D01*
X147615D01*
Y18700D01*
X148850D01*
Y25300D01*
X147615D01*
Y26150D01*
X147492Y26768D01*
X147142Y27292D01*
X145292Y29142D01*
X144768Y29492D01*
X144150Y29615D01*
X124669D01*
X122642Y31642D01*
X122118Y31992D01*
X121500Y32115D01*
X113287D01*
X110480Y34923D01*
X110671Y35385D01*
X120331D01*
X124858Y30858D01*
X125382Y30508D01*
X126000Y30385D01*
X133349D01*
X133360Y30360D01*
X133819Y30169D01*
X138150D01*
X138543Y30332D01*
X138937Y30169D01*
X140512D01*
X140971Y30360D01*
X141161Y30819D01*
Y31967D01*
X148371D01*
X152142Y28197D01*
X152142Y28197D01*
X152535Y27934D01*
X153000Y27841D01*
X153000Y27841D01*
X156136D01*
Y26562D01*
X165801D01*
Y31699D01*
X156136D01*
Y30269D01*
X153503D01*
X149732Y34040D01*
X149338Y34303D01*
X148874Y34395D01*
X148874Y34395D01*
X141148D01*
X140971Y34821D01*
X140512Y35012D01*
X136181D01*
X135787Y34849D01*
X135394Y35012D01*
X133819D01*
X133360Y34821D01*
X133169Y34362D01*
Y33615D01*
X126669D01*
X122142Y38142D01*
X121618Y38492D01*
X121000Y38615D01*
X63615D01*
Y39500D01*
X63492Y40118D01*
X63142Y40642D01*
X24166Y79618D01*
Y194991D01*
X68042Y238867D01*
X68392Y239391D01*
X68515Y240009D01*
Y242185D01*
X69050D01*
Y247185D01*
D02*
G37*
G36*
X37250Y29500D02*
X34500D01*
Y26300D01*
X37250D01*
Y29500D01*
D02*
G37*
G36*
X33500D02*
X30750D01*
Y26300D01*
X33500D01*
Y29500D01*
D02*
G37*
G36*
X101882Y27878D02*
X100594D01*
Y24622D01*
X101882D01*
Y27878D01*
D02*
G37*
G36*
X205050Y25400D02*
X203000D01*
Y23000D01*
X205050D01*
Y25400D01*
D02*
G37*
G36*
X202000D02*
X199950D01*
Y23000D01*
X202000D01*
Y25400D01*
D02*
G37*
G36*
X83766Y22924D02*
Y21500D01*
X85189D01*
X85135Y21774D01*
X84696Y22431D01*
X84040Y22869D01*
X83766Y22924D01*
D02*
G37*
G36*
X82766D02*
X82492Y22869D01*
X81835Y22431D01*
X81397Y21774D01*
X81342Y21500D01*
X82766D01*
Y22924D01*
D02*
G37*
G36*
X80750Y23700D02*
X78000D01*
Y20500D01*
X80750D01*
Y23700D01*
D02*
G37*
G36*
X77000D02*
X74250D01*
Y20500D01*
X77000D01*
Y23700D01*
D02*
G37*
G36*
X104441Y27878D02*
X102882D01*
Y24122D01*
Y20366D01*
X104441D01*
Y24122D01*
Y27878D01*
D02*
G37*
G36*
X101882Y23622D02*
X100594D01*
Y20366D01*
X101882D01*
Y23622D01*
D02*
G37*
G36*
X205050Y22000D02*
X203000D01*
Y19600D01*
X205050D01*
Y22000D01*
D02*
G37*
G36*
X202000D02*
X199950D01*
Y19600D01*
X202000D01*
Y22000D01*
D02*
G37*
G36*
X85189Y20500D02*
X83766D01*
Y19076D01*
X84040Y19131D01*
X84696Y19569D01*
X85135Y20226D01*
X85189Y20500D01*
D02*
G37*
G36*
X82766D02*
X81342D01*
X81397Y20226D01*
X81835Y19569D01*
X82492Y19131D01*
X82766Y19076D01*
Y20500D01*
D02*
G37*
G36*
X153500Y19924D02*
Y18500D01*
X154924D01*
X154869Y18774D01*
X154431Y19431D01*
X153774Y19869D01*
X153500Y19924D01*
D02*
G37*
G36*
X152500D02*
X152226Y19869D01*
X151569Y19431D01*
X151131Y18774D01*
X151076Y18500D01*
X152500D01*
Y19924D01*
D02*
G37*
G36*
X154924Y17500D02*
X153500D01*
Y16076D01*
X153774Y16131D01*
X154431Y16569D01*
X154869Y17226D01*
X154924Y17500D01*
D02*
G37*
G36*
X152500D02*
X151076D01*
X151131Y17226D01*
X151569Y16569D01*
X152226Y16131D01*
X152500Y16076D01*
Y17500D01*
D02*
G37*
G36*
X11551Y19406D02*
X8689D01*
Y13000D01*
X11551D01*
Y19406D01*
D02*
G37*
G36*
X7689D02*
X4827D01*
Y13000D01*
X7689D01*
Y19406D01*
D02*
G37*
G36*
X58500Y12115D02*
X57917Y11999D01*
X57905Y12000D01*
X53760D01*
X50102D01*
Y10909D01*
X50502D01*
Y7373D01*
X56350D01*
X56617Y6872D01*
X56508Y6709D01*
X56385Y6091D01*
X56508Y5472D01*
X56858Y4948D01*
X57382Y4598D01*
X58000Y4475D01*
X58618Y4598D01*
X59142Y4948D01*
X59492Y5472D01*
X59615Y6091D01*
X59492Y6709D01*
X59142Y7233D01*
X59122Y7247D01*
Y7673D01*
X59122Y7673D01*
X59036Y8102D01*
X58793Y8466D01*
X58985Y8981D01*
X59118Y9008D01*
X59642Y9358D01*
X59992Y9882D01*
X60115Y10500D01*
X59992Y11118D01*
X59642Y11642D01*
X59118Y11992D01*
X58500Y12115D01*
D02*
G37*
G36*
X166201Y13989D02*
X161468D01*
Y11521D01*
X166201D01*
Y13989D01*
D02*
G37*
G36*
X160468D02*
X155736D01*
Y11521D01*
X160468D01*
Y13989D01*
D02*
G37*
G36*
X140350Y25300D02*
X134650D01*
Y18700D01*
X136286D01*
Y15150D01*
X134500D01*
Y10850D01*
X139500D01*
Y15150D01*
X138714D01*
Y18700D01*
X140350D01*
Y25300D01*
D02*
G37*
G36*
X127785Y18029D02*
X118711D01*
Y8955D01*
X127785D01*
Y18029D01*
D02*
G37*
G36*
X96289D02*
X87215D01*
Y8955D01*
X96289D01*
Y18029D01*
D02*
G37*
G36*
X166201Y10521D02*
X161468D01*
Y8052D01*
X166201D01*
Y10521D01*
D02*
G37*
G36*
X160468D02*
X155736D01*
Y8052D01*
X160468D01*
Y10521D01*
D02*
G37*
G36*
X48750Y17037D02*
X41250D01*
Y7963D01*
X48750D01*
Y17037D01*
D02*
G37*
G36*
X148900Y9950D02*
X146500D01*
Y7900D01*
X148900D01*
Y9950D01*
D02*
G37*
G36*
X139900D02*
X137500D01*
Y7900D01*
X139900D01*
Y9950D01*
D02*
G37*
G36*
X145500D02*
X143100D01*
Y7900D01*
X145500D01*
Y9950D01*
D02*
G37*
G36*
X136500D02*
X134100D01*
Y7900D01*
X136500D01*
Y9950D01*
D02*
G37*
G36*
X39898Y10031D02*
X36240D01*
X32583D01*
Y8941D01*
X32983D01*
Y7373D01*
X39498D01*
Y8941D01*
X39898D01*
Y10031D01*
D02*
G37*
G36*
X70400Y8934D02*
X68000D01*
Y6884D01*
X70400D01*
Y8934D01*
D02*
G37*
G36*
X80400D02*
X78000D01*
Y6884D01*
X80400D01*
Y8934D01*
D02*
G37*
G36*
X77000D02*
X74600D01*
Y6884D01*
X77000D01*
Y8934D01*
D02*
G37*
G36*
X67000D02*
X64600D01*
Y6884D01*
X67000D01*
Y8934D01*
D02*
G37*
G36*
X11551Y12000D02*
X8689D01*
Y5595D01*
X11551D01*
Y12000D01*
D02*
G37*
G36*
X7689D02*
X4827D01*
Y5595D01*
X7689D01*
Y12000D01*
D02*
G37*
G36*
X148900Y6900D02*
X146500D01*
Y4850D01*
X148900D01*
Y6900D01*
D02*
G37*
G36*
X145500D02*
X143100D01*
Y4850D01*
X145500D01*
Y6900D01*
D02*
G37*
G36*
X139900D02*
X137500D01*
Y4850D01*
X139900D01*
Y6900D01*
D02*
G37*
G36*
X136500D02*
X134100D01*
Y4850D01*
X136500D01*
Y6900D01*
D02*
G37*
G36*
X199050Y25000D02*
X194750D01*
Y20000D01*
X195686D01*
Y19100D01*
X195686Y19100D01*
X195779Y18635D01*
X196042Y18242D01*
X202541Y11742D01*
X202350Y11280D01*
X202150D01*
Y4680D01*
X207850D01*
Y11280D01*
X205454D01*
Y11760D01*
X205361Y12225D01*
X205098Y12618D01*
X205098Y12619D01*
X198217Y19500D01*
X198362Y20000D01*
X199050D01*
Y25000D01*
D02*
G37*
%LPD*%
G36*
X140512Y30819D02*
X138937D01*
Y31213D01*
X136181Y33968D01*
Y34362D01*
X140512D01*
Y30819D01*
D02*
G37*
G36*
X135394Y33968D02*
X138150Y31213D01*
Y30819D01*
X133819D01*
Y34362D01*
X135394D01*
Y33968D01*
D02*
G37*
G36*
X113500Y31000D02*
Y21300D01*
X111800D01*
Y31600D01*
X112900D01*
X113500Y31000D01*
D02*
G37*
D11*
X119400Y338000D02*
X123506Y342106D01*
X111000Y338000D02*
X119400D01*
X109000Y336000D02*
X111000Y338000D01*
X210000Y276000D02*
Y290039D01*
Y269979D02*
Y276000D01*
X206000D02*
X210000D01*
X168510Y277908D02*
Y283000D01*
Y277908D02*
X168919Y277500D01*
X172500D01*
X147771Y290063D02*
X148888Y291179D01*
X156500Y292813D02*
X163871D01*
X148888Y291179D02*
X154867D01*
X156500Y292813D01*
X163871D02*
X163874Y292815D01*
X164558D01*
X164744Y293000D01*
X152758Y289154D02*
X160315D01*
X149982Y286378D02*
X152758Y289154D01*
X150067Y284200D02*
X153052Y287185D01*
X160315D01*
X148821Y280692D02*
X153346Y285217D01*
X160315D01*
X148284Y277892D02*
X153640Y283248D01*
X160315D01*
X148692Y275692D02*
X154280Y281280D01*
X160315D01*
X134181Y284200D02*
X150067D01*
X136417Y280692D02*
X148821D01*
X134111Y277892D02*
X148284D01*
X138681Y275692D02*
X148692D01*
X128780Y288992D02*
X131393Y286378D01*
X149982D01*
X136657Y290063D02*
X147771D01*
X79000Y202500D02*
Y202734D01*
X83766Y207500D01*
X98552D01*
X100000Y208948D01*
Y221311D01*
X110315Y231626D01*
Y237185D01*
X53769Y8554D02*
X57120D01*
X58000Y7673D01*
Y6091D02*
Y7673D01*
X53760Y8563D02*
X53769Y8554D01*
X26500Y89000D02*
X27500Y90000D01*
Y162500D01*
X30600Y88400D02*
Y160900D01*
X27700Y85500D02*
X30600Y88400D01*
X72829Y267669D02*
X76000D01*
X81996D02*
X90039Y259626D01*
X76000Y267669D02*
X81996D01*
X79611Y259809D02*
X81809D01*
X82000Y260000D01*
X78320Y261100D02*
X79611Y259809D01*
X27200Y11300D02*
X28400Y12500D01*
X36240D01*
X27432Y14468D02*
X36240D01*
X27300Y14600D02*
X27432Y14468D01*
X100000Y52500D02*
Y59500D01*
X92500Y67000D02*
X100000Y59500D01*
X92500Y67000D02*
Y135189D01*
X114383Y272792D02*
Y272963D01*
X114252Y273094D02*
X114383Y272963D01*
X114252Y273094D02*
Y297815D01*
X116315Y268685D02*
X116500Y268500D01*
X115472Y268685D02*
X116315D01*
X112283Y271874D02*
X115472Y268685D01*
X112283Y271874D02*
Y297815D01*
X106378Y263248D02*
X109272Y260354D01*
Y251055D02*
Y260354D01*
X106854Y248637D02*
X109272Y251055D01*
X106378Y263248D02*
Y297815D01*
X106000Y248637D02*
X106854D01*
X112000Y52500D02*
Y134500D01*
X104883Y257657D02*
X106000Y258775D01*
X99685Y257657D02*
X104883D01*
X99685Y255689D02*
X105862D01*
X99685Y251752D02*
X105754D01*
X117000Y264000D02*
Y264259D01*
X110315Y270944D02*
X117000Y264259D01*
X110315Y270944D02*
Y297815D01*
X128500Y52500D02*
X162126D01*
X114311Y250287D02*
Y262721D01*
X110872Y266160D02*
X114311Y262721D01*
X118500Y252500D02*
Y260025D01*
X121102Y255300D02*
X149643D01*
X110872Y266160D02*
Y266191D01*
X108346Y268716D02*
X110872Y266191D01*
X108346Y268716D02*
Y297815D01*
X75138Y133461D02*
X82692Y141015D01*
X75138Y80000D02*
Y133461D01*
X52500Y130064D02*
Y148000D01*
Y130064D02*
X52564Y130000D01*
X143218Y364000D02*
Y367521D01*
X148885Y373188D01*
X140206Y385103D02*
X141309Y384000D01*
X139924Y381831D02*
X143064D01*
X144000Y382766D01*
X140206Y385103D02*
Y389628D01*
X139307Y390528D02*
X140206Y389628D01*
X136788Y390528D02*
X139307D01*
X135906Y389645D02*
X136788Y390528D01*
X135906Y382509D02*
Y389645D01*
X134834Y381437D02*
X135906Y382509D01*
X131260Y381437D02*
X134834D01*
X135128Y379468D02*
X138122Y382462D01*
Y388100D01*
X194900Y364600D02*
X196500Y363000D01*
Y359000D02*
Y363000D01*
X103031Y381500D02*
X105063Y379468D01*
X113740D01*
X166516Y365000D02*
X172406D01*
X166500Y364984D02*
X166516Y365000D01*
X126220Y346614D02*
Y351901D01*
X134500Y337500D02*
X141500D01*
X92000Y352000D02*
X92802Y352802D01*
X98772D01*
X131180Y334457D02*
X131765Y333872D01*
X131180Y334457D02*
Y334500D01*
X131765Y333872D02*
X136660D01*
X144862Y325669D01*
X128496Y335697D02*
X128500Y335693D01*
X144862Y318808D02*
Y325669D01*
Y318808D02*
X146643Y317027D01*
X150887D01*
X152322Y315592D01*
Y312678D02*
Y315592D01*
Y312678D02*
X152500Y312500D01*
X142500Y319803D02*
Y323574D01*
X170000Y337685D02*
Y346280D01*
Y337685D02*
X170126Y337559D01*
Y336874D02*
Y337559D01*
X120157Y297815D02*
Y302992D01*
X136319Y280594D02*
X136417Y280692D01*
X123849Y263563D02*
X126290Y261122D01*
X122038Y263563D02*
X123849D01*
X126290Y261122D02*
X146622D01*
X148100Y262600D01*
X148137D01*
X124943Y259522D02*
X147928D01*
X123465Y261000D02*
X124943Y259522D01*
X118248Y274552D02*
X126984Y265816D01*
X148170D01*
X149100Y263563D02*
X160315D01*
X148137Y262600D02*
X149100Y263563D01*
X150000Y261594D02*
X160315D01*
X147928Y259522D02*
X150000Y261594D01*
X151000Y259626D02*
X160315D01*
X149296Y257922D02*
X151000Y259626D01*
X123187Y257922D02*
X149296D01*
X152000Y257657D02*
X160315D01*
X149643Y255300D02*
X152000Y257657D01*
X131676Y248637D02*
X135684Y252644D01*
X150966D01*
X153622Y255300D01*
X139910Y250721D02*
X148369D01*
X138500Y249311D02*
X139910Y250721D01*
X148369D02*
X153622Y245468D01*
X205000Y314123D02*
Y318720D01*
X204258Y313381D02*
X205000Y314123D01*
X203677Y313381D02*
X204258D01*
X202954Y312659D02*
X203677Y313381D01*
X202270Y312659D02*
X202954D01*
X202084Y312474D02*
X202270Y312659D01*
X205500Y310000D02*
X209000D01*
X204000Y308500D02*
X205500Y310000D01*
X204000Y305299D02*
Y308500D01*
X200000Y313291D02*
Y318720D01*
X195000Y308291D02*
X200000Y313291D01*
X203701Y305000D02*
X204000Y305299D01*
X195000Y304000D02*
Y308291D01*
X185000Y312520D02*
Y318720D01*
Y312520D02*
X185150Y312370D01*
Y311685D02*
Y312370D01*
Y311685D02*
X185336Y311500D01*
X118248Y274552D02*
Y287448D01*
X124094Y293294D01*
Y297815D01*
X195050Y312800D02*
Y318670D01*
X195000Y318720D02*
X195050Y318670D01*
X152000Y267000D02*
Y267262D01*
X151516Y267746D02*
X152000Y267262D01*
X151516Y267746D02*
Y267798D01*
X151414Y267900D02*
X151516Y267798D01*
X127188Y267900D02*
X151414D01*
X120157Y274930D02*
X127188Y267900D01*
X120157Y274930D02*
Y286413D01*
X126063Y292319D01*
Y297815D01*
X154445Y269500D02*
X154457Y269488D01*
X127850Y269500D02*
X154445D01*
X122010Y275340D02*
X127850Y269500D01*
X122010Y275340D02*
Y285521D01*
X128032Y291542D01*
Y297815D01*
X130000Y292603D02*
X134141Y288463D01*
X130000Y292603D02*
Y297815D01*
X134141Y288463D02*
X149119D01*
X133937Y292783D02*
X136657Y290063D01*
X146850Y292075D02*
Y292650D01*
X155303Y279311D02*
X160315D01*
X149192Y273200D02*
X155303Y279311D01*
X156008Y277343D02*
X160315D01*
X150102Y271437D02*
X156008Y277343D01*
X132285Y273200D02*
X149192D01*
X130406Y271437D02*
X150102D01*
X153531Y301138D02*
X153629Y301235D01*
X153531Y297905D02*
Y301138D01*
X156053Y305590D02*
X160187Y301457D01*
X151713Y305590D02*
X156053D01*
X158800Y306500D02*
X162500D01*
X157131Y308169D02*
X158800Y306500D01*
X153681Y308169D02*
X157131D01*
X149685Y303563D02*
X151713Y305590D01*
X160187Y301457D02*
X167063D01*
X133937Y292783D02*
Y297815D01*
X143780Y292836D02*
Y297815D01*
Y292836D02*
X144665Y291950D01*
X145748Y293752D02*
Y297815D01*
Y293752D02*
X146850Y292650D01*
X131969Y304161D02*
X133400Y305592D01*
X131969Y297815D02*
Y304161D01*
X148885Y373188D02*
Y375885D01*
X121102Y323386D02*
Y328220D01*
X122744Y329862D01*
X133462D01*
X133500Y329900D01*
X137315Y303315D02*
X137500Y303500D01*
X137315Y302607D02*
Y303315D01*
X135996Y301288D02*
X137315Y302607D01*
X141537Y305592D02*
X142500Y306555D01*
X143197Y307544D02*
Y307685D01*
X142500Y306555D02*
Y307544D01*
X143197Y307685D02*
X143681Y308169D01*
X133400Y305592D02*
X141537D01*
X135996Y297905D02*
Y301288D01*
X135906Y297815D02*
X135996Y297905D01*
X176500Y373500D02*
Y376075D01*
X174000Y378575D02*
X176500Y376075D01*
X104000Y336000D02*
X109000D01*
X123506Y342106D02*
Y346459D01*
X123661Y346614D01*
X159577Y389434D02*
X188796D01*
X189331Y389969D01*
X118500Y260025D02*
X122038Y263563D01*
X92500Y222043D02*
X102957Y232500D01*
X91248Y262047D02*
X92764Y263563D01*
X99685D01*
X82000Y257339D02*
X83792Y255546D01*
X94120D01*
X94142Y255569D01*
X96000Y253720D02*
X99685D01*
X95639Y253360D02*
X96000Y253720D01*
X92719Y253360D02*
X95639D01*
X94768Y261594D02*
X99685D01*
X90039Y259626D02*
X92800D01*
X94768Y261594D01*
X94343Y257769D02*
X96200Y259626D01*
X89240Y257769D02*
X94343D01*
X96200Y259626D02*
X99685D01*
X83447Y263563D02*
X89240Y257769D01*
X122500Y230218D02*
X124693Y232411D01*
X127411D01*
X128032Y233032D01*
Y237185D01*
X130000Y233064D02*
Y237185D01*
Y232327D02*
Y233064D01*
X126968Y230811D02*
X128484D01*
X130000Y232327D01*
X125822Y229664D02*
X126968Y230811D01*
X122500Y224837D02*
Y230218D01*
Y224837D02*
X125937Y221400D01*
X131580D01*
X132238Y220743D01*
X132500D01*
X125700Y223900D02*
X126600Y223000D01*
X135580D02*
X139331Y219249D01*
X126600Y223000D02*
X135580D01*
X73169Y263563D02*
X83447D01*
X190865Y261080D02*
X196300D01*
X196735Y260645D01*
X173720Y201614D02*
Y206433D01*
X155000Y223422D02*
X159620Y218802D01*
X180000D01*
X155000Y223422D02*
Y224994D01*
X154850Y225144D02*
X155000Y224994D01*
X154850Y225144D02*
Y229556D01*
X153906Y230500D02*
X154850Y229556D01*
X153069Y230500D02*
X153906D01*
X149776Y233793D02*
X153069Y230500D01*
X149776Y233793D02*
Y237094D01*
X149685Y237185D02*
X149776Y237094D01*
X154862Y209488D02*
X167483D01*
X137874Y244789D02*
X141722Y248637D01*
X137874Y237185D02*
Y244789D01*
X141722Y248637D02*
X144723D01*
X151654Y237185D02*
Y241592D01*
X149685Y243561D02*
X151654Y241592D01*
X149685Y243561D02*
Y243600D01*
X139843Y237185D02*
Y243878D01*
X142018Y246054D01*
X146797D01*
X146850Y246000D01*
X199400Y242785D02*
Y251437D01*
Y242785D02*
X200000Y242185D01*
X117715Y248637D02*
X131676D01*
X114252Y245174D02*
X117715Y248637D01*
X114252Y237185D02*
Y245174D01*
X77500Y213701D02*
Y220328D01*
X74714Y223114D02*
X77500Y220328D01*
X72029Y223114D02*
X74714D01*
X71900Y223243D02*
X72029Y223114D01*
X112193Y231695D02*
X112838Y231050D01*
X112193Y231695D02*
Y237094D01*
X112283Y237185D01*
X112838Y231050D02*
X113666D01*
X114252Y231636D01*
Y237185D01*
X153622D02*
Y245468D01*
X154298Y233523D02*
X155881D01*
X153713Y234109D02*
X154298Y233523D01*
X153713Y234109D02*
Y237094D01*
X153622Y237185D02*
X153713Y237094D01*
X155881Y233523D02*
X156831Y234473D01*
Y237137D01*
X167483Y209488D02*
X171161Y205809D01*
Y201614D02*
Y205809D01*
X140000Y200000D02*
Y205945D01*
X136457Y209488D02*
X140000Y205945D01*
X143850Y243784D02*
X144035Y243969D01*
X121000Y205809D02*
X121900Y204909D01*
X119877Y205809D02*
X121000D01*
X119195Y206492D02*
X119877Y205809D01*
X118118Y206492D02*
X119195D01*
X117933Y206677D02*
X118118Y206492D01*
X121900Y201614D02*
Y204909D01*
Y189000D02*
Y194723D01*
X143780Y237185D02*
Y243029D01*
X143850Y243099D01*
Y243784D01*
X145748Y229467D02*
Y237185D01*
X151783Y227383D02*
X151900Y227500D01*
X147764Y232214D02*
Y237137D01*
Y232214D02*
X148374Y231605D01*
Y231343D02*
Y231605D01*
X147717Y237185D02*
X147764Y237137D01*
X142239Y187500D02*
X142500D01*
X141430Y186691D02*
X142239Y187500D01*
X138091Y186691D02*
X141430D01*
X137865Y186916D02*
X138091Y186691D01*
X135854Y186916D02*
X137865D01*
X132938Y184000D02*
X135854Y186916D01*
X120783Y184000D02*
X132938D01*
X117933Y186850D02*
X120783Y184000D01*
X91000Y186850D02*
X117933D01*
X87644Y183495D02*
X91000Y186850D01*
X87500Y183495D02*
X87644D01*
X87500Y176299D02*
Y183495D01*
X82500Y176299D02*
Y182429D01*
X89071Y189000D01*
X121900D01*
X91381Y201614D02*
X121900D01*
X77500Y187733D02*
X91381Y201614D01*
X77500Y176299D02*
Y187733D01*
X92500Y213701D02*
Y222043D01*
X102106Y235109D02*
Y235169D01*
X87500Y220502D02*
X102106Y235109D01*
X87500Y213701D02*
Y220502D01*
X157478Y177522D02*
X157500Y177500D01*
Y168629D02*
Y177500D01*
X157290Y168419D02*
X157500Y168629D01*
X157290Y167745D02*
Y168419D01*
X157105Y167559D02*
X157290Y167745D01*
X157478Y178375D02*
X162602Y183500D01*
X157478Y177522D02*
Y178375D01*
X162602Y183500D02*
X169630D01*
X178839Y192709D01*
Y201614D01*
X162800Y229664D02*
X163136Y230000D01*
X180500D01*
X182500Y232000D01*
X188722Y92500D02*
X191250Y89972D01*
X150869Y92500D02*
X188722D01*
X181398Y194370D02*
Y201614D01*
X155000Y171000D02*
Y178740D01*
X141811Y232260D02*
Y237185D01*
X135906Y230100D02*
X138006D01*
X153106Y215000D02*
X164508D01*
X138006Y230100D02*
X153106Y215000D01*
X140059Y167500D02*
X142265D01*
X145302Y170536D01*
Y178438D01*
X145000Y178740D02*
X145302Y178438D01*
X140000Y172559D02*
X141059Y171500D01*
X140000Y172559D02*
Y178740D01*
X141059Y171500D02*
X143218D01*
X174466Y221509D02*
X175000Y222043D01*
X169936Y221509D02*
X174466D01*
X175904Y256116D02*
X176644Y256855D01*
X176906D01*
X171803Y254516D02*
X179254D01*
X179738Y255000D01*
X180000D01*
X160315Y247815D02*
X168246D01*
X168938Y248507D01*
X169200D01*
X179491Y241516D02*
X179754D01*
X179122Y241885D02*
X179491Y241516D01*
X169200Y241885D02*
X179122D01*
X168112Y239612D02*
X173725D01*
X167063Y238563D02*
X168112Y239612D01*
X173725D02*
X175000Y238337D01*
Y234843D02*
Y238337D01*
X160315Y249783D02*
X167071D01*
X171803Y254516D01*
X166459Y251752D02*
X170823Y256116D01*
X175904D01*
X160315Y251752D02*
X166459D01*
X170462Y258200D02*
X173569D01*
X160315Y253720D02*
X165982D01*
X170462Y258200D01*
X82000Y257339D02*
Y260000D01*
X141500Y337500D02*
X144000Y335000D01*
X149409D01*
X98772Y327717D02*
X102283D01*
X102500Y327500D01*
X71900Y292875D02*
Y293390D01*
X66698Y298592D02*
X71900Y293390D01*
X62569Y298592D02*
X66698D01*
X62500Y298661D02*
X62569Y298592D01*
X66661Y294331D02*
X71900Y289092D01*
X62500Y294331D02*
X66661D01*
X62500Y285669D02*
X71836D01*
X62500Y277008D02*
X70916D01*
X68385Y268346D02*
X73169Y263563D01*
X62500Y268346D02*
X68385D01*
X56117Y292275D02*
X58392Y290000D01*
X62500D01*
X56117Y292275D02*
Y305590D01*
X58320Y307792D01*
X68507D01*
X71200Y305099D01*
Y297442D02*
Y305099D01*
Y297442D02*
X73050Y295592D01*
X73930D01*
X74030Y295492D01*
X74516D01*
X75000Y295008D01*
X90154Y279164D02*
X93800Y282810D01*
X90154Y276154D02*
Y279164D01*
X90000Y276000D02*
X90154Y276154D01*
X93800Y287592D02*
X95362Y289154D01*
X99685D01*
X93800Y282810D02*
Y287592D01*
X139331Y216800D02*
Y219249D01*
X137531Y215000D02*
X139331Y216800D01*
X125700Y223900D02*
Y227500D01*
X127500Y215000D02*
X137531D01*
X175000Y225000D02*
X184843D01*
X149685Y297815D02*
Y303563D01*
X122500Y316356D02*
X123661Y317518D01*
Y323386D01*
X124094Y277748D02*
X130406Y271437D01*
X126220Y316280D02*
Y323386D01*
X128693Y276792D02*
X132285Y273200D01*
X139214Y319624D02*
X140020Y318819D01*
X139214Y319624D02*
Y323187D01*
X139016Y323386D02*
X139214Y323187D01*
X140020Y318819D02*
X141516D01*
X142500Y319803D01*
X131339Y316280D02*
Y323386D01*
X130611Y281392D02*
X134111Y277892D01*
X139402Y349559D02*
X139843Y350000D01*
X139402Y347000D02*
Y349559D01*
X139016Y346614D02*
X139402Y347000D01*
X139843Y350000D02*
X141718D01*
X133937Y318270D02*
Y323346D01*
X133898Y323386D02*
X133937Y323346D01*
X128780Y318300D02*
Y323386D01*
X185000Y307500D02*
X190000Y312500D01*
Y318720D01*
X185000Y304000D02*
Y307500D01*
X175000Y308144D02*
X180000Y313144D01*
X175000Y304000D02*
Y308144D01*
X180000Y313144D02*
Y318720D01*
X168748Y325000D02*
X170000Y323748D01*
Y318720D02*
Y323748D01*
X165152Y325000D02*
X168748D01*
X162500Y322348D02*
X165152Y325000D01*
X162500Y315000D02*
Y322348D01*
X170000Y346280D02*
Y353500D01*
X174000Y378575D02*
Y385000D01*
X189331Y389969D02*
X192300Y387000D01*
X196500D01*
X131260Y379468D02*
X135128D01*
X144000Y382766D02*
Y388000D01*
X135593Y377500D02*
X139924Y381831D01*
X131260Y377500D02*
X135593D01*
X131260Y375531D02*
X136319D01*
X137011Y376223D02*
X137273D01*
X136319Y375531D02*
X137011Y376223D01*
X139866Y375015D02*
Y379154D01*
X138414Y373563D02*
X139866Y375015D01*
X131260Y373563D02*
X138414D01*
X139866Y379154D02*
X140712Y380000D01*
X117958Y351719D02*
X118543Y351133D01*
X114554Y351719D02*
X117958D01*
X118543Y346614D02*
Y351133D01*
X107500Y344500D02*
Y344665D01*
X114554Y351719D01*
X167063Y235000D02*
Y238563D01*
X175000Y222043D02*
Y225000D01*
X131969Y231342D02*
X133211Y230100D01*
X135906D01*
X131969Y231342D02*
Y237185D01*
X125822Y227622D02*
Y229664D01*
X125700Y227500D02*
X125822Y227622D01*
X180585Y234843D02*
X182043Y236300D01*
X175000Y234843D02*
X180585D01*
X182043Y236300D02*
X184700D01*
X95563Y233000D02*
X104748Y242185D01*
X78835Y233000D02*
X95563D01*
X72738Y239893D02*
X73000Y240155D01*
X72500Y240655D02*
X73000Y240155D01*
X72500Y240655D02*
Y244685D01*
X104748Y242185D02*
X107515D01*
X108346Y241354D01*
Y237185D02*
Y241354D01*
X206000Y276000D02*
X206220Y276220D01*
X199400Y251437D02*
Y255000D01*
X196735Y257665D02*
X199400Y255000D01*
X196735Y257665D02*
Y260645D01*
X183957Y201614D02*
X184000Y201658D01*
X136457Y318819D02*
Y323386D01*
Y318819D02*
X138122Y317153D01*
X140347D01*
X142500Y315000D01*
Y312500D02*
Y315000D01*
X172361Y137500D02*
X184000D01*
X168602Y141259D02*
X172361Y137500D01*
X168602Y141259D02*
Y178386D01*
X184000Y137500D02*
X184153Y137347D01*
X171161Y142618D02*
X173780Y140000D01*
X181398D01*
X177141Y144080D02*
X179243D01*
X173720Y147500D02*
Y178386D01*
Y147500D02*
X177141Y144080D01*
X176280Y149370D02*
Y178386D01*
Y149370D02*
X178150Y147500D01*
X178874Y152598D02*
Y178350D01*
X178839Y178386D02*
X178874Y178350D01*
X181496Y160000D02*
Y178287D01*
X184000Y167500D02*
Y178342D01*
X171161Y142618D02*
Y178386D01*
X181398D02*
X181496Y178287D01*
X183957Y178386D02*
X184000Y178342D01*
X52564Y120689D02*
Y130000D01*
X52437Y120563D02*
X52564Y120689D01*
X22484Y349016D02*
Y351516D01*
X29000Y342500D02*
X31500D01*
X132000Y368966D02*
X133400Y367566D01*
Y364032D02*
Y367566D01*
X143000Y371070D02*
X144000Y372070D01*
X143000Y371000D02*
Y371070D01*
X144000Y372070D02*
Y376189D01*
X115278Y318270D02*
X115984Y318976D01*
Y323386D01*
X114450Y318270D02*
X115278D01*
X112720Y320000D02*
X114450Y318270D01*
X108012Y320000D02*
X112720D01*
X106831Y321181D02*
X108012Y320000D01*
X31500Y342500D02*
X34721D01*
X22484Y349016D02*
X29000Y342500D01*
X32000Y334279D02*
X34721Y337000D01*
Y342500D01*
X32000Y332000D02*
Y334279D01*
X22000Y353000D02*
X22484Y352516D01*
Y351516D02*
Y352516D01*
X13000Y366000D02*
Y371650D01*
X10000Y374650D02*
X13000Y371650D01*
X10000Y374650D02*
Y380000D01*
X56117Y341883D02*
X61760Y336240D01*
X53054Y341883D02*
X56117D01*
X52437Y342500D02*
X53054Y341883D01*
X61945Y335370D02*
X62000Y335315D01*
X61945Y335370D02*
Y336055D01*
X61760Y336240D02*
X61945Y336055D01*
X62000Y332000D02*
Y335315D01*
X24980Y339980D02*
X25000Y340000D01*
X20000Y339980D02*
X24980D01*
X9370Y336240D02*
X13000D01*
X15000Y338240D01*
Y343500D01*
X17669Y346169D01*
Y351819D01*
X45000Y335000D02*
X51941D01*
X42000D02*
X45000D01*
Y332205D02*
Y335000D01*
Y332205D02*
X45205Y332000D01*
X51941Y335000D02*
X54941Y332000D01*
X57700D01*
X39000D02*
X42000Y335000D01*
X36300Y332000D02*
X39000D01*
X131339Y346614D02*
Y351157D01*
X134181Y354000D01*
X138414D01*
X139000Y354586D01*
Y357000D01*
X148681Y380000D02*
X150796Y377886D01*
X152114D01*
X152500Y377500D01*
X140712Y380000D02*
X148681D01*
X93189Y383000D02*
X94752Y381437D01*
X93189Y383000D02*
Y387500D01*
X94752Y381437D02*
X99685D01*
X103622Y377500D01*
X113740D01*
X110000Y372070D02*
X111000Y371070D01*
Y371000D02*
Y371070D01*
X98772Y375228D02*
X100664Y373336D01*
X92000Y375228D02*
X98772D01*
X110586Y373563D02*
X113740D01*
X110000Y372977D02*
X110586Y373563D01*
X110000Y372070D02*
Y372977D01*
X109531Y375531D02*
X113740D01*
X106968Y372968D02*
X109531Y375531D01*
X106968Y364811D02*
Y372968D01*
X110059Y24122D02*
Y28059D01*
X107559Y30559D02*
X110059Y28059D01*
X105000Y30559D02*
X107500Y28059D01*
Y24122D02*
Y28059D01*
X72500Y244685D02*
Y252500D01*
X34721Y106500D02*
X38000Y109779D01*
Y120000D01*
X52437Y120563D02*
X61000Y112000D01*
Y87000D02*
Y112000D01*
D17*
X184076Y20076D02*
Y27576D01*
X184000Y20000D02*
X184076Y20076D01*
X160968Y20000D02*
X184000D01*
X172091Y244060D02*
X173032Y245000D01*
X168299Y244060D02*
X172091D01*
X168117Y243878D02*
X168299Y244060D01*
X160315Y243878D02*
X168117D01*
X186748Y245846D02*
X187500D01*
X185894Y244992D02*
X186748Y245846D01*
X171161Y291206D02*
Y292656D01*
X165818Y298000D02*
X171161Y292656D01*
X158862Y298000D02*
X165818D01*
X153629Y301235D02*
X155627D01*
X158862Y298000D01*
X132080Y227420D02*
X133606Y225894D01*
X135812D01*
X135906Y225800D01*
X130080Y227420D02*
X132080D01*
X130000Y227500D02*
X130080Y227420D01*
X76000Y276331D02*
Y278505D01*
X75083Y279422D02*
X76000Y278505D01*
X73089Y279422D02*
X75083D01*
X73011Y279500D02*
X73089Y279422D01*
X151692Y227292D02*
X151783Y227383D01*
X137894Y232700D02*
X143302Y227292D01*
X151692D01*
X134523Y232700D02*
X137894D01*
X133937Y233286D02*
X134523Y232700D01*
X133937Y233286D02*
Y237185D01*
X63500Y20000D02*
X65400D01*
X63032Y15500D02*
X76808D01*
X53760Y14468D02*
X62000D01*
X63032Y15500D01*
X53760Y10531D02*
X58469D01*
X58500Y10500D01*
X31000Y16437D02*
X36240D01*
X20000Y12500D02*
Y20300D01*
X21700Y22000D01*
X25437D01*
X31000Y16437D01*
X186000Y369618D02*
Y375200D01*
X190300Y379500D01*
X118189Y293000D02*
Y297815D01*
X116558Y273215D02*
Y291369D01*
X118189Y293000D01*
X126240Y263563D02*
X145000D01*
X124549Y265253D02*
X126240Y263563D01*
X124519Y265253D02*
X124549D01*
X116558Y273215D02*
X124519Y265253D01*
X110000Y328681D02*
X113500Y332181D01*
X135018D02*
X136457Y330743D01*
X113500Y332181D02*
X135018D01*
X159689Y135000D02*
X185000D01*
X187200Y137200D01*
Y186950D01*
X53054Y273346D02*
X54500Y274792D01*
X53054Y260383D02*
Y273346D01*
Y260383D02*
X56099Y257339D01*
X57138D01*
X58100Y256377D01*
Y252500D02*
Y256377D01*
X118000Y210077D02*
X120577Y207500D01*
X140435Y190435D02*
X141000Y191000D01*
X162338D01*
X168514Y197176D01*
Y201525D01*
X168602Y201614D01*
X119697Y243100D02*
X132640D01*
X118189Y241592D02*
X119697Y243100D01*
X118189Y237185D02*
Y241592D01*
X133937Y237185D02*
Y241803D01*
X132640Y243100D02*
X133937Y241803D01*
X176256Y244992D02*
X185894D01*
X157736Y136953D02*
X159689Y135000D01*
X157712Y136953D02*
X157736D01*
X157318Y137347D02*
X157712Y136953D01*
X157105Y137347D02*
X157318D01*
X187200Y186950D02*
X192750Y192500D01*
X200000D01*
X173032Y245000D02*
X176248D01*
X176256Y244992D01*
X160315Y255689D02*
X165000D01*
X170311Y261000D02*
X179100D01*
X165000Y255689D02*
X170311Y261000D01*
X82000Y248507D02*
Y251339D01*
Y246000D02*
Y248507D01*
X82692Y247815D02*
X87408D01*
X82000Y248507D02*
X82692Y247815D01*
X136457Y323386D02*
Y330743D01*
X106831Y328681D02*
X110000D01*
X127500Y201614D02*
Y205000D01*
X120577Y207500D02*
X125000D01*
X127500Y205000D01*
X118000Y210077D02*
Y223000D01*
X118189Y223189D01*
Y237185D01*
X104000Y344500D02*
X107500D01*
X193063Y379500D02*
X196500Y382937D01*
Y387000D01*
X190300Y379500D02*
X193063D01*
X185300Y359800D02*
X185800D01*
X180000Y354500D02*
X185300Y359800D01*
X180000Y346280D02*
Y354500D01*
X190000Y373000D02*
X196500D01*
X190000Y346280D02*
Y359800D01*
X196700Y355220D02*
X200000Y351920D01*
X196700Y355220D02*
Y358800D01*
X196500Y359000D02*
X196700Y358800D01*
X200000Y346280D02*
Y351920D01*
X153000Y29055D02*
X160968D01*
X60000Y252500D02*
X68500Y261000D01*
X75000D01*
X82000Y254000D01*
X75913Y226843D02*
X78240D01*
X92980Y289672D02*
X94430Y291122D01*
X99685D01*
X90056Y289672D02*
X92980D01*
X87240Y243100D02*
Y247648D01*
X87408Y247815D02*
X99685D01*
X87240Y247648D02*
X87408Y247815D01*
X210000Y290039D02*
Y305000D01*
X82000Y251339D02*
Y254000D01*
X58100Y252500D02*
X60000D01*
X191900Y30000D02*
X196900D01*
X186500D02*
X191900D01*
X71000Y25500D02*
X71900Y26400D01*
X69000Y25500D02*
X71000D01*
X71900Y26400D02*
Y30000D01*
X63416Y11984D02*
X67500D01*
X67016Y11500D02*
X67500Y11984D01*
X76808Y15500D02*
X77500Y14808D01*
Y11984D02*
Y14808D01*
X184000Y11576D02*
X187595Y7980D01*
X184000Y11576D02*
Y20000D01*
X187595Y7980D02*
X196500D01*
X196900Y19100D02*
X204240Y11760D01*
Y8741D02*
Y11760D01*
Y8741D02*
X205000Y7980D01*
X196900Y19100D02*
Y22500D01*
X184076Y27576D02*
X186500Y30000D01*
X112618Y24122D02*
Y30500D01*
X112500Y30618D02*
X112618Y30500D01*
X59937Y16437D02*
X63500Y20000D01*
X53760Y16437D02*
X59937D01*
X137000Y13000D02*
X137500Y13500D01*
Y22000D01*
X148874Y33181D02*
X153000Y29055D01*
X139331Y33181D02*
X148874D01*
D20*
X183957Y196543D02*
X185500Y195000D01*
X183957Y196543D02*
Y201614D01*
X185500Y195000D02*
X191200D01*
X133898Y341090D02*
Y346614D01*
X99323Y340177D02*
X113847D01*
X115984Y342315D01*
Y346614D01*
X98500Y341000D02*
X99323Y340177D01*
X90500Y341000D02*
X98500D01*
X122464Y358536D02*
X124464D01*
X122000Y359000D02*
X122464Y358536D01*
X124464D02*
X128780Y354220D01*
Y346614D02*
Y354220D01*
D26*
X8189Y12500D02*
D03*
X20000D02*
D03*
D27*
X10000Y380000D02*
D03*
X18500D02*
D03*
X172406Y365000D02*
D03*
X180906D02*
D03*
X174000Y385000D02*
D03*
X182500D02*
D03*
X196500Y387000D02*
D03*
X205000D02*
D03*
X196500Y373000D02*
D03*
X205000D02*
D03*
X196500Y359000D02*
D03*
X205000D02*
D03*
X82000Y341000D02*
D03*
X90500D02*
D03*
X74500Y316000D02*
D03*
X83000D02*
D03*
X205000Y261280D02*
D03*
X196500D02*
D03*
X181000Y277500D02*
D03*
X172500D02*
D03*
X203700Y214685D02*
D03*
X195200D02*
D03*
X196500Y7980D02*
D03*
X205000D02*
D03*
X146000Y22000D02*
D03*
X137500D02*
D03*
X77500Y20000D02*
D03*
X69000D02*
D03*
X34000Y30000D02*
D03*
X42500D02*
D03*
D28*
X116400Y359000D02*
D03*
X122000D02*
D03*
Y366000D02*
D03*
X116400D02*
D03*
X118400Y388000D02*
D03*
X124000D02*
D03*
X133400Y364032D02*
D03*
X139000D02*
D03*
X133400Y357000D02*
D03*
X139000D02*
D03*
X161220Y345000D02*
D03*
X155620D02*
D03*
X135000Y310000D02*
D03*
X129400D02*
D03*
X77400Y307000D02*
D03*
X83000D02*
D03*
Y288406D02*
D03*
X77400D02*
D03*
X178000Y287000D02*
D03*
X172400D02*
D03*
X200400Y276000D02*
D03*
X206000D02*
D03*
X179100Y261000D02*
D03*
X184700D02*
D03*
X205000Y251437D02*
D03*
X199400D02*
D03*
X205000Y223642D02*
D03*
X199400D02*
D03*
X58100Y252500D02*
D03*
X52500D02*
D03*
X72500Y244685D02*
D03*
X66900D02*
D03*
Y252500D02*
D03*
X72500D02*
D03*
X112400Y223000D02*
D03*
X118000D02*
D03*
X157500Y227500D02*
D03*
X151900D02*
D03*
X197500Y205000D02*
D03*
X203100D02*
D03*
X121900Y189000D02*
D03*
X127500D02*
D03*
X121900Y201614D02*
D03*
X127500D02*
D03*
X202500Y30000D02*
D03*
X196900D02*
D03*
X202500Y22500D02*
D03*
X196900D02*
D03*
X77500Y30000D02*
D03*
X71900D02*
D03*
X58100D02*
D03*
X52500D02*
D03*
D29*
X13000Y366000D02*
D03*
Y360400D02*
D03*
X71000Y329400D02*
D03*
Y335000D02*
D03*
X160000Y327400D02*
D03*
Y333000D02*
D03*
X90000Y284016D02*
D03*
Y289616D02*
D03*
X176256Y250592D02*
D03*
Y244992D02*
D03*
X87240Y237500D02*
D03*
Y243100D02*
D03*
X71900Y228843D02*
D03*
Y223243D02*
D03*
X66000Y193000D02*
D03*
Y187400D02*
D03*
Y179600D02*
D03*
Y174000D02*
D03*
X146000Y13000D02*
D03*
Y7400D02*
D03*
X137000D02*
D03*
Y13000D02*
D03*
X67500Y11984D02*
D03*
Y6384D02*
D03*
X77500D02*
D03*
Y11984D02*
D03*
D30*
X46386Y327669D02*
D03*
X45205Y332000D02*
D03*
X82500Y330000D02*
D03*
X83681Y325669D02*
D03*
X143681Y308169D02*
D03*
X142500Y312500D02*
D03*
X152500D02*
D03*
X153681Y308169D02*
D03*
D34*
X105000Y387500D02*
D03*
X93189D02*
D03*
X147441Y355000D02*
D03*
X159252D02*
D03*
X147441Y365000D02*
D03*
X159252D02*
D03*
X115811Y310000D02*
D03*
X104000D02*
D03*
D58*
X89979Y289749D02*
X90056Y289672D01*
X111969Y335697D02*
X128496D01*
X111871Y335599D02*
X111969Y335697D01*
X107913Y331447D02*
X111969Y335502D01*
X92946Y331447D02*
X107913D01*
X92500Y331000D02*
X92946Y331447D01*
X76273Y321773D02*
X82066D01*
X83681Y323389D01*
Y325669D01*
X191200Y195000D02*
X197500Y201300D01*
Y205000D01*
X82153Y334281D02*
X82500Y333935D01*
Y330000D02*
Y333935D01*
X171834Y287566D02*
X172400Y287000D01*
X79331Y296189D02*
Y299392D01*
X81535Y296189D02*
X83000Y294724D01*
X79331Y296189D02*
X81535D01*
X83000Y288406D02*
Y294724D01*
X188297Y257419D02*
Y283500D01*
X65400Y30400D02*
X69432Y34432D01*
X65400Y20000D02*
Y30400D01*
X62000Y27000D02*
Y37000D01*
X60500Y25500D02*
X62000Y27000D01*
X65400Y20000D02*
X69000D01*
X62000Y37000D02*
Y39500D01*
X22551Y78949D02*
X62000Y39500D01*
X22551Y78949D02*
Y195660D01*
X66900Y240009D01*
X36240Y17140D02*
Y20000D01*
X134340Y151875D02*
Y171231D01*
Y142974D02*
Y151875D01*
X144814Y132500D02*
X196900D01*
X134340Y142974D02*
X144814Y132500D01*
X51500Y154500D02*
X54124Y151875D01*
X134340D01*
X147441Y360000D02*
Y365000D01*
Y355000D02*
Y360000D01*
X128500Y335693D02*
X133898Y341090D01*
X197500Y205000D02*
Y208723D01*
X195963Y210260D02*
X197500Y208723D01*
X195963Y210260D02*
Y213922D01*
X195200Y214685D02*
X195963Y213922D01*
X195200Y222031D02*
X196811Y223642D01*
X195200Y214685D02*
Y222031D01*
X196811Y223642D02*
X199400D01*
Y227564D02*
X200000Y228164D01*
X199400Y223642D02*
Y227564D01*
X200000Y228164D02*
Y233685D01*
X193701Y235499D02*
X195500Y233700D01*
X199985D01*
X200000Y233685D01*
X193701Y235499D02*
Y241384D01*
Y252015D01*
X188297Y257419D02*
X193701Y252015D01*
X182500Y283500D02*
X188143D01*
X188663Y284020D01*
X203701Y284764D02*
Y289852D01*
X198953Y287519D02*
X200303Y288868D01*
X202716D01*
X203701Y289852D01*
Y290039D01*
X175000Y318720D02*
Y330000D01*
X171834Y287566D02*
Y290533D01*
X171161Y291206D02*
X171834Y290533D01*
X147500Y349500D02*
X152000Y345000D01*
X147441Y349559D02*
X147500Y349500D01*
X163169D01*
X164500Y350831D01*
Y354348D01*
X167152Y357000D01*
X173000D01*
X174937Y355063D01*
Y353220D02*
Y355063D01*
X88887Y293592D02*
X89979Y292500D01*
Y289749D02*
Y292500D01*
X86632Y293592D02*
X88887D01*
X86612Y307000D02*
X86632Y307020D01*
X83000Y307000D02*
X86612D01*
X66000Y335370D02*
X70630D01*
X71000Y335000D01*
X87132D02*
X89866Y332266D01*
X91234D01*
X92500Y331000D01*
X124000Y388000D02*
X127028D01*
X163500Y382266D02*
Y386000D01*
X159915Y378681D02*
X163500Y382266D01*
X191250Y161419D02*
Y169399D01*
Y161419D02*
X195669Y157000D01*
X141000Y191000D02*
X144723Y194723D01*
X139000Y189000D02*
X140435Y190435D01*
X82500Y213701D02*
Y218802D01*
X87200Y223502D01*
Y226091D01*
X85267Y228024D02*
X87200Y226091D01*
X82571Y228024D02*
X85267D01*
X74703Y228053D02*
X75913Y226843D01*
X74703Y228053D02*
X74703D01*
X74479Y228277D02*
X74703Y228053D01*
X72466Y228277D02*
X74479D01*
X71900Y228843D02*
X72466Y228277D01*
X66661Y228891D02*
X71851D01*
X71900Y228843D01*
X66000Y223819D02*
X66661Y224480D01*
Y228891D01*
X66000Y193000D02*
Y223819D01*
X86260Y322500D02*
X92500D01*
X134254Y171317D02*
X134340Y171231D01*
X134181Y189000D02*
X139000D01*
X127500D02*
X134181D01*
X196900Y132500D02*
Y155769D01*
Y30000D02*
Y132500D01*
X115811Y310000D02*
X129400D01*
X174937Y346343D02*
Y353220D01*
Y346343D02*
X175000Y346280D01*
X116187Y356435D02*
Y358787D01*
X112752Y353000D02*
X116187Y356435D01*
X106968Y353000D02*
X112752D01*
X153894Y335000D02*
X155894Y333000D01*
X160000D01*
X149409Y335000D02*
X153894D01*
X20000Y332500D02*
X26000D01*
X91248Y336559D02*
X92500Y335307D01*
Y331000D02*
Y335307D01*
X91248Y336559D02*
Y340252D01*
X90500Y341000D02*
X91248Y340252D01*
X85100Y167500D02*
X87500Y169900D01*
Y176299D01*
X76000Y167500D02*
X85100D01*
X69594Y173906D02*
X76000Y167500D01*
X66094Y173906D02*
X69594D01*
X66000Y174000D02*
X66094Y173906D01*
X66900Y240009D02*
Y244685D01*
X200400Y276000D02*
Y281463D01*
X203701Y284764D01*
Y290039D02*
Y305000D01*
X185000Y335500D02*
X195000D01*
X178609D02*
X185000D01*
Y346280D01*
X195000Y335500D02*
X203000D01*
X195000D02*
Y346280D01*
X205000Y337500D02*
Y346280D01*
X203000Y335500D02*
X205000Y337500D01*
X175000Y339109D02*
X178609Y335500D01*
X175000Y339109D02*
Y346280D01*
X83266Y351819D02*
X83447Y352000D01*
X92000D01*
X195669Y157000D02*
X196900Y155769D01*
X116187Y358787D02*
X116400Y359000D01*
X133400Y357000D02*
Y364032D01*
X97000Y322103D02*
X99102Y320000D01*
X102500D01*
X92897Y322103D02*
X97000D01*
X92500Y322500D02*
X92897Y322103D01*
X102500Y317153D02*
Y320000D01*
Y317153D02*
X103653Y316000D01*
X113000D01*
X115000Y314000D01*
Y310811D02*
Y314000D01*
Y310811D02*
X115811Y310000D01*
X83000Y307000D02*
Y316000D01*
X91000D01*
X92500Y317500D01*
Y322500D01*
X71000Y335000D02*
Y340177D01*
X63177Y348000D02*
X71000Y340177D01*
X27000Y348000D02*
X63177D01*
X24980Y350020D02*
X27000Y348000D01*
X24980Y350020D02*
Y354503D01*
X25000Y354522D01*
Y358484D01*
X18500Y364984D02*
X25000Y358484D01*
X18500Y364984D02*
Y380000D01*
X159915Y378681D02*
X161815Y376781D01*
X156831Y378681D02*
X159915D01*
X161815Y375151D02*
Y376781D01*
X159577Y372913D02*
X161815Y375151D01*
X152322Y372913D02*
X159577D01*
X148505Y369096D02*
X152322Y372913D01*
X148505Y366064D02*
Y369096D01*
X147441Y365000D02*
X148505Y366064D01*
X152000Y345000D02*
X155620D01*
X147441Y349559D02*
Y355000D01*
X116400Y359000D02*
Y366000D01*
X144723Y194723D02*
Y199723D01*
X145000Y200000D01*
X127500Y189000D02*
Y201614D01*
X49252Y180748D02*
X56000Y174000D01*
X66000D01*
X37500Y180748D02*
X49252D01*
X195669Y157000D02*
Y178720D01*
X62000Y37000D02*
X121000D01*
X52844Y26656D02*
X54000Y25500D01*
X52844Y26656D02*
Y29656D01*
X52500Y30000D02*
X52844Y29656D01*
X54000Y25500D02*
X60500D01*
X36240Y20000D02*
X42500Y26260D01*
Y30000D01*
X146000Y13000D02*
Y22000D01*
Y26150D01*
X144150Y28000D02*
X146000Y26150D01*
X124000Y28000D02*
X144150D01*
X121500Y30500D02*
X124000Y28000D01*
X112618Y30500D02*
X121500D01*
X108687Y34432D02*
X112500Y30618D01*
X69432Y34432D02*
X108687D01*
X67734Y21716D02*
X69000Y20450D01*
Y20000D02*
Y20450D01*
X121000Y37000D02*
X126000Y32000D01*
X135000D01*
X42500Y30000D02*
X52500D01*
D59*
X183759Y270899D02*
X185500Y269158D01*
Y267500D02*
Y269158D01*
X206500Y267746D02*
Y268258D01*
X203000Y271758D02*
X206500Y268258D01*
X203000Y271758D02*
Y280000D01*
X166459Y277297D02*
X172857Y270899D01*
X183759D01*
X166459Y277297D02*
Y285731D01*
X167642Y286914D01*
Y293039D01*
X165782Y294899D02*
X167642Y293039D01*
X160934Y294899D02*
X165782D01*
X160535Y294500D02*
X160934Y294899D01*
X155713Y294500D02*
X160535D01*
X154697Y293484D02*
X155713Y294500D01*
X148500Y293484D02*
X154697D01*
X147717Y294268D02*
X148500Y293484D01*
X147717Y294268D02*
Y297815D01*
X164885Y277088D02*
X172973Y269000D01*
X182972D01*
X164885Y277088D02*
Y289911D01*
X163765Y291031D02*
X164885Y289911D01*
X160406Y291031D02*
X163765D01*
X160315Y291122D02*
X160406Y291031D01*
D60*
X187500Y245846D02*
D03*
X207508Y245897D02*
D03*
X206500Y267746D02*
D03*
X200900Y267900D02*
D03*
X195200Y268202D02*
D03*
D61*
X34721Y342500D02*
D03*
X52437D02*
D03*
D62*
X203000Y280000D02*
D03*
X185500Y267500D02*
D03*
X168510Y283000D02*
D03*
X149119Y288463D02*
D03*
X182972Y269000D02*
D03*
X73011Y279500D02*
D03*
X79000Y202500D02*
D03*
X58500Y10500D02*
D03*
X58000Y6091D02*
D03*
X26500Y89000D02*
D03*
X27500Y162500D02*
D03*
X72829Y267669D02*
D03*
X78320Y261100D02*
D03*
X30600Y160900D02*
D03*
X27700Y85500D02*
D03*
X27200Y11300D02*
D03*
X27300Y14600D02*
D03*
X100000Y52500D02*
D03*
X92500Y135189D02*
D03*
X114383Y272792D02*
D03*
X116500Y268500D02*
D03*
X112000Y52500D02*
D03*
Y134500D02*
D03*
X106000Y248637D02*
D03*
X105862Y255689D02*
D03*
X106000Y258775D02*
D03*
X105754Y251752D02*
D03*
X117000Y264000D02*
D03*
X128500Y52500D02*
D03*
X162126D02*
D03*
X114311Y250287D02*
D03*
X118500Y252500D02*
D03*
X121102Y255300D02*
D03*
X82692Y141015D02*
D03*
X75138Y80000D02*
D03*
X52500Y148000D02*
D03*
X51500Y154500D02*
D03*
X143218Y364000D02*
D03*
X147441Y360000D02*
D03*
X133898Y341090D02*
D03*
X141309Y384000D02*
D03*
X138122Y388100D02*
D03*
X194900Y364600D02*
D03*
X186000Y369618D02*
D03*
X103031Y381500D02*
D03*
X166500Y364984D02*
D03*
X126220Y351901D02*
D03*
X134500Y337500D02*
D03*
X98772Y352802D02*
D03*
X131180Y334500D02*
D03*
X142500Y323574D02*
D03*
X170126Y336874D02*
D03*
X120157Y302992D02*
D03*
X138681Y275692D02*
D03*
X136319Y280594D02*
D03*
X134181Y284200D02*
D03*
X188663Y284020D02*
D03*
X195394Y284500D02*
D03*
X198953Y287519D02*
D03*
X210000Y269979D02*
D03*
X145000Y263563D02*
D03*
X138500Y249311D02*
D03*
X202084Y312474D02*
D03*
X209000Y310000D02*
D03*
X185336Y311500D02*
D03*
X148170Y265816D02*
D03*
X195050Y312800D02*
D03*
X152000Y267000D02*
D03*
X154457Y269488D02*
D03*
X175000Y330000D02*
D03*
X164744Y293000D02*
D03*
X171161Y291206D02*
D03*
X148885Y375885D02*
D03*
X133500Y329900D02*
D03*
X137500Y303500D02*
D03*
X170000Y353500D02*
D03*
X174937Y353220D02*
D03*
X176500Y373500D02*
D03*
X86632Y293592D02*
D03*
Y307020D02*
D03*
X83266Y21000D02*
D03*
X66000Y335370D02*
D03*
X87132Y335000D02*
D03*
X127028Y388000D02*
D03*
X159577Y389434D02*
D03*
X163500Y386000D02*
D03*
X182500Y283500D02*
D03*
X102957Y232500D02*
D03*
X91248Y262047D02*
D03*
X94142Y255569D02*
D03*
X92719Y253360D02*
D03*
X132500Y220743D02*
D03*
X191200Y195000D02*
D03*
X191250Y169399D02*
D03*
X54500Y274792D02*
D03*
X190865Y261080D02*
D03*
X173720Y206433D02*
D03*
X180000Y218802D02*
D03*
X154862Y209488D02*
D03*
X144723Y248637D02*
D03*
X149685Y243600D02*
D03*
X146850Y246000D02*
D03*
X153622Y255300D02*
D03*
X123187Y257922D02*
D03*
X156831Y237137D02*
D03*
X136457Y209488D02*
D03*
X144035Y243969D02*
D03*
X117933Y206677D02*
D03*
X121900Y194723D02*
D03*
X145748Y229467D02*
D03*
X148374Y231343D02*
D03*
X142500Y187500D02*
D03*
X193701Y241384D02*
D03*
X123465Y261000D02*
D03*
X102106Y235169D02*
D03*
X200787Y165000D02*
D03*
X157105Y137347D02*
D03*
Y167559D02*
D03*
X162800Y229664D02*
D03*
X182500Y232000D02*
D03*
X191250Y89972D02*
D03*
X150869Y92500D02*
D03*
X181398Y194370D02*
D03*
X155000Y171000D02*
D03*
X141811Y232260D02*
D03*
X140059Y167500D02*
D03*
X143218Y171500D02*
D03*
X169936Y221509D02*
D03*
X169200Y248507D02*
D03*
Y241885D02*
D03*
X179754Y241516D02*
D03*
X176906Y256855D02*
D03*
X180000Y255000D02*
D03*
X173569Y258200D02*
D03*
X66661Y228891D02*
D03*
X82000Y246000D02*
D03*
X86260Y322500D02*
D03*
X79331Y299392D02*
D03*
X98772Y327717D02*
D03*
X71900Y292875D02*
D03*
Y289092D02*
D03*
X71836Y285669D02*
D03*
X70916Y277008D02*
D03*
X134181Y189000D02*
D03*
X134254Y171317D02*
D03*
X167063Y301457D02*
D03*
X122500Y316356D02*
D03*
X124094Y277748D02*
D03*
X126220Y316280D02*
D03*
X128693Y276792D02*
D03*
X131339Y316280D02*
D03*
X130611Y281392D02*
D03*
X141718Y350000D02*
D03*
X133937Y318270D02*
D03*
X128780Y318300D02*
D03*
Y288992D02*
D03*
X137273Y376223D02*
D03*
X167063Y235000D02*
D03*
X72738Y239893D02*
D03*
X78835Y233000D02*
D03*
X18500Y364984D02*
D03*
X26000Y332500D02*
D03*
X185800Y359800D02*
D03*
X190000Y373000D02*
D03*
Y359800D02*
D03*
X74276Y344000D02*
D03*
X8000Y326665D02*
D03*
X184153Y137347D02*
D03*
X181398Y140000D02*
D03*
X179243Y144080D02*
D03*
X178150Y147500D02*
D03*
X178874Y152598D02*
D03*
X181496Y160000D02*
D03*
X184000Y167500D02*
D03*
X52564Y130000D02*
D03*
X83266Y351819D02*
D03*
X99685Y390000D02*
D03*
X132000Y368966D02*
D03*
X143000Y371000D02*
D03*
X153000Y18000D02*
D03*
X37000Y38000D02*
D03*
X195000Y327400D02*
D03*
X61760Y336240D02*
D03*
X25000Y340000D02*
D03*
X34721Y106500D02*
D03*
X38000Y120000D02*
D03*
X61000Y87000D02*
D03*
X191900Y30000D02*
D03*
X69000Y25500D02*
D03*
X63416Y11984D02*
D03*
D63*
X146850Y292075D02*
D03*
X144665Y291950D02*
D03*
X107559Y30559D02*
D03*
X105000D02*
D03*
D64*
X101000Y372070D02*
D03*
X111000Y371000D02*
D03*
D65*
X153622Y237185D02*
D03*
X151654D02*
D03*
X149685D02*
D03*
X147717D02*
D03*
X145748D02*
D03*
X143780D02*
D03*
X141811D02*
D03*
X139843D02*
D03*
X137874D02*
D03*
X135906D02*
D03*
X133937D02*
D03*
X131969D02*
D03*
X130000D02*
D03*
X128032D02*
D03*
X126063D02*
D03*
X124094D02*
D03*
X122126D02*
D03*
X120157D02*
D03*
X118189D02*
D03*
X116220D02*
D03*
X114252D02*
D03*
X112283D02*
D03*
X110315D02*
D03*
X108346D02*
D03*
X106378D02*
D03*
Y297815D02*
D03*
X108346D02*
D03*
X110315D02*
D03*
X112283D02*
D03*
X114252D02*
D03*
X116220D02*
D03*
X118189D02*
D03*
X120157D02*
D03*
X122126D02*
D03*
X124094D02*
D03*
X126063D02*
D03*
X128032D02*
D03*
X130000D02*
D03*
X131969D02*
D03*
X133937D02*
D03*
X135906D02*
D03*
X137874D02*
D03*
X139843D02*
D03*
X141811D02*
D03*
X143780D02*
D03*
X145748D02*
D03*
X147717D02*
D03*
X149685D02*
D03*
X151654D02*
D03*
X153622D02*
D03*
D66*
X99685Y243878D02*
D03*
Y245846D02*
D03*
Y247815D02*
D03*
Y249783D02*
D03*
Y251752D02*
D03*
Y253720D02*
D03*
Y255689D02*
D03*
Y257657D02*
D03*
Y259626D02*
D03*
Y261594D02*
D03*
Y263563D02*
D03*
Y265532D02*
D03*
Y267500D02*
D03*
Y269469D02*
D03*
Y271437D02*
D03*
Y273406D02*
D03*
Y275374D02*
D03*
Y277343D02*
D03*
Y279311D02*
D03*
Y281280D02*
D03*
Y283248D02*
D03*
Y285217D02*
D03*
Y287185D02*
D03*
Y289154D02*
D03*
Y291122D02*
D03*
X160315D02*
D03*
Y289154D02*
D03*
Y287185D02*
D03*
Y285217D02*
D03*
Y283248D02*
D03*
Y281280D02*
D03*
Y279311D02*
D03*
Y277343D02*
D03*
Y275374D02*
D03*
Y273406D02*
D03*
Y271437D02*
D03*
Y269469D02*
D03*
Y267500D02*
D03*
Y265532D02*
D03*
Y263563D02*
D03*
Y261594D02*
D03*
Y259626D02*
D03*
Y257657D02*
D03*
Y255689D02*
D03*
Y253720D02*
D03*
Y251752D02*
D03*
Y249783D02*
D03*
Y247815D02*
D03*
Y245846D02*
D03*
Y243878D02*
D03*
D67*
X166043Y201614D02*
D03*
X168602D02*
D03*
X171161D02*
D03*
X173720D02*
D03*
X176280D02*
D03*
X178839D02*
D03*
X181398D02*
D03*
X183957D02*
D03*
X166043Y178386D02*
D03*
X168602D02*
D03*
X171161D02*
D03*
X173720D02*
D03*
X176280D02*
D03*
X178839D02*
D03*
X181398D02*
D03*
X183957D02*
D03*
X139016Y323386D02*
D03*
X136457D02*
D03*
X133898D02*
D03*
X131339D02*
D03*
X128780D02*
D03*
X126220D02*
D03*
X123661D02*
D03*
X121102D02*
D03*
X118543D02*
D03*
X115984D02*
D03*
X139016Y346614D02*
D03*
X136457D02*
D03*
X133898D02*
D03*
X131339D02*
D03*
X128780D02*
D03*
X126220D02*
D03*
X123661D02*
D03*
X121102D02*
D03*
X118543D02*
D03*
X115984D02*
D03*
D68*
X106968Y364811D02*
D03*
Y353000D02*
D03*
X144000Y388000D02*
D03*
Y376189D02*
D03*
X149409Y335000D02*
D03*
Y323189D02*
D03*
D69*
X113740Y373563D02*
D03*
Y375531D02*
D03*
Y377500D02*
D03*
Y379468D02*
D03*
Y381437D02*
D03*
X131260Y373563D02*
D03*
Y375531D02*
D03*
Y377500D02*
D03*
Y379468D02*
D03*
Y381437D02*
D03*
X53760Y16437D02*
D03*
Y14468D02*
D03*
Y12500D02*
D03*
Y10531D02*
D03*
Y8563D02*
D03*
X36240Y16437D02*
D03*
Y14468D02*
D03*
Y12500D02*
D03*
Y10531D02*
D03*
Y8563D02*
D03*
D70*
X122500Y377500D02*
D03*
X45000Y12500D02*
D03*
D71*
X22000Y353000D02*
D03*
X17669Y351819D02*
D03*
X152500Y377500D02*
D03*
X156831Y378681D02*
D03*
X106831Y328681D02*
D03*
X102500Y327500D02*
D03*
X106831Y321181D02*
D03*
X102500Y320000D02*
D03*
X79331Y296189D02*
D03*
X75000Y295008D02*
D03*
X82571Y228024D02*
D03*
X78240Y226843D02*
D03*
X139331Y33181D02*
D03*
X135000Y32000D02*
D03*
D72*
X20000Y332500D02*
D03*
Y339980D02*
D03*
X9370D02*
D03*
Y336240D02*
D03*
Y332500D02*
D03*
D73*
X36300Y332000D02*
D03*
X32000D02*
D03*
X57700D02*
D03*
X62000D02*
D03*
X130000Y227500D02*
D03*
X125700D02*
D03*
X189000Y236300D02*
D03*
X184700D02*
D03*
X189143Y225000D02*
D03*
X184843D02*
D03*
D74*
X92000Y352000D02*
D03*
Y375228D02*
D03*
D75*
X20374Y321102D02*
D03*
Y262047D02*
D03*
D76*
X59744Y319528D02*
D03*
D77*
Y262047D02*
D03*
D78*
X62500Y268346D02*
D03*
Y272677D02*
D03*
Y277008D02*
D03*
Y281339D02*
D03*
Y285669D02*
D03*
Y290000D02*
D03*
Y294331D02*
D03*
Y298661D02*
D03*
Y302992D02*
D03*
D79*
X92500Y322500D02*
D03*
Y331000D02*
D03*
X104000Y344500D02*
D03*
Y336000D02*
D03*
X162500Y306500D02*
D03*
Y315000D02*
D03*
X90000Y267500D02*
D03*
Y276000D02*
D03*
X175000Y295500D02*
D03*
Y304000D02*
D03*
X185000Y295500D02*
D03*
Y304000D02*
D03*
X195000Y295500D02*
D03*
Y304000D02*
D03*
X200000Y242185D02*
D03*
Y233685D02*
D03*
D80*
X170000Y346280D02*
D03*
X175000D02*
D03*
X180000D02*
D03*
X185000D02*
D03*
X190000D02*
D03*
X195000D02*
D03*
X200000D02*
D03*
X205000D02*
D03*
X170000Y318720D02*
D03*
X175000D02*
D03*
X180000D02*
D03*
X185000D02*
D03*
X190000D02*
D03*
X195000D02*
D03*
X200000D02*
D03*
X205000D02*
D03*
X77500Y213701D02*
D03*
X82500D02*
D03*
X87500D02*
D03*
X92500D02*
D03*
X97500D02*
D03*
X102500D02*
D03*
X107500D02*
D03*
X112500D02*
D03*
X77500Y176299D02*
D03*
X82500D02*
D03*
X87500D02*
D03*
X92500D02*
D03*
X97500D02*
D03*
X102500D02*
D03*
X107500D02*
D03*
X112500D02*
D03*
X155000Y178740D02*
D03*
X150000D02*
D03*
X145000D02*
D03*
X140000D02*
D03*
X155000Y200000D02*
D03*
X150000D02*
D03*
X145000D02*
D03*
X140000D02*
D03*
D81*
X76000Y276331D02*
D03*
Y267669D02*
D03*
X82000Y251339D02*
D03*
Y260000D02*
D03*
D82*
X203701Y290039D02*
D03*
Y305000D02*
D03*
X210000D02*
D03*
Y290039D02*
D03*
D83*
X135906Y225800D02*
D03*
Y230100D02*
D03*
D84*
X127500Y215000D02*
D03*
X164508D02*
D03*
D85*
X175000Y234843D02*
D03*
Y225000D02*
D03*
D86*
X204331Y178720D02*
D03*
X195669D02*
D03*
D87*
X200000Y192500D02*
D03*
D88*
X102382Y24122D02*
D03*
X104941D02*
D03*
X107500D02*
D03*
X110059D02*
D03*
X112618D02*
D03*
D89*
X91752Y13492D02*
D03*
X123248D02*
D03*
D90*
X37500Y249252D02*
D03*
Y180748D02*
D03*
D91*
X160968Y11021D02*
D03*
Y20076D02*
D03*
Y29131D02*
D03*
D92*
X184000Y20076D02*
D03*
D93*
X121000Y375500D02*
D03*
X124000D02*
D03*
Y379500D02*
D03*
X121000D02*
D03*
X122500Y377500D02*
D03*
X46500Y14500D02*
D03*
X43500D02*
D03*
Y10500D02*
D03*
X46500D02*
D03*
X45000Y12500D02*
D03*
M02*
