G04*
G04 #@! TF.GenerationSoftware,Altium Limited,Altium Designer,19.0.12 (326)*
G04*
G04 Layer_Color=16711935*
%FSLAX25Y25*%
%MOIN*%
G70*
G01*
G75*
%ADD43R,0.05524X0.12611*%
%ADD44R,0.05300X0.06200*%
%ADD45R,0.03900X0.04600*%
%ADD46R,0.04600X0.03900*%
%ADD47R,0.02769X0.02769*%
%ADD51R,0.05524X0.05918*%
G04:AMPARAMS|DCode=56|XSize=47.37mil|YSize=47.37mil|CornerRadius=0mil|HoleSize=0mil|Usage=FLASHONLY|Rotation=0.000|XOffset=0mil|YOffset=0mil|HoleType=Round|Shape=Octagon|*
%AMOCTAGOND56*
4,1,8,0.02368,-0.01184,0.02368,0.01184,0.01184,0.02368,-0.01184,0.02368,-0.02368,0.01184,-0.02368,-0.01184,-0.01184,-0.02368,0.01184,-0.02368,0.02368,-0.01184,0.0*
%
%ADD56OCTAGOND56*%

%ADD57C,0.06706*%
%ADD94R,0.01981X0.06706*%
%ADD95R,0.06706X0.01981*%
%ADD96R,0.02572X0.06706*%
%ADD97R,0.05918X0.05524*%
%ADD98R,0.06115X0.01981*%
%ADD99R,0.07099X0.08674*%
%ADD100R,0.02769X0.02769*%
%ADD101R,0.04737X0.03162*%
%ADD102R,0.02800X0.03300*%
%ADD103R,0.10642X0.07493*%
%ADD104R,0.10642X0.06706*%
%ADD105R,0.06706X0.07493*%
%ADD106R,0.07493X0.06706*%
%ADD107R,0.07099X0.03556*%
%ADD108R,0.06200X0.05300*%
%ADD109R,0.03556X0.08674*%
%ADD110R,0.02375X0.03556*%
%ADD111R,0.04737X0.05524*%
%ADD112R,0.03300X0.02800*%
%ADD113R,0.16548X0.05524*%
%ADD114R,0.07493X0.04737*%
%ADD115R,0.05524X0.05524*%
%ADD116R,0.07099X0.07099*%
%ADD117R,0.02375X0.06312*%
%ADD118R,0.08674X0.08674*%
%ADD119R,0.12611X0.16548*%
%ADD120R,0.09265X0.04737*%
%ADD121R,0.09265X0.13792*%
G36*
X158064Y380260D02*
X158116Y380249D01*
X158165Y380233D01*
X158212Y380209D01*
X158256Y380180D01*
X158295Y380146D01*
X158330Y380106D01*
X158359Y380063D01*
X158382Y380016D01*
X158399Y379966D01*
X158409Y379914D01*
X158413Y379862D01*
Y376319D01*
X158409Y376267D01*
X158399Y376215D01*
X158382Y376166D01*
X158359Y376118D01*
X158330Y376075D01*
X158295Y376035D01*
X158256Y376001D01*
X158212Y375972D01*
X158165Y375949D01*
X158116Y375932D01*
X158064Y375922D01*
X158012Y375918D01*
X156437D01*
X156385Y375922D01*
X156333Y375932D01*
X156284Y375949D01*
X156237Y375972D01*
X156193Y376001D01*
X156154Y376035D01*
X156119Y376075D01*
X156090Y376118D01*
X156067Y376166D01*
X156050Y376215D01*
X156043Y376248D01*
X156037Y376215D01*
X156020Y376166D01*
X155997Y376118D01*
X155968Y376075D01*
X155933Y376035D01*
X155894Y376001D01*
X155850Y375972D01*
X155803Y375949D01*
X155753Y375932D01*
X155702Y375922D01*
X155650Y375918D01*
X151319D01*
X151267Y375922D01*
X151215Y375932D01*
X151165Y375949D01*
X151119Y375972D01*
X151075Y376001D01*
X151035Y376035D01*
X151001Y376075D01*
X150972Y376118D01*
X150949Y376166D01*
X150932Y376215D01*
X150921Y376267D01*
X150918Y376319D01*
Y379862D01*
X150921Y379914D01*
X150932Y379966D01*
X150949Y380016D01*
X150972Y380063D01*
X151001Y380106D01*
X151035Y380146D01*
X151075Y380180D01*
X151119Y380209D01*
X151165Y380233D01*
X151215Y380249D01*
X151267Y380260D01*
X151319Y380263D01*
X152894D01*
X152946Y380260D01*
X152998Y380249D01*
X153047Y380233D01*
X153094Y380209D01*
X153138Y380180D01*
X153177Y380146D01*
X153212Y380106D01*
X153241Y380063D01*
X153264Y380016D01*
X153281Y379966D01*
X153287Y379933D01*
X153294Y379966D01*
X153311Y380016D01*
X153334Y380063D01*
X153363Y380106D01*
X153398Y380146D01*
X153437Y380180D01*
X153481Y380209D01*
X153528Y380233D01*
X153577Y380249D01*
X153629Y380260D01*
X153681Y380263D01*
X158012D01*
X158064Y380260D01*
D02*
G37*
G36*
X23233Y354578D02*
X23285Y354568D01*
X23335Y354552D01*
X23381Y354528D01*
X23425Y354499D01*
X23464Y354465D01*
X23499Y354425D01*
X23528Y354381D01*
X23551Y354334D01*
X23568Y354285D01*
X23578Y354233D01*
X23582Y354181D01*
Y350638D01*
X23578Y350586D01*
X23568Y350534D01*
X23551Y350484D01*
X23528Y350437D01*
X23499Y350394D01*
X23464Y350354D01*
X23425Y350320D01*
X23381Y350291D01*
X23335Y350267D01*
X23285Y350251D01*
X23233Y350240D01*
X23181Y350237D01*
X21606D01*
X21554Y350240D01*
X21502Y350251D01*
X21453Y350267D01*
X21406Y350291D01*
X21362Y350320D01*
X21323Y350354D01*
X21288Y350394D01*
X21259Y350437D01*
X21236Y350484D01*
X21219Y350534D01*
X21213Y350567D01*
X21206Y350534D01*
X21189Y350484D01*
X21166Y350437D01*
X21137Y350394D01*
X21102Y350354D01*
X21063Y350320D01*
X21019Y350291D01*
X20972Y350267D01*
X20923Y350251D01*
X20871Y350240D01*
X20819Y350237D01*
X16488D01*
X16436Y350240D01*
X16384Y350251D01*
X16335Y350267D01*
X16288Y350291D01*
X16244Y350320D01*
X16205Y350354D01*
X16170Y350394D01*
X16141Y350437D01*
X16118Y350484D01*
X16101Y350534D01*
X16091Y350586D01*
X16087Y350638D01*
Y354181D01*
X16091Y354233D01*
X16101Y354285D01*
X16118Y354334D01*
X16141Y354381D01*
X16170Y354425D01*
X16205Y354465D01*
X16244Y354499D01*
X16288Y354528D01*
X16335Y354552D01*
X16384Y354568D01*
X16436Y354578D01*
X16488Y354582D01*
X18063D01*
X18115Y354578D01*
X18167Y354568D01*
X18216Y354552D01*
X18263Y354528D01*
X18307Y354499D01*
X18346Y354465D01*
X18381Y354425D01*
X18410Y354381D01*
X18433Y354334D01*
X18450Y354285D01*
X18457Y354252D01*
X18463Y354285D01*
X18480Y354334D01*
X18503Y354381D01*
X18532Y354425D01*
X18567Y354465D01*
X18606Y354499D01*
X18650Y354528D01*
X18697Y354552D01*
X18747Y354568D01*
X18798Y354578D01*
X18850Y354582D01*
X23181D01*
X23233Y354578D01*
D02*
G37*
G36*
X108064Y330260D02*
X108116Y330249D01*
X108165Y330233D01*
X108212Y330209D01*
X108256Y330180D01*
X108295Y330146D01*
X108330Y330106D01*
X108359Y330063D01*
X108382Y330016D01*
X108399Y329966D01*
X108409Y329914D01*
X108413Y329862D01*
Y326319D01*
X108409Y326267D01*
X108399Y326215D01*
X108382Y326166D01*
X108359Y326118D01*
X108330Y326075D01*
X108295Y326035D01*
X108256Y326001D01*
X108212Y325972D01*
X108165Y325949D01*
X108116Y325932D01*
X108064Y325922D01*
X108012Y325918D01*
X106437D01*
X106385Y325922D01*
X106333Y325932D01*
X106284Y325949D01*
X106237Y325972D01*
X106193Y326001D01*
X106154Y326035D01*
X106119Y326075D01*
X106090Y326118D01*
X106067Y326166D01*
X106050Y326215D01*
X106043Y326248D01*
X106037Y326215D01*
X106020Y326166D01*
X105997Y326118D01*
X105968Y326075D01*
X105933Y326035D01*
X105894Y326001D01*
X105850Y325972D01*
X105803Y325949D01*
X105753Y325932D01*
X105702Y325922D01*
X105650Y325918D01*
X101319D01*
X101267Y325922D01*
X101215Y325932D01*
X101165Y325949D01*
X101119Y325972D01*
X101075Y326001D01*
X101035Y326035D01*
X101001Y326075D01*
X100972Y326118D01*
X100949Y326166D01*
X100932Y326215D01*
X100921Y326267D01*
X100918Y326319D01*
Y329862D01*
X100921Y329914D01*
X100932Y329966D01*
X100949Y330016D01*
X100972Y330063D01*
X101001Y330106D01*
X101035Y330146D01*
X101075Y330180D01*
X101119Y330209D01*
X101165Y330233D01*
X101215Y330249D01*
X101267Y330260D01*
X101319Y330263D01*
X102894D01*
X102946Y330260D01*
X102998Y330249D01*
X103047Y330233D01*
X103094Y330209D01*
X103138Y330180D01*
X103177Y330146D01*
X103212Y330106D01*
X103241Y330063D01*
X103264Y330016D01*
X103281Y329966D01*
X103287Y329933D01*
X103294Y329966D01*
X103311Y330016D01*
X103334Y330063D01*
X103363Y330106D01*
X103398Y330146D01*
X103437Y330180D01*
X103481Y330209D01*
X103528Y330233D01*
X103577Y330249D01*
X103629Y330260D01*
X103681Y330263D01*
X108012D01*
X108064Y330260D01*
D02*
G37*
G36*
X47620Y333578D02*
X47671Y333568D01*
X47721Y333551D01*
X47768Y333528D01*
X47811Y333499D01*
X47851Y333465D01*
X47885Y333425D01*
X47914Y333381D01*
X47938Y333334D01*
X47954Y333285D01*
X47965Y333233D01*
X47968Y333181D01*
Y331606D01*
X47965Y331554D01*
X47954Y331503D01*
X47938Y331453D01*
X47914Y331406D01*
X47885Y331362D01*
X47851Y331323D01*
X47811Y331288D01*
X47768Y331259D01*
X47721Y331236D01*
X47671Y331219D01*
X47638Y331212D01*
X47671Y331206D01*
X47721Y331189D01*
X47768Y331166D01*
X47811Y331137D01*
X47851Y331102D01*
X47885Y331063D01*
X47914Y331019D01*
X47938Y330972D01*
X47954Y330923D01*
X47965Y330871D01*
X47968Y330819D01*
Y326488D01*
X47965Y326436D01*
X47954Y326384D01*
X47938Y326335D01*
X47914Y326288D01*
X47885Y326244D01*
X47851Y326205D01*
X47811Y326170D01*
X47768Y326141D01*
X47721Y326118D01*
X47671Y326101D01*
X47620Y326091D01*
X47567Y326087D01*
X44024D01*
X43972Y326091D01*
X43920Y326101D01*
X43870Y326118D01*
X43824Y326141D01*
X43780Y326170D01*
X43740Y326205D01*
X43706Y326244D01*
X43677Y326288D01*
X43654Y326335D01*
X43637Y326384D01*
X43626Y326436D01*
X43623Y326488D01*
Y328063D01*
X43626Y328115D01*
X43637Y328167D01*
X43654Y328216D01*
X43677Y328263D01*
X43706Y328307D01*
X43740Y328346D01*
X43780Y328381D01*
X43824Y328410D01*
X43870Y328433D01*
X43920Y328450D01*
X43953Y328457D01*
X43920Y328463D01*
X43870Y328480D01*
X43824Y328503D01*
X43780Y328532D01*
X43740Y328567D01*
X43706Y328606D01*
X43677Y328650D01*
X43654Y328697D01*
X43637Y328747D01*
X43626Y328798D01*
X43623Y328850D01*
Y333181D01*
X43626Y333233D01*
X43637Y333285D01*
X43654Y333334D01*
X43677Y333381D01*
X43706Y333425D01*
X43740Y333465D01*
X43780Y333499D01*
X43824Y333528D01*
X43870Y333551D01*
X43920Y333568D01*
X43972Y333578D01*
X44024Y333582D01*
X47567D01*
X47620Y333578D01*
D02*
G37*
G36*
X84914Y331578D02*
X84966Y331568D01*
X85016Y331552D01*
X85063Y331528D01*
X85106Y331499D01*
X85146Y331465D01*
X85180Y331425D01*
X85209Y331382D01*
X85233Y331334D01*
X85249Y331285D01*
X85260Y331233D01*
X85263Y331181D01*
Y329606D01*
X85260Y329554D01*
X85249Y329503D01*
X85233Y329453D01*
X85209Y329406D01*
X85180Y329362D01*
X85146Y329323D01*
X85106Y329288D01*
X85063Y329259D01*
X85016Y329236D01*
X84966Y329219D01*
X84933Y329213D01*
X84966Y329206D01*
X85016Y329189D01*
X85063Y329166D01*
X85106Y329137D01*
X85146Y329102D01*
X85180Y329063D01*
X85209Y329019D01*
X85233Y328972D01*
X85249Y328923D01*
X85260Y328871D01*
X85263Y328819D01*
Y324488D01*
X85260Y324436D01*
X85249Y324384D01*
X85233Y324335D01*
X85209Y324288D01*
X85180Y324244D01*
X85146Y324205D01*
X85106Y324170D01*
X85063Y324141D01*
X85016Y324118D01*
X84966Y324101D01*
X84914Y324091D01*
X84862Y324087D01*
X81319D01*
X81267Y324091D01*
X81215Y324101D01*
X81165Y324118D01*
X81119Y324141D01*
X81075Y324170D01*
X81035Y324205D01*
X81001Y324244D01*
X80972Y324288D01*
X80949Y324335D01*
X80932Y324384D01*
X80922Y324436D01*
X80918Y324488D01*
Y326063D01*
X80922Y326115D01*
X80932Y326167D01*
X80949Y326216D01*
X80972Y326263D01*
X81001Y326307D01*
X81035Y326346D01*
X81075Y326381D01*
X81119Y326410D01*
X81165Y326433D01*
X81215Y326450D01*
X81248Y326457D01*
X81215Y326463D01*
X81165Y326480D01*
X81119Y326503D01*
X81075Y326532D01*
X81035Y326567D01*
X81001Y326606D01*
X80972Y326650D01*
X80949Y326697D01*
X80932Y326747D01*
X80922Y326798D01*
X80918Y326850D01*
Y331181D01*
X80922Y331233D01*
X80932Y331285D01*
X80949Y331334D01*
X80972Y331382D01*
X81001Y331425D01*
X81035Y331465D01*
X81075Y331499D01*
X81119Y331528D01*
X81165Y331552D01*
X81215Y331568D01*
X81267Y331578D01*
X81319Y331582D01*
X84862D01*
X84914Y331578D01*
D02*
G37*
G36*
X108064Y322760D02*
X108116Y322749D01*
X108165Y322732D01*
X108212Y322709D01*
X108256Y322680D01*
X108295Y322646D01*
X108330Y322606D01*
X108359Y322563D01*
X108382Y322516D01*
X108399Y322466D01*
X108409Y322414D01*
X108413Y322362D01*
Y318819D01*
X108409Y318766D01*
X108399Y318715D01*
X108382Y318665D01*
X108359Y318618D01*
X108330Y318575D01*
X108295Y318535D01*
X108256Y318501D01*
X108212Y318472D01*
X108165Y318448D01*
X108116Y318432D01*
X108064Y318421D01*
X108012Y318418D01*
X106437D01*
X106385Y318421D01*
X106333Y318432D01*
X106284Y318448D01*
X106237Y318472D01*
X106193Y318501D01*
X106154Y318535D01*
X106119Y318575D01*
X106090Y318618D01*
X106067Y318665D01*
X106050Y318715D01*
X106043Y318748D01*
X106037Y318715D01*
X106020Y318665D01*
X105997Y318618D01*
X105968Y318575D01*
X105933Y318535D01*
X105894Y318501D01*
X105850Y318472D01*
X105803Y318448D01*
X105753Y318432D01*
X105702Y318421D01*
X105650Y318418D01*
X101319D01*
X101267Y318421D01*
X101215Y318432D01*
X101166Y318448D01*
X101119Y318472D01*
X101075Y318501D01*
X101035Y318535D01*
X101001Y318575D01*
X100972Y318618D01*
X100949Y318665D01*
X100932Y318715D01*
X100922Y318766D01*
X100918Y318819D01*
Y322362D01*
X100922Y322414D01*
X100932Y322466D01*
X100949Y322516D01*
X100972Y322563D01*
X101001Y322606D01*
X101035Y322646D01*
X101075Y322680D01*
X101119Y322709D01*
X101166Y322732D01*
X101215Y322749D01*
X101267Y322760D01*
X101319Y322763D01*
X102894D01*
X102946Y322760D01*
X102998Y322749D01*
X103047Y322732D01*
X103094Y322709D01*
X103138Y322680D01*
X103177Y322646D01*
X103212Y322606D01*
X103241Y322563D01*
X103264Y322516D01*
X103281Y322466D01*
X103287Y322433D01*
X103294Y322466D01*
X103311Y322516D01*
X103334Y322563D01*
X103363Y322606D01*
X103398Y322646D01*
X103437Y322680D01*
X103481Y322709D01*
X103528Y322732D01*
X103577Y322749D01*
X103629Y322760D01*
X103681Y322763D01*
X108012D01*
X108064Y322760D01*
D02*
G37*
G36*
X154914Y314078D02*
X154966Y314068D01*
X155016Y314051D01*
X155062Y314028D01*
X155106Y313999D01*
X155146Y313965D01*
X155180Y313925D01*
X155209Y313881D01*
X155232Y313834D01*
X155249Y313785D01*
X155260Y313733D01*
X155263Y313681D01*
Y312106D01*
X155260Y312054D01*
X155249Y312002D01*
X155232Y311953D01*
X155209Y311906D01*
X155180Y311862D01*
X155146Y311823D01*
X155106Y311788D01*
X155062Y311759D01*
X155016Y311736D01*
X154966Y311719D01*
X154933Y311713D01*
X154966Y311706D01*
X155016Y311689D01*
X155062Y311666D01*
X155106Y311637D01*
X155146Y311602D01*
X155180Y311563D01*
X155209Y311519D01*
X155232Y311472D01*
X155249Y311423D01*
X155260Y311371D01*
X155263Y311319D01*
Y306988D01*
X155260Y306936D01*
X155249Y306884D01*
X155232Y306835D01*
X155209Y306788D01*
X155180Y306744D01*
X155146Y306705D01*
X155106Y306670D01*
X155062Y306641D01*
X155016Y306618D01*
X154966Y306601D01*
X154914Y306591D01*
X154862Y306587D01*
X151319D01*
X151267Y306591D01*
X151215Y306601D01*
X151165Y306618D01*
X151118Y306641D01*
X151075Y306670D01*
X151035Y306705D01*
X151001Y306744D01*
X150972Y306788D01*
X150948Y306835D01*
X150932Y306884D01*
X150921Y306936D01*
X150918Y306988D01*
Y308563D01*
X150921Y308615D01*
X150932Y308667D01*
X150948Y308716D01*
X150972Y308763D01*
X151001Y308807D01*
X151035Y308846D01*
X151075Y308881D01*
X151118Y308910D01*
X151165Y308933D01*
X151215Y308950D01*
X151248Y308957D01*
X151215Y308963D01*
X151165Y308980D01*
X151118Y309003D01*
X151075Y309032D01*
X151035Y309067D01*
X151001Y309106D01*
X150972Y309150D01*
X150948Y309197D01*
X150932Y309246D01*
X150921Y309298D01*
X150918Y309350D01*
Y313681D01*
X150921Y313733D01*
X150932Y313785D01*
X150948Y313834D01*
X150972Y313881D01*
X151001Y313925D01*
X151035Y313965D01*
X151075Y313999D01*
X151118Y314028D01*
X151165Y314051D01*
X151215Y314068D01*
X151267Y314078D01*
X151319Y314082D01*
X154862D01*
X154914Y314078D01*
D02*
G37*
G36*
X144914D02*
X144966Y314068D01*
X145016Y314051D01*
X145062Y314028D01*
X145106Y313999D01*
X145146Y313965D01*
X145180Y313925D01*
X145209Y313881D01*
X145232Y313834D01*
X145249Y313785D01*
X145259Y313733D01*
X145263Y313681D01*
Y312106D01*
X145259Y312054D01*
X145249Y312002D01*
X145232Y311953D01*
X145209Y311906D01*
X145180Y311862D01*
X145146Y311823D01*
X145106Y311788D01*
X145062Y311759D01*
X145016Y311736D01*
X144966Y311719D01*
X144933Y311713D01*
X144966Y311706D01*
X145016Y311689D01*
X145062Y311666D01*
X145106Y311637D01*
X145146Y311602D01*
X145180Y311563D01*
X145209Y311519D01*
X145232Y311472D01*
X145249Y311423D01*
X145259Y311371D01*
X145263Y311319D01*
Y306988D01*
X145259Y306936D01*
X145249Y306884D01*
X145232Y306835D01*
X145209Y306788D01*
X145180Y306744D01*
X145146Y306705D01*
X145106Y306670D01*
X145062Y306641D01*
X145016Y306618D01*
X144966Y306601D01*
X144914Y306591D01*
X144862Y306587D01*
X141319D01*
X141267Y306591D01*
X141215Y306601D01*
X141165Y306618D01*
X141118Y306641D01*
X141075Y306670D01*
X141035Y306705D01*
X141001Y306744D01*
X140972Y306788D01*
X140948Y306835D01*
X140932Y306884D01*
X140921Y306936D01*
X140918Y306988D01*
Y308563D01*
X140921Y308615D01*
X140932Y308667D01*
X140948Y308716D01*
X140972Y308763D01*
X141001Y308807D01*
X141035Y308846D01*
X141075Y308881D01*
X141118Y308910D01*
X141165Y308933D01*
X141215Y308950D01*
X141248Y308957D01*
X141215Y308963D01*
X141165Y308980D01*
X141118Y309003D01*
X141075Y309032D01*
X141035Y309067D01*
X141001Y309106D01*
X140972Y309150D01*
X140948Y309197D01*
X140932Y309246D01*
X140921Y309298D01*
X140918Y309350D01*
Y313681D01*
X140921Y313733D01*
X140932Y313785D01*
X140948Y313834D01*
X140972Y313881D01*
X141001Y313925D01*
X141035Y313965D01*
X141075Y313999D01*
X141118Y314028D01*
X141165Y314051D01*
X141215Y314068D01*
X141267Y314078D01*
X141319Y314082D01*
X144862D01*
X144914Y314078D01*
D02*
G37*
G36*
X80564Y297767D02*
X80616Y297757D01*
X80665Y297740D01*
X80712Y297717D01*
X80756Y297688D01*
X80795Y297654D01*
X80830Y297614D01*
X80859Y297570D01*
X80882Y297523D01*
X80899Y297474D01*
X80909Y297422D01*
X80913Y297370D01*
Y293827D01*
X80909Y293774D01*
X80899Y293723D01*
X80882Y293673D01*
X80859Y293626D01*
X80830Y293583D01*
X80795Y293543D01*
X80756Y293509D01*
X80712Y293480D01*
X80665Y293456D01*
X80616Y293440D01*
X80564Y293429D01*
X80512Y293426D01*
X78937D01*
X78885Y293429D01*
X78833Y293440D01*
X78784Y293456D01*
X78737Y293480D01*
X78693Y293509D01*
X78654Y293543D01*
X78619Y293583D01*
X78590Y293626D01*
X78567Y293673D01*
X78550Y293723D01*
X78543Y293756D01*
X78537Y293723D01*
X78520Y293673D01*
X78497Y293626D01*
X78468Y293583D01*
X78433Y293543D01*
X78394Y293509D01*
X78350Y293480D01*
X78303Y293456D01*
X78253Y293440D01*
X78202Y293429D01*
X78150Y293426D01*
X73819D01*
X73767Y293429D01*
X73715Y293440D01*
X73665Y293456D01*
X73619Y293480D01*
X73575Y293509D01*
X73536Y293543D01*
X73501Y293583D01*
X73472Y293626D01*
X73449Y293673D01*
X73432Y293723D01*
X73422Y293774D01*
X73418Y293827D01*
Y297370D01*
X73422Y297422D01*
X73432Y297474D01*
X73449Y297523D01*
X73472Y297570D01*
X73501Y297614D01*
X73536Y297654D01*
X73575Y297688D01*
X73619Y297717D01*
X73665Y297740D01*
X73715Y297757D01*
X73767Y297767D01*
X73819Y297771D01*
X75394D01*
X75446Y297767D01*
X75498Y297757D01*
X75547Y297740D01*
X75594Y297717D01*
X75638Y297688D01*
X75677Y297654D01*
X75712Y297614D01*
X75741Y297570D01*
X75764Y297523D01*
X75781Y297474D01*
X75787Y297441D01*
X75794Y297474D01*
X75811Y297523D01*
X75834Y297570D01*
X75863Y297614D01*
X75898Y297654D01*
X75937Y297688D01*
X75981Y297717D01*
X76028Y297740D01*
X76077Y297757D01*
X76129Y297767D01*
X76181Y297771D01*
X80512D01*
X80564Y297767D01*
D02*
G37*
G36*
X83804Y229602D02*
X83856Y229592D01*
X83905Y229575D01*
X83952Y229552D01*
X83996Y229523D01*
X84035Y229488D01*
X84070Y229449D01*
X84099Y229405D01*
X84122Y229358D01*
X84139Y229309D01*
X84149Y229257D01*
X84153Y229205D01*
Y225661D01*
X84149Y225609D01*
X84139Y225558D01*
X84122Y225508D01*
X84099Y225461D01*
X84070Y225417D01*
X84035Y225378D01*
X83996Y225343D01*
X83952Y225314D01*
X83905Y225291D01*
X83856Y225274D01*
X83804Y225264D01*
X83752Y225261D01*
X82177D01*
X82125Y225264D01*
X82073Y225274D01*
X82024Y225291D01*
X81977Y225314D01*
X81933Y225343D01*
X81894Y225378D01*
X81859Y225417D01*
X81830Y225461D01*
X81807Y225508D01*
X81790Y225558D01*
X81783Y225590D01*
X81777Y225558D01*
X81760Y225508D01*
X81737Y225461D01*
X81708Y225417D01*
X81673Y225378D01*
X81634Y225343D01*
X81590Y225314D01*
X81543Y225291D01*
X81494Y225274D01*
X81442Y225264D01*
X81390Y225261D01*
X77059D01*
X77007Y225264D01*
X76955Y225274D01*
X76906Y225291D01*
X76859Y225314D01*
X76815Y225343D01*
X76776Y225378D01*
X76741Y225417D01*
X76712Y225461D01*
X76689Y225508D01*
X76672Y225558D01*
X76662Y225609D01*
X76658Y225661D01*
Y229205D01*
X76662Y229257D01*
X76672Y229309D01*
X76689Y229358D01*
X76712Y229405D01*
X76741Y229449D01*
X76776Y229488D01*
X76815Y229523D01*
X76859Y229552D01*
X76906Y229575D01*
X76955Y229592D01*
X77007Y229602D01*
X77059Y229606D01*
X78634D01*
X78686Y229602D01*
X78738Y229592D01*
X78787Y229575D01*
X78834Y229552D01*
X78878Y229523D01*
X78917Y229488D01*
X78952Y229449D01*
X78981Y229405D01*
X79004Y229358D01*
X79021Y229309D01*
X79027Y229276D01*
X79034Y229309D01*
X79051Y229358D01*
X79074Y229405D01*
X79103Y229449D01*
X79138Y229488D01*
X79177Y229523D01*
X79221Y229552D01*
X79268Y229575D01*
X79317Y229592D01*
X79369Y229602D01*
X79421Y229606D01*
X83752D01*
X83804Y229602D01*
D02*
G37*
G36*
X140564Y34760D02*
X140616Y34749D01*
X140665Y34733D01*
X140712Y34709D01*
X140756Y34680D01*
X140795Y34646D01*
X140830Y34606D01*
X140859Y34563D01*
X140882Y34516D01*
X140899Y34466D01*
X140909Y34414D01*
X140913Y34362D01*
Y30819D01*
X140909Y30767D01*
X140899Y30715D01*
X140882Y30665D01*
X140859Y30619D01*
X140830Y30575D01*
X140795Y30535D01*
X140756Y30501D01*
X140712Y30472D01*
X140665Y30449D01*
X140616Y30432D01*
X140564Y30422D01*
X140512Y30418D01*
X138937D01*
X138885Y30422D01*
X138833Y30432D01*
X138784Y30449D01*
X138737Y30472D01*
X138693Y30501D01*
X138654Y30535D01*
X138619Y30575D01*
X138590Y30619D01*
X138567Y30665D01*
X138550Y30715D01*
X138543Y30748D01*
X138537Y30715D01*
X138520Y30665D01*
X138497Y30619D01*
X138468Y30575D01*
X138433Y30535D01*
X138394Y30501D01*
X138350Y30472D01*
X138303Y30449D01*
X138253Y30432D01*
X138202Y30422D01*
X138150Y30418D01*
X133819D01*
X133767Y30422D01*
X133715Y30432D01*
X133666Y30449D01*
X133618Y30472D01*
X133575Y30501D01*
X133535Y30535D01*
X133501Y30575D01*
X133472Y30619D01*
X133449Y30665D01*
X133432Y30715D01*
X133422Y30767D01*
X133418Y30819D01*
Y34362D01*
X133422Y34414D01*
X133432Y34466D01*
X133449Y34516D01*
X133472Y34563D01*
X133501Y34606D01*
X133535Y34646D01*
X133575Y34680D01*
X133618Y34709D01*
X133666Y34733D01*
X133715Y34749D01*
X133767Y34760D01*
X133819Y34763D01*
X135394D01*
X135446Y34760D01*
X135497Y34749D01*
X135547Y34733D01*
X135594Y34709D01*
X135638Y34680D01*
X135677Y34646D01*
X135712Y34606D01*
X135741Y34563D01*
X135764Y34516D01*
X135781Y34466D01*
X135787Y34433D01*
X135794Y34466D01*
X135811Y34516D01*
X135834Y34563D01*
X135863Y34606D01*
X135898Y34646D01*
X135937Y34680D01*
X135981Y34709D01*
X136028Y34733D01*
X136077Y34749D01*
X136129Y34760D01*
X136181Y34763D01*
X140512D01*
X140564Y34760D01*
D02*
G37*
D43*
X8189Y12500D02*
D03*
X20000D02*
D03*
D44*
X10000Y380000D02*
D03*
X18500D02*
D03*
X172406Y365000D02*
D03*
X180906D02*
D03*
X174000Y385000D02*
D03*
X182500D02*
D03*
X196500Y387000D02*
D03*
X205000D02*
D03*
X196500Y373000D02*
D03*
X205000D02*
D03*
X196500Y359000D02*
D03*
X205000D02*
D03*
X82000Y341000D02*
D03*
X90500D02*
D03*
X74500Y316000D02*
D03*
X83000D02*
D03*
X205000Y261280D02*
D03*
X196500D02*
D03*
X181000Y277500D02*
D03*
X172500D02*
D03*
X203700Y214685D02*
D03*
X195200D02*
D03*
X196500Y7980D02*
D03*
X205000D02*
D03*
X146000Y22000D02*
D03*
X137500D02*
D03*
X77500Y20000D02*
D03*
X69000D02*
D03*
X34000Y30000D02*
D03*
X42500D02*
D03*
D45*
X116400Y359000D02*
D03*
X122000D02*
D03*
Y366000D02*
D03*
X116400D02*
D03*
X118400Y388000D02*
D03*
X124000D02*
D03*
X133400Y364032D02*
D03*
X139000D02*
D03*
X133400Y357000D02*
D03*
X139000D02*
D03*
X161220Y345000D02*
D03*
X155620D02*
D03*
X135000Y310000D02*
D03*
X129400D02*
D03*
X77400Y307000D02*
D03*
X83000D02*
D03*
Y288406D02*
D03*
X77400D02*
D03*
X178000Y287000D02*
D03*
X172400D02*
D03*
X200400Y276000D02*
D03*
X206000D02*
D03*
X179100Y261000D02*
D03*
X184700D02*
D03*
X205000Y251437D02*
D03*
X199400D02*
D03*
X205000Y223642D02*
D03*
X199400D02*
D03*
X58100Y252500D02*
D03*
X52500D02*
D03*
X72500Y244685D02*
D03*
X66900D02*
D03*
Y252500D02*
D03*
X72500D02*
D03*
X112400Y223000D02*
D03*
X118000D02*
D03*
X157500Y227500D02*
D03*
X151900D02*
D03*
X197500Y205000D02*
D03*
X203100D02*
D03*
X121900Y189000D02*
D03*
X127500D02*
D03*
X121900Y201614D02*
D03*
X127500D02*
D03*
X202500Y30000D02*
D03*
X196900D02*
D03*
X202500Y22500D02*
D03*
X196900D02*
D03*
X77500Y30000D02*
D03*
X71900D02*
D03*
X58100D02*
D03*
X52500D02*
D03*
D46*
X13000Y366000D02*
D03*
Y360400D02*
D03*
X71000Y329400D02*
D03*
Y335000D02*
D03*
X160000Y327400D02*
D03*
Y333000D02*
D03*
X90000Y284016D02*
D03*
Y289616D02*
D03*
X176256Y250592D02*
D03*
Y244992D02*
D03*
X87240Y237500D02*
D03*
Y243100D02*
D03*
X71900Y228843D02*
D03*
Y223243D02*
D03*
X66000Y193000D02*
D03*
Y187400D02*
D03*
Y179600D02*
D03*
Y174000D02*
D03*
X146000Y13000D02*
D03*
Y7400D02*
D03*
X137000D02*
D03*
Y13000D02*
D03*
X67500Y11984D02*
D03*
Y6384D02*
D03*
X77500D02*
D03*
Y11984D02*
D03*
D47*
X46386Y327669D02*
D03*
X45205Y332000D02*
D03*
X82500Y330000D02*
D03*
X83681Y325669D02*
D03*
X143681Y308169D02*
D03*
X142500Y312500D02*
D03*
X152500D02*
D03*
X153681Y308169D02*
D03*
D51*
X105000Y387500D02*
D03*
X93189D02*
D03*
X147441Y355000D02*
D03*
X159252D02*
D03*
X147441Y365000D02*
D03*
X159252D02*
D03*
X115811Y310000D02*
D03*
X104000D02*
D03*
D56*
X187500Y245846D02*
D03*
X207508Y245897D02*
D03*
X206500Y267746D02*
D03*
X200900Y267900D02*
D03*
X195200Y268202D02*
D03*
D57*
X34721Y342500D02*
D03*
X52437D02*
D03*
D94*
X153622Y237185D02*
D03*
X151654D02*
D03*
X149685D02*
D03*
X147717D02*
D03*
X145748D02*
D03*
X143780D02*
D03*
X141811D02*
D03*
X139843D02*
D03*
X137874D02*
D03*
X135906D02*
D03*
X133937D02*
D03*
X131969D02*
D03*
X130000D02*
D03*
X128032D02*
D03*
X126063D02*
D03*
X124094D02*
D03*
X122126D02*
D03*
X120157D02*
D03*
X118189D02*
D03*
X116220D02*
D03*
X114252D02*
D03*
X112283D02*
D03*
X110315D02*
D03*
X108346D02*
D03*
X106378D02*
D03*
Y297815D02*
D03*
X108346D02*
D03*
X110315D02*
D03*
X112283D02*
D03*
X114252D02*
D03*
X116220D02*
D03*
X118189D02*
D03*
X120157D02*
D03*
X122126D02*
D03*
X124094D02*
D03*
X126063D02*
D03*
X128032D02*
D03*
X130000D02*
D03*
X131969D02*
D03*
X133937D02*
D03*
X135906D02*
D03*
X137874D02*
D03*
X139843D02*
D03*
X141811D02*
D03*
X143780D02*
D03*
X145748D02*
D03*
X147717D02*
D03*
X149685D02*
D03*
X151654D02*
D03*
X153622D02*
D03*
D95*
X99685Y243878D02*
D03*
Y245846D02*
D03*
Y247815D02*
D03*
Y249783D02*
D03*
Y251752D02*
D03*
Y253720D02*
D03*
Y255689D02*
D03*
Y257657D02*
D03*
Y259626D02*
D03*
Y261594D02*
D03*
Y263563D02*
D03*
Y265532D02*
D03*
Y267500D02*
D03*
Y269469D02*
D03*
Y271437D02*
D03*
Y273406D02*
D03*
Y275374D02*
D03*
Y277343D02*
D03*
Y279311D02*
D03*
Y281280D02*
D03*
Y283248D02*
D03*
Y285217D02*
D03*
Y287185D02*
D03*
Y289154D02*
D03*
Y291122D02*
D03*
X160315D02*
D03*
Y289154D02*
D03*
Y287185D02*
D03*
Y285217D02*
D03*
Y283248D02*
D03*
Y281280D02*
D03*
Y279311D02*
D03*
Y277343D02*
D03*
Y275374D02*
D03*
Y273406D02*
D03*
Y271437D02*
D03*
Y269469D02*
D03*
Y267500D02*
D03*
Y265532D02*
D03*
Y263563D02*
D03*
Y261594D02*
D03*
Y259626D02*
D03*
Y257657D02*
D03*
Y255689D02*
D03*
Y253720D02*
D03*
Y251752D02*
D03*
Y249783D02*
D03*
Y247815D02*
D03*
Y245846D02*
D03*
Y243878D02*
D03*
D96*
X166043Y201614D02*
D03*
X168602D02*
D03*
X171161D02*
D03*
X173720D02*
D03*
X176280D02*
D03*
X178839D02*
D03*
X181398D02*
D03*
X183957D02*
D03*
X166043Y178386D02*
D03*
X168602D02*
D03*
X171161D02*
D03*
X173720D02*
D03*
X176280D02*
D03*
X178839D02*
D03*
X181398D02*
D03*
X183957D02*
D03*
X139016Y323386D02*
D03*
X136457D02*
D03*
X133898D02*
D03*
X131339D02*
D03*
X128780D02*
D03*
X126220D02*
D03*
X123661D02*
D03*
X121102D02*
D03*
X118543D02*
D03*
X115984D02*
D03*
X139016Y346614D02*
D03*
X136457D02*
D03*
X133898D02*
D03*
X131339D02*
D03*
X128780D02*
D03*
X126220D02*
D03*
X123661D02*
D03*
X121102D02*
D03*
X118543D02*
D03*
X115984D02*
D03*
D97*
X106968Y364811D02*
D03*
Y353000D02*
D03*
X144000Y388000D02*
D03*
Y376189D02*
D03*
X149409Y335000D02*
D03*
Y323189D02*
D03*
D98*
X113740Y373563D02*
D03*
Y375531D02*
D03*
Y377500D02*
D03*
Y379468D02*
D03*
Y381437D02*
D03*
X131260Y373563D02*
D03*
Y375531D02*
D03*
Y377500D02*
D03*
Y379468D02*
D03*
Y381437D02*
D03*
X53760Y16437D02*
D03*
Y14468D02*
D03*
Y12500D02*
D03*
Y10531D02*
D03*
Y8563D02*
D03*
X36240Y16437D02*
D03*
Y14468D02*
D03*
Y12500D02*
D03*
Y10531D02*
D03*
Y8563D02*
D03*
D99*
X122500Y377500D02*
D03*
X45000Y12500D02*
D03*
D100*
X22000Y353000D02*
D03*
X17669Y351819D02*
D03*
X152500Y377500D02*
D03*
X156831Y378681D02*
D03*
X106831Y328681D02*
D03*
X102500Y327500D02*
D03*
X106831Y321181D02*
D03*
X102500Y320000D02*
D03*
X79331Y296189D02*
D03*
X75000Y295008D02*
D03*
X82571Y228024D02*
D03*
X78240Y226843D02*
D03*
X139331Y33181D02*
D03*
X135000Y32000D02*
D03*
D101*
X20000Y332500D02*
D03*
Y339980D02*
D03*
X9370D02*
D03*
Y336240D02*
D03*
Y332500D02*
D03*
D102*
X36300Y332000D02*
D03*
X32000D02*
D03*
X57700D02*
D03*
X62000D02*
D03*
X130000Y227500D02*
D03*
X125700D02*
D03*
X189000Y236300D02*
D03*
X184700D02*
D03*
X189143Y225000D02*
D03*
X184843D02*
D03*
D103*
X92000Y352000D02*
D03*
Y375228D02*
D03*
D104*
X20374Y321102D02*
D03*
Y262047D02*
D03*
D105*
X59744Y319528D02*
D03*
D106*
Y262047D02*
D03*
D107*
X62500Y268346D02*
D03*
Y272677D02*
D03*
Y277008D02*
D03*
Y281339D02*
D03*
Y285669D02*
D03*
Y290000D02*
D03*
Y294331D02*
D03*
Y298661D02*
D03*
Y302992D02*
D03*
D108*
X92500Y322500D02*
D03*
Y331000D02*
D03*
X104000Y344500D02*
D03*
Y336000D02*
D03*
X162500Y306500D02*
D03*
Y315000D02*
D03*
X90000Y267500D02*
D03*
Y276000D02*
D03*
X175000Y295500D02*
D03*
Y304000D02*
D03*
X185000Y295500D02*
D03*
Y304000D02*
D03*
X195000Y295500D02*
D03*
Y304000D02*
D03*
X200000Y242185D02*
D03*
Y233685D02*
D03*
D109*
X170000Y346280D02*
D03*
X175000D02*
D03*
X180000D02*
D03*
X185000D02*
D03*
X190000D02*
D03*
X195000D02*
D03*
X200000D02*
D03*
X205000D02*
D03*
X170000Y318720D02*
D03*
X175000D02*
D03*
X180000D02*
D03*
X185000D02*
D03*
X190000D02*
D03*
X195000D02*
D03*
X200000D02*
D03*
X205000D02*
D03*
X77500Y213701D02*
D03*
X82500D02*
D03*
X87500D02*
D03*
X92500D02*
D03*
X97500D02*
D03*
X102500D02*
D03*
X107500D02*
D03*
X112500D02*
D03*
X77500Y176299D02*
D03*
X82500D02*
D03*
X87500D02*
D03*
X92500D02*
D03*
X97500D02*
D03*
X102500D02*
D03*
X107500D02*
D03*
X112500D02*
D03*
X155000Y178740D02*
D03*
X150000D02*
D03*
X145000D02*
D03*
X140000D02*
D03*
X155000Y200000D02*
D03*
X150000D02*
D03*
X145000D02*
D03*
X140000D02*
D03*
D110*
X76000Y276331D02*
D03*
Y267669D02*
D03*
X82000Y251339D02*
D03*
Y260000D02*
D03*
D111*
X203701Y290039D02*
D03*
Y305000D02*
D03*
X210000D02*
D03*
Y290039D02*
D03*
D112*
X135906Y225800D02*
D03*
Y230100D02*
D03*
D113*
X127500Y215000D02*
D03*
X164508D02*
D03*
D114*
X175000Y234843D02*
D03*
Y225000D02*
D03*
D115*
X204331Y178720D02*
D03*
X195669D02*
D03*
D116*
X200000Y192500D02*
D03*
D117*
X102382Y24122D02*
D03*
X104941D02*
D03*
X107500D02*
D03*
X110059D02*
D03*
X112618D02*
D03*
D118*
X91752Y13492D02*
D03*
X123248D02*
D03*
D119*
X37500Y249252D02*
D03*
Y180748D02*
D03*
D120*
X160968Y11021D02*
D03*
Y20076D02*
D03*
Y29131D02*
D03*
D121*
X184000Y20076D02*
D03*
M02*
