G04*
G04 #@! TF.GenerationSoftware,Altium Limited,Altium Designer,19.0.12 (326)*
G04*
G04 Layer_Color=128*
%FSLAX25Y25*%
%MOIN*%
G70*
G01*
G75*
%ADD26R,0.04724X0.11811*%
%ADD27R,0.04500X0.05400*%
%ADD28R,0.03100X0.03800*%
%ADD29R,0.03800X0.03100*%
%ADD30R,0.01968X0.01968*%
%ADD34R,0.04724X0.05118*%
%ADD65R,0.01181X0.05906*%
%ADD66R,0.05906X0.01181*%
%ADD67R,0.01772X0.05906*%
%ADD68R,0.05118X0.04724*%
%ADD69R,0.05315X0.01181*%
%ADD70R,0.06299X0.07874*%
%ADD71R,0.01968X0.01968*%
%ADD72R,0.03937X0.02362*%
%ADD73R,0.02000X0.02500*%
%ADD74R,0.09843X0.06693*%
%ADD75R,0.09843X0.05906*%
%ADD76R,0.05906X0.06693*%
%ADD77R,0.06693X0.05906*%
%ADD78R,0.06299X0.02756*%
%ADD79R,0.05400X0.04500*%
%ADD80R,0.02756X0.07874*%
%ADD81R,0.01575X0.02756*%
%ADD82R,0.03937X0.04724*%
%ADD83R,0.02500X0.02000*%
%ADD84R,0.15748X0.04724*%
%ADD85R,0.06693X0.03937*%
%ADD86R,0.04724X0.04724*%
%ADD87R,0.06299X0.06299*%
%ADD88R,0.01575X0.05512*%
%ADD89R,0.07874X0.07874*%
%ADD90R,0.11811X0.15748*%
%ADD91R,0.08465X0.03937*%
%ADD92R,0.08465X0.12992*%
D26*
X8189Y12500D02*
D03*
X20000D02*
D03*
D27*
X10000Y380000D02*
D03*
X18500D02*
D03*
X172406Y365000D02*
D03*
X180906D02*
D03*
X174000Y385000D02*
D03*
X182500D02*
D03*
X196500Y387000D02*
D03*
X205000D02*
D03*
X196500Y373000D02*
D03*
X205000D02*
D03*
X196500Y359000D02*
D03*
X205000D02*
D03*
X82000Y341000D02*
D03*
X90500D02*
D03*
X74500Y316000D02*
D03*
X83000D02*
D03*
X205000Y261280D02*
D03*
X196500D02*
D03*
X181000Y277500D02*
D03*
X172500D02*
D03*
X203700Y214685D02*
D03*
X195200D02*
D03*
X196500Y7980D02*
D03*
X205000D02*
D03*
X146000Y22000D02*
D03*
X137500D02*
D03*
X77500Y20000D02*
D03*
X69000D02*
D03*
X34000Y30000D02*
D03*
X42500D02*
D03*
D28*
X116400Y359000D02*
D03*
X122000D02*
D03*
Y366000D02*
D03*
X116400D02*
D03*
X118400Y388000D02*
D03*
X124000D02*
D03*
X133400Y364032D02*
D03*
X139000D02*
D03*
X133400Y357000D02*
D03*
X139000D02*
D03*
X161220Y345000D02*
D03*
X155620D02*
D03*
X135000Y310000D02*
D03*
X129400D02*
D03*
X77400Y307000D02*
D03*
X83000D02*
D03*
Y288406D02*
D03*
X77400D02*
D03*
X178000Y287000D02*
D03*
X172400D02*
D03*
X200400Y276000D02*
D03*
X206000D02*
D03*
X179100Y261000D02*
D03*
X184700D02*
D03*
X205000Y251437D02*
D03*
X199400D02*
D03*
X205000Y223642D02*
D03*
X199400D02*
D03*
X58100Y252500D02*
D03*
X52500D02*
D03*
X72500Y244685D02*
D03*
X66900D02*
D03*
Y252500D02*
D03*
X72500D02*
D03*
X112400Y223000D02*
D03*
X118000D02*
D03*
X157500Y227500D02*
D03*
X151900D02*
D03*
X197500Y205000D02*
D03*
X203100D02*
D03*
X121900Y189000D02*
D03*
X127500D02*
D03*
X121900Y201614D02*
D03*
X127500D02*
D03*
X202500Y30000D02*
D03*
X196900D02*
D03*
X202500Y22500D02*
D03*
X196900D02*
D03*
X77500Y30000D02*
D03*
X71900D02*
D03*
X58100D02*
D03*
X52500D02*
D03*
D29*
X13000Y366000D02*
D03*
Y360400D02*
D03*
X71000Y329400D02*
D03*
Y335000D02*
D03*
X160000Y327400D02*
D03*
Y333000D02*
D03*
X90000Y284016D02*
D03*
Y289616D02*
D03*
X176256Y250592D02*
D03*
Y244992D02*
D03*
X87240Y237500D02*
D03*
Y243100D02*
D03*
X71900Y228843D02*
D03*
Y223243D02*
D03*
X66000Y193000D02*
D03*
Y187400D02*
D03*
Y179600D02*
D03*
Y174000D02*
D03*
X146000Y13000D02*
D03*
Y7400D02*
D03*
X137000D02*
D03*
Y13000D02*
D03*
X67500Y11984D02*
D03*
Y6384D02*
D03*
X77500D02*
D03*
Y11984D02*
D03*
D30*
X46386Y327669D02*
D03*
X45205Y332000D02*
D03*
X82500Y330000D02*
D03*
X83681Y325669D02*
D03*
X143681Y308169D02*
D03*
X142500Y312500D02*
D03*
X152500D02*
D03*
X153681Y308169D02*
D03*
D34*
X105000Y387500D02*
D03*
X93189D02*
D03*
X147441Y355000D02*
D03*
X159252D02*
D03*
X147441Y365000D02*
D03*
X159252D02*
D03*
X115811Y310000D02*
D03*
X104000D02*
D03*
D65*
X153622Y237185D02*
D03*
X151654D02*
D03*
X149685D02*
D03*
X147717D02*
D03*
X145748D02*
D03*
X143780D02*
D03*
X141811D02*
D03*
X139843D02*
D03*
X137874D02*
D03*
X135906D02*
D03*
X133937D02*
D03*
X131969D02*
D03*
X130000D02*
D03*
X128032D02*
D03*
X126063D02*
D03*
X124094D02*
D03*
X122126D02*
D03*
X120157D02*
D03*
X118189D02*
D03*
X116220D02*
D03*
X114252D02*
D03*
X112283D02*
D03*
X110315D02*
D03*
X108346D02*
D03*
X106378D02*
D03*
Y297815D02*
D03*
X108346D02*
D03*
X110315D02*
D03*
X112283D02*
D03*
X114252D02*
D03*
X116220D02*
D03*
X118189D02*
D03*
X120157D02*
D03*
X122126D02*
D03*
X124094D02*
D03*
X126063D02*
D03*
X128032D02*
D03*
X130000D02*
D03*
X131969D02*
D03*
X133937D02*
D03*
X135906D02*
D03*
X137874D02*
D03*
X139843D02*
D03*
X141811D02*
D03*
X143780D02*
D03*
X145748D02*
D03*
X147717D02*
D03*
X149685D02*
D03*
X151654D02*
D03*
X153622D02*
D03*
D66*
X99685Y243878D02*
D03*
Y245846D02*
D03*
Y247815D02*
D03*
Y249783D02*
D03*
Y251752D02*
D03*
Y253720D02*
D03*
Y255689D02*
D03*
Y257657D02*
D03*
Y259626D02*
D03*
Y261594D02*
D03*
Y263563D02*
D03*
Y265532D02*
D03*
Y267500D02*
D03*
Y269469D02*
D03*
Y271437D02*
D03*
Y273406D02*
D03*
Y275374D02*
D03*
Y277343D02*
D03*
Y279311D02*
D03*
Y281280D02*
D03*
Y283248D02*
D03*
Y285217D02*
D03*
Y287185D02*
D03*
Y289154D02*
D03*
Y291122D02*
D03*
X160315D02*
D03*
Y289154D02*
D03*
Y287185D02*
D03*
Y285217D02*
D03*
Y283248D02*
D03*
Y281280D02*
D03*
Y279311D02*
D03*
Y277343D02*
D03*
Y275374D02*
D03*
Y273406D02*
D03*
Y271437D02*
D03*
Y269469D02*
D03*
Y267500D02*
D03*
Y265532D02*
D03*
Y263563D02*
D03*
Y261594D02*
D03*
Y259626D02*
D03*
Y257657D02*
D03*
Y255689D02*
D03*
Y253720D02*
D03*
Y251752D02*
D03*
Y249783D02*
D03*
Y247815D02*
D03*
Y245846D02*
D03*
Y243878D02*
D03*
D67*
X166043Y201614D02*
D03*
X168602D02*
D03*
X171161D02*
D03*
X173720D02*
D03*
X176280D02*
D03*
X178839D02*
D03*
X181398D02*
D03*
X183957D02*
D03*
X166043Y178386D02*
D03*
X168602D02*
D03*
X171161D02*
D03*
X173720D02*
D03*
X176280D02*
D03*
X178839D02*
D03*
X181398D02*
D03*
X183957D02*
D03*
X139016Y323386D02*
D03*
X136457D02*
D03*
X133898D02*
D03*
X131339D02*
D03*
X128780D02*
D03*
X126220D02*
D03*
X123661D02*
D03*
X121102D02*
D03*
X118543D02*
D03*
X115984D02*
D03*
X139016Y346614D02*
D03*
X136457D02*
D03*
X133898D02*
D03*
X131339D02*
D03*
X128780D02*
D03*
X126220D02*
D03*
X123661D02*
D03*
X121102D02*
D03*
X118543D02*
D03*
X115984D02*
D03*
D68*
X106968Y364811D02*
D03*
Y353000D02*
D03*
X144000Y388000D02*
D03*
Y376189D02*
D03*
X149409Y335000D02*
D03*
Y323189D02*
D03*
D69*
X113740Y373563D02*
D03*
Y375531D02*
D03*
Y377500D02*
D03*
Y379468D02*
D03*
Y381437D02*
D03*
X131260Y373563D02*
D03*
Y375531D02*
D03*
Y377500D02*
D03*
Y379468D02*
D03*
Y381437D02*
D03*
X53760Y16437D02*
D03*
Y14468D02*
D03*
Y12500D02*
D03*
Y10531D02*
D03*
Y8563D02*
D03*
X36240Y16437D02*
D03*
Y14468D02*
D03*
Y12500D02*
D03*
Y10531D02*
D03*
Y8563D02*
D03*
D70*
X122500Y377500D02*
D03*
X45000Y12500D02*
D03*
D71*
X22000Y353000D02*
D03*
X17669Y351819D02*
D03*
X152500Y377500D02*
D03*
X156831Y378681D02*
D03*
X106831Y328681D02*
D03*
X102500Y327500D02*
D03*
X106831Y321181D02*
D03*
X102500Y320000D02*
D03*
X79331Y296189D02*
D03*
X75000Y295008D02*
D03*
X82571Y228024D02*
D03*
X78240Y226843D02*
D03*
X139331Y33181D02*
D03*
X135000Y32000D02*
D03*
D72*
X20000Y332500D02*
D03*
Y339980D02*
D03*
X9370D02*
D03*
Y336240D02*
D03*
Y332500D02*
D03*
D73*
X36300Y332000D02*
D03*
X32000D02*
D03*
X57700D02*
D03*
X62000D02*
D03*
X130000Y227500D02*
D03*
X125700D02*
D03*
X189000Y236300D02*
D03*
X184700D02*
D03*
X189143Y225000D02*
D03*
X184843D02*
D03*
D74*
X92000Y352000D02*
D03*
Y375228D02*
D03*
D75*
X20374Y321102D02*
D03*
Y262047D02*
D03*
D76*
X59744Y319528D02*
D03*
D77*
Y262047D02*
D03*
D78*
X62500Y268346D02*
D03*
Y272677D02*
D03*
Y277008D02*
D03*
Y281339D02*
D03*
Y285669D02*
D03*
Y290000D02*
D03*
Y294331D02*
D03*
Y298661D02*
D03*
Y302992D02*
D03*
D79*
X92500Y322500D02*
D03*
Y331000D02*
D03*
X104000Y344500D02*
D03*
Y336000D02*
D03*
X162500Y306500D02*
D03*
Y315000D02*
D03*
X90000Y267500D02*
D03*
Y276000D02*
D03*
X175000Y295500D02*
D03*
Y304000D02*
D03*
X185000Y295500D02*
D03*
Y304000D02*
D03*
X195000Y295500D02*
D03*
Y304000D02*
D03*
X200000Y242185D02*
D03*
Y233685D02*
D03*
D80*
X170000Y346280D02*
D03*
X175000D02*
D03*
X180000D02*
D03*
X185000D02*
D03*
X190000D02*
D03*
X195000D02*
D03*
X200000D02*
D03*
X205000D02*
D03*
X170000Y318720D02*
D03*
X175000D02*
D03*
X180000D02*
D03*
X185000D02*
D03*
X190000D02*
D03*
X195000D02*
D03*
X200000D02*
D03*
X205000D02*
D03*
X77500Y213701D02*
D03*
X82500D02*
D03*
X87500D02*
D03*
X92500D02*
D03*
X97500D02*
D03*
X102500D02*
D03*
X107500D02*
D03*
X112500D02*
D03*
X77500Y176299D02*
D03*
X82500D02*
D03*
X87500D02*
D03*
X92500D02*
D03*
X97500D02*
D03*
X102500D02*
D03*
X107500D02*
D03*
X112500D02*
D03*
X155000Y178740D02*
D03*
X150000D02*
D03*
X145000D02*
D03*
X140000D02*
D03*
X155000Y200000D02*
D03*
X150000D02*
D03*
X145000D02*
D03*
X140000D02*
D03*
D81*
X76000Y276331D02*
D03*
Y267669D02*
D03*
X82000Y251339D02*
D03*
Y260000D02*
D03*
D82*
X203701Y290039D02*
D03*
Y305000D02*
D03*
X210000D02*
D03*
Y290039D02*
D03*
D83*
X135906Y225800D02*
D03*
Y230100D02*
D03*
D84*
X127500Y215000D02*
D03*
X164508D02*
D03*
D85*
X175000Y234843D02*
D03*
Y225000D02*
D03*
D86*
X204331Y178720D02*
D03*
X195669D02*
D03*
D87*
X200000Y192500D02*
D03*
D88*
X102382Y24122D02*
D03*
X104941D02*
D03*
X107500D02*
D03*
X110059D02*
D03*
X112618D02*
D03*
D89*
X91752Y13492D02*
D03*
X123248D02*
D03*
D90*
X37500Y249252D02*
D03*
Y180748D02*
D03*
D91*
X160968Y11021D02*
D03*
Y20076D02*
D03*
Y29131D02*
D03*
D92*
X184000Y20076D02*
D03*
M02*
