G04*
G04 #@! TF.GenerationSoftware,Altium Limited,Altium Designer,19.0.12 (326)*
G04*
G04 Layer_Color=4408131*
%FSLAX25Y25*%
%MOIN*%
G70*
G01*
G75*
%ADD39R,0.06706X0.12611*%
%ADD40R,0.08674X0.04737*%
%ADD41R,0.01800X0.05524*%
%ADD42R,0.08674X0.03950*%
%ADD43R,0.05524X0.12611*%
%ADD44R,0.05300X0.06200*%
%ADD45R,0.03900X0.04600*%
%ADD46R,0.04600X0.03900*%
%ADD47R,0.02769X0.02769*%
%ADD48R,0.08674X0.03556*%
%ADD49R,0.05524X0.05524*%
%ADD50R,0.07099X0.07099*%
%ADD51R,0.05524X0.05918*%
%ADD52R,0.03950X0.04540*%
%ADD53R,0.03950X0.08674*%
%ADD54R,0.07493X0.10642*%
%ADD55R,0.07099X0.03950*%
G04:AMPARAMS|DCode=56|XSize=47.37mil|YSize=47.37mil|CornerRadius=0mil|HoleSize=0mil|Usage=FLASHONLY|Rotation=0.000|XOffset=0mil|YOffset=0mil|HoleType=Round|Shape=Octagon|*
%AMOCTAGOND56*
4,1,8,0.02368,-0.01184,0.02368,0.01184,0.01184,0.02368,-0.01184,0.02368,-0.02368,0.01184,-0.02368,-0.01184,-0.01184,-0.02368,0.01184,-0.02368,0.02368,-0.01184,0.0*
%
%ADD56OCTAGOND56*%

%ADD57C,0.06706*%
G36*
X79914Y128409D02*
X79966Y128399D01*
X80015Y128382D01*
X80063Y128359D01*
X80106Y128330D01*
X80146Y128295D01*
X80180Y128256D01*
X80209Y128212D01*
X80233Y128165D01*
X80249Y128116D01*
X80260Y128064D01*
X80263Y128012D01*
Y123681D01*
X80260Y123629D01*
X80249Y123577D01*
X80233Y123528D01*
X80209Y123481D01*
X80180Y123437D01*
X80146Y123398D01*
X80106Y123363D01*
X80063Y123334D01*
X80015Y123311D01*
X79966Y123294D01*
X79933Y123287D01*
X79966Y123281D01*
X80015Y123264D01*
X80063Y123241D01*
X80106Y123212D01*
X80146Y123177D01*
X80180Y123138D01*
X80209Y123094D01*
X80233Y123047D01*
X80249Y122997D01*
X80260Y122946D01*
X80263Y122894D01*
Y121319D01*
X80260Y121267D01*
X80249Y121215D01*
X80233Y121166D01*
X80209Y121119D01*
X80180Y121075D01*
X80146Y121036D01*
X80106Y121001D01*
X80063Y120972D01*
X80015Y120949D01*
X79966Y120932D01*
X79914Y120922D01*
X79862Y120918D01*
X76319D01*
X76266Y120922D01*
X76215Y120932D01*
X76165Y120949D01*
X76118Y120972D01*
X76075Y121001D01*
X76035Y121036D01*
X76001Y121075D01*
X75972Y121119D01*
X75949Y121166D01*
X75932Y121215D01*
X75921Y121267D01*
X75918Y121319D01*
Y125650D01*
X75921Y125702D01*
X75932Y125753D01*
X75949Y125803D01*
X75972Y125850D01*
X76001Y125894D01*
X76035Y125933D01*
X76075Y125968D01*
X76118Y125997D01*
X76165Y126020D01*
X76215Y126037D01*
X76248Y126043D01*
X76215Y126050D01*
X76165Y126067D01*
X76118Y126090D01*
X76075Y126119D01*
X76035Y126154D01*
X76001Y126193D01*
X75972Y126237D01*
X75949Y126284D01*
X75932Y126333D01*
X75921Y126385D01*
X75918Y126437D01*
Y128012D01*
X75921Y128064D01*
X75932Y128116D01*
X75949Y128165D01*
X75972Y128212D01*
X76001Y128256D01*
X76035Y128295D01*
X76075Y128330D01*
X76118Y128359D01*
X76165Y128382D01*
X76215Y128399D01*
X76266Y128409D01*
X76319Y128413D01*
X79862D01*
X79914Y128409D01*
D02*
G37*
G36*
X139915Y92102D02*
X139966Y92092D01*
X140016Y92075D01*
X140063Y92052D01*
X140106Y92023D01*
X140146Y91988D01*
X140180Y91949D01*
X140209Y91905D01*
X140233Y91858D01*
X140250Y91809D01*
X140260Y91757D01*
X140263Y91705D01*
Y87374D01*
X140260Y87322D01*
X140250Y87270D01*
X140233Y87221D01*
X140209Y87174D01*
X140180Y87130D01*
X140146Y87091D01*
X140106Y87056D01*
X140063Y87027D01*
X140016Y87004D01*
X139966Y86987D01*
X139933Y86980D01*
X139966Y86974D01*
X140016Y86957D01*
X140063Y86934D01*
X140106Y86905D01*
X140146Y86870D01*
X140180Y86831D01*
X140209Y86787D01*
X140233Y86740D01*
X140250Y86690D01*
X140260Y86639D01*
X140263Y86587D01*
Y85012D01*
X140260Y84960D01*
X140250Y84908D01*
X140233Y84859D01*
X140209Y84812D01*
X140180Y84768D01*
X140146Y84728D01*
X140106Y84694D01*
X140063Y84665D01*
X140016Y84642D01*
X139966Y84625D01*
X139915Y84615D01*
X139862Y84611D01*
X136319D01*
X136267Y84615D01*
X136215Y84625D01*
X136166Y84642D01*
X136119Y84665D01*
X136075Y84694D01*
X136036Y84728D01*
X136001Y84768D01*
X135972Y84812D01*
X135949Y84859D01*
X135932Y84908D01*
X135922Y84960D01*
X135918Y85012D01*
Y89343D01*
X135922Y89395D01*
X135932Y89447D01*
X135949Y89496D01*
X135972Y89543D01*
X136001Y89587D01*
X136036Y89626D01*
X136075Y89661D01*
X136119Y89690D01*
X136166Y89713D01*
X136215Y89730D01*
X136248Y89736D01*
X136215Y89743D01*
X136166Y89760D01*
X136119Y89783D01*
X136075Y89812D01*
X136036Y89847D01*
X136001Y89886D01*
X135972Y89930D01*
X135949Y89977D01*
X135932Y90026D01*
X135922Y90078D01*
X135918Y90130D01*
Y91705D01*
X135922Y91757D01*
X135932Y91809D01*
X135949Y91858D01*
X135972Y91905D01*
X136001Y91949D01*
X136036Y91988D01*
X136075Y92023D01*
X136119Y92052D01*
X136166Y92075D01*
X136215Y92092D01*
X136267Y92102D01*
X136319Y92106D01*
X139862D01*
X139915Y92102D01*
D02*
G37*
D39*
X86000Y379000D02*
D03*
D40*
X46000Y351000D02*
D03*
X63000D02*
D03*
X74000D02*
D03*
D41*
X192654Y105000D02*
D03*
X190685D02*
D03*
X188717D02*
D03*
X186748D02*
D03*
X184780D02*
D03*
X182811D02*
D03*
X180843D02*
D03*
X178874D02*
D03*
X176906D02*
D03*
X174937D02*
D03*
X172969D02*
D03*
X171000D02*
D03*
X169031D02*
D03*
X167063D02*
D03*
X165094D02*
D03*
X163126D02*
D03*
X161157D02*
D03*
X159189D02*
D03*
X157220D02*
D03*
X155252D02*
D03*
X153283D02*
D03*
X151315D02*
D03*
X149346D02*
D03*
X147378D02*
D03*
D42*
X150000Y80000D02*
D03*
Y62283D02*
D03*
X183465D02*
D03*
Y80000D02*
D03*
X32500D02*
D03*
Y62283D02*
D03*
X65965D02*
D03*
Y80000D02*
D03*
X90000Y120000D02*
D03*
Y102283D02*
D03*
X123465D02*
D03*
Y120000D02*
D03*
X90000Y80000D02*
D03*
Y62283D02*
D03*
X123465D02*
D03*
Y80000D02*
D03*
X90000Y35000D02*
D03*
Y17283D02*
D03*
X123465D02*
D03*
Y35000D02*
D03*
D43*
X22500Y125000D02*
D03*
X10689D02*
D03*
D44*
X67900Y101831D02*
D03*
X59400D02*
D03*
X41000Y135000D02*
D03*
X32500D02*
D03*
D45*
X63400Y92500D02*
D03*
X69000D02*
D03*
X71900Y135000D02*
D03*
X77500D02*
D03*
X10000Y87500D02*
D03*
X15600D02*
D03*
X101600Y129803D02*
D03*
X96000D02*
D03*
X185000Y96000D02*
D03*
X190600D02*
D03*
X123100Y45000D02*
D03*
X117500D02*
D03*
X155285Y52500D02*
D03*
X149685D02*
D03*
X95600D02*
D03*
X90000D02*
D03*
X38100D02*
D03*
X32500D02*
D03*
X197500Y280000D02*
D03*
X191900D02*
D03*
X187500Y380000D02*
D03*
X181900D02*
D03*
Y387500D02*
D03*
X187500D02*
D03*
D46*
X77500Y94400D02*
D03*
Y100000D02*
D03*
Y109400D02*
D03*
Y115000D02*
D03*
X32500Y120000D02*
D03*
Y125600D02*
D03*
X147500Y380000D02*
D03*
Y385600D02*
D03*
D47*
X77500Y122500D02*
D03*
X78681Y126831D02*
D03*
X138681Y90524D02*
D03*
X137500Y86193D02*
D03*
D48*
X44970Y125000D02*
D03*
Y120000D02*
D03*
Y115000D02*
D03*
Y110000D02*
D03*
X66230Y125000D02*
D03*
Y120000D02*
D03*
Y115000D02*
D03*
Y110000D02*
D03*
D49*
X34721Y101831D02*
D03*
Y93169D02*
D03*
D50*
X48500Y97500D02*
D03*
D51*
X22500D02*
D03*
X10689D02*
D03*
D52*
X200000Y75276D02*
D03*
X196063Y84724D02*
D03*
X203937D02*
D03*
D53*
X202717Y323465D02*
D03*
X185000D02*
D03*
Y290000D02*
D03*
X202717D02*
D03*
D54*
X109272Y385200D02*
D03*
X132500D02*
D03*
D55*
X170276Y380000D02*
D03*
Y385906D02*
D03*
X157283D02*
D03*
Y380000D02*
D03*
D56*
X187500Y245846D02*
D03*
X207508Y245897D02*
D03*
X206500Y267746D02*
D03*
X200900Y267900D02*
D03*
X195200Y268202D02*
D03*
D57*
X34721Y342500D02*
D03*
X52437D02*
D03*
M02*
