%TF.GenerationSoftware,Altium Limited,Altium Designer,19.0.12 (326)*%
G04 Layer_Color=16711935*
%FSLAX26Y26*%
%MOIN*%
%TF.FileFunction,Soldermask,Bot*%
%TF.Part,Single*%
G01*
G75*
%TA.AperFunction,SMDPad,CuDef*%
%ADD86R,0.019811X0.067055*%
%ADD87R,0.067055X0.019811*%
%ADD88R,0.025716X0.067055*%
%ADD89R,0.039000X0.046000*%
%ADD90R,0.059181X0.055244*%
%ADD91R,0.061150X0.019811*%
%ADD92R,0.070992X0.086740*%
%ADD93R,0.053000X0.062000*%
%ADD94R,0.046000X0.039000*%
%ADD95R,0.027685X0.027685*%
%ADD96R,0.047370X0.031622*%
%ADD97R,0.028000X0.033000*%
%ADD98R,0.027685X0.027685*%
%ADD99R,0.055244X0.059181*%
%ADD100R,0.106425X0.074929*%
%ADD101R,0.106425X0.067055*%
%ADD102R,0.067055X0.074929*%
%ADD103R,0.074929X0.067055*%
%ADD104R,0.070992X0.035559*%
%ADD105R,0.062000X0.053000*%
%ADD106R,0.035559X0.086740*%
%ADD107R,0.023748X0.035559*%
%ADD108R,0.047370X0.055244*%
%ADD109R,0.033000X0.028000*%
%ADD110R,0.165480X0.055244*%
%ADD111R,0.074929X0.047370*%
%ADD112R,0.055244X0.055244*%
%ADD113R,0.070992X0.070992*%
%TA.AperFunction,ConnectorPad*%
%ADD114R,0.023748X0.063118*%
%TA.AperFunction,SMDPad,CuDef*%
%ADD115R,0.086740X0.086740*%
%ADD116R,0.055244X0.126110*%
%ADD117R,0.126110X0.165480*%
%ADD118R,0.092646X0.047370*%
%ADD119R,0.092646X0.137921*%
%TA.AperFunction,ViaPad*%
G04:AMPARAMS|DCode=120|XSize=47.37mil|YSize=47.37mil|CornerRadius=0mil|HoleSize=0mil|Usage=FLASHONLY|Rotation=0.000|XOffset=0mil|YOffset=0mil|HoleType=Round|Shape=Octagon|*
%AMOCTAGOND120*
4,1,8,0.023685,-0.011842,0.023685,0.011842,0.011843,0.023685,-0.011843,0.023685,-0.023685,0.011842,-0.023685,-0.011842,-0.011843,-0.023685,0.011843,-0.023685,0.023685,-0.011842,0.0*
%
%ADD120OCTAGOND120*%

%TA.AperFunction,ComponentPad*%
%ADD121C,0.067055*%
G36*
X1580641Y3802596D02*
X1581156Y3802494D01*
X1581652Y3802326D01*
X1582122Y3802094D01*
X1582558Y3801802D01*
X1582953Y3801457D01*
X1583298Y3801062D01*
X1583590Y3800626D01*
X1583822Y3800156D01*
X1583990Y3799660D01*
X1584092Y3799145D01*
X1584127Y3798622D01*
Y3763189D01*
X1584092Y3762666D01*
X1583990Y3762151D01*
X1583822Y3761655D01*
X1583590Y3761185D01*
X1583298Y3760749D01*
X1582953Y3760354D01*
X1582558Y3760009D01*
X1582122Y3759718D01*
X1581652Y3759485D01*
X1581156Y3759317D01*
X1580641Y3759215D01*
X1580118Y3759180D01*
X1564370D01*
X1563847Y3759215D01*
X1563333Y3759317D01*
X1562836Y3759485D01*
X1562366Y3759718D01*
X1561930Y3760009D01*
X1561536Y3760354D01*
X1561190Y3760749D01*
X1560899Y3761185D01*
X1560667Y3761655D01*
X1560498Y3762151D01*
X1560433Y3762478D01*
X1560368Y3762151D01*
X1560200Y3761655D01*
X1559968Y3761185D01*
X1559676Y3760749D01*
X1559331Y3760354D01*
X1558936Y3760009D01*
X1558500Y3759718D01*
X1558030Y3759485D01*
X1557534Y3759317D01*
X1557019Y3759215D01*
X1556496Y3759180D01*
X1513189D01*
X1512666Y3759215D01*
X1512151Y3759317D01*
X1511655Y3759485D01*
X1511185Y3759718D01*
X1510749Y3760009D01*
X1510354Y3760354D01*
X1510009Y3760749D01*
X1509717Y3761185D01*
X1509486Y3761655D01*
X1509317Y3762151D01*
X1509215Y3762666D01*
X1509180Y3763189D01*
Y3798622D01*
X1509215Y3799145D01*
X1509317Y3799660D01*
X1509486Y3800156D01*
X1509717Y3800626D01*
X1510009Y3801062D01*
X1510354Y3801457D01*
X1510749Y3801802D01*
X1511185Y3802094D01*
X1511655Y3802326D01*
X1512151Y3802494D01*
X1512666Y3802596D01*
X1513189Y3802631D01*
X1528937D01*
X1529460Y3802596D01*
X1529975Y3802494D01*
X1530471Y3802326D01*
X1530941Y3802094D01*
X1531377Y3801802D01*
X1531772Y3801457D01*
X1532117Y3801062D01*
X1532409Y3800626D01*
X1532640Y3800156D01*
X1532809Y3799660D01*
X1532874Y3799333D01*
X1532939Y3799660D01*
X1533108Y3800156D01*
X1533340Y3800626D01*
X1533631Y3801062D01*
X1533976Y3801457D01*
X1534371Y3801802D01*
X1534807Y3802094D01*
X1535277Y3802326D01*
X1535774Y3802494D01*
X1536288Y3802596D01*
X1536811Y3802631D01*
X1580118D01*
X1580641Y3802596D01*
D02*
G37*
G36*
X232334Y3545785D02*
X232849Y3545683D01*
X233345Y3545515D01*
X233815Y3545282D01*
X234251Y3544991D01*
X234645Y3544646D01*
X234991Y3544251D01*
X235282Y3543815D01*
X235514Y3543345D01*
X235683Y3542849D01*
X235785Y3542334D01*
X235820Y3541811D01*
Y3506378D01*
X235785Y3505855D01*
X235683Y3505340D01*
X235514Y3504844D01*
X235282Y3504374D01*
X234991Y3503938D01*
X234645Y3503543D01*
X234251Y3503198D01*
X233815Y3502906D01*
X233345Y3502674D01*
X232849Y3502506D01*
X232334Y3502404D01*
X231811Y3502369D01*
X216063D01*
X215540Y3502404D01*
X215025Y3502506D01*
X214529Y3502674D01*
X214059Y3502906D01*
X213623Y3503198D01*
X213228Y3503543D01*
X212883Y3503938D01*
X212591Y3504374D01*
X212359Y3504844D01*
X212191Y3505340D01*
X212126Y3505667D01*
X212061Y3505340D01*
X211893Y3504844D01*
X211661Y3504374D01*
X211369Y3503938D01*
X211024Y3503543D01*
X210629Y3503198D01*
X210193Y3502906D01*
X209723Y3502674D01*
X209226Y3502506D01*
X208712Y3502404D01*
X208189Y3502369D01*
X164882D01*
X164359Y3502404D01*
X163844Y3502506D01*
X163348Y3502674D01*
X162878Y3502906D01*
X162442Y3503198D01*
X162047Y3503543D01*
X161702Y3503938D01*
X161410Y3504374D01*
X161178Y3504844D01*
X161010Y3505340D01*
X160908Y3505855D01*
X160873Y3506378D01*
Y3541811D01*
X160908Y3542334D01*
X161010Y3542849D01*
X161178Y3543345D01*
X161410Y3543815D01*
X161702Y3544251D01*
X162047Y3544646D01*
X162442Y3544991D01*
X162878Y3545282D01*
X163348Y3545515D01*
X163844Y3545683D01*
X164359Y3545785D01*
X164882Y3545820D01*
X180630D01*
X181153Y3545785D01*
X181667Y3545683D01*
X182164Y3545515D01*
X182634Y3545282D01*
X183070Y3544991D01*
X183464Y3544646D01*
X183810Y3544251D01*
X184101Y3543815D01*
X184333Y3543345D01*
X184502Y3542849D01*
X184567Y3542522D01*
X184632Y3542849D01*
X184800Y3543345D01*
X185032Y3543815D01*
X185324Y3544251D01*
X185669Y3544646D01*
X186064Y3544991D01*
X186500Y3545282D01*
X186970Y3545515D01*
X187466Y3545683D01*
X187981Y3545785D01*
X188504Y3545820D01*
X231811D01*
X232334Y3545785D01*
D02*
G37*
G36*
X1080641Y3302596D02*
X1081156Y3302494D01*
X1081652Y3302326D01*
X1082122Y3302094D01*
X1082558Y3301802D01*
X1082953Y3301457D01*
X1083298Y3301062D01*
X1083590Y3300626D01*
X1083822Y3300156D01*
X1083990Y3299660D01*
X1084092Y3299145D01*
X1084127Y3298622D01*
Y3263189D01*
X1084092Y3262666D01*
X1083990Y3262151D01*
X1083822Y3261655D01*
X1083590Y3261185D01*
X1083298Y3260749D01*
X1082953Y3260354D01*
X1082558Y3260009D01*
X1082122Y3259718D01*
X1081652Y3259485D01*
X1081156Y3259317D01*
X1080641Y3259215D01*
X1080118Y3259180D01*
X1064370D01*
X1063847Y3259215D01*
X1063333Y3259317D01*
X1062836Y3259485D01*
X1062366Y3259718D01*
X1061930Y3260009D01*
X1061536Y3260354D01*
X1061190Y3260749D01*
X1060899Y3261185D01*
X1060667Y3261655D01*
X1060498Y3262151D01*
X1060433Y3262478D01*
X1060368Y3262151D01*
X1060200Y3261655D01*
X1059968Y3261185D01*
X1059676Y3260749D01*
X1059331Y3260354D01*
X1058936Y3260009D01*
X1058500Y3259718D01*
X1058030Y3259485D01*
X1057534Y3259317D01*
X1057019Y3259215D01*
X1056496Y3259180D01*
X1013189D01*
X1012666Y3259215D01*
X1012152Y3259317D01*
X1011655Y3259485D01*
X1011185Y3259718D01*
X1010749Y3260009D01*
X1010355Y3260354D01*
X1010009Y3260749D01*
X1009717Y3261185D01*
X1009486Y3261655D01*
X1009317Y3262151D01*
X1009215Y3262666D01*
X1009180Y3263189D01*
Y3298622D01*
X1009215Y3299145D01*
X1009317Y3299660D01*
X1009486Y3300156D01*
X1009717Y3300626D01*
X1010009Y3301062D01*
X1010355Y3301457D01*
X1010749Y3301802D01*
X1011185Y3302094D01*
X1011655Y3302326D01*
X1012152Y3302494D01*
X1012666Y3302596D01*
X1013189Y3302631D01*
X1028937D01*
X1029460Y3302596D01*
X1029975Y3302494D01*
X1030471Y3302326D01*
X1030941Y3302094D01*
X1031377Y3301802D01*
X1031772Y3301457D01*
X1032117Y3301062D01*
X1032409Y3300626D01*
X1032640Y3300156D01*
X1032809Y3299660D01*
X1032874Y3299333D01*
X1032939Y3299660D01*
X1033108Y3300156D01*
X1033340Y3300626D01*
X1033631Y3301062D01*
X1033976Y3301457D01*
X1034371Y3301802D01*
X1034807Y3302094D01*
X1035277Y3302326D01*
X1035774Y3302494D01*
X1036288Y3302596D01*
X1036811Y3302631D01*
X1080118D01*
X1080641Y3302596D01*
D02*
G37*
G36*
X476195Y3335784D02*
X476710Y3335682D01*
X477206Y3335514D01*
X477677Y3335282D01*
X478113Y3334990D01*
X478507Y3334645D01*
X478853Y3334250D01*
X479144Y3333814D01*
X479376Y3333344D01*
X479544Y3332848D01*
X479647Y3332333D01*
X479681Y3331810D01*
Y3316062D01*
X479647Y3315539D01*
X479544Y3315025D01*
X479376Y3314528D01*
X479144Y3314058D01*
X478853Y3313622D01*
X478507Y3313228D01*
X478113Y3312882D01*
X477677Y3312591D01*
X477206Y3312359D01*
X476710Y3312190D01*
X476383Y3312125D01*
X476710Y3312060D01*
X477206Y3311892D01*
X477677Y3311660D01*
X478113Y3311368D01*
X478507Y3311023D01*
X478853Y3310628D01*
X479144Y3310192D01*
X479376Y3309722D01*
X479544Y3309226D01*
X479647Y3308711D01*
X479681Y3308188D01*
Y3264881D01*
X479647Y3264358D01*
X479544Y3263843D01*
X479376Y3263347D01*
X479144Y3262877D01*
X478853Y3262441D01*
X478507Y3262046D01*
X478113Y3261701D01*
X477677Y3261410D01*
X477206Y3261177D01*
X476710Y3261009D01*
X476195Y3260907D01*
X475672Y3260872D01*
X440239D01*
X439716Y3260907D01*
X439202Y3261009D01*
X438705Y3261177D01*
X438235Y3261410D01*
X437799Y3261701D01*
X437405Y3262046D01*
X437059Y3262441D01*
X436768Y3262877D01*
X436536Y3263347D01*
X436367Y3263843D01*
X436265Y3264358D01*
X436231Y3264881D01*
Y3280629D01*
X436265Y3281152D01*
X436367Y3281666D01*
X436536Y3282163D01*
X436768Y3282633D01*
X437059Y3283069D01*
X437405Y3283463D01*
X437799Y3283809D01*
X438235Y3284101D01*
X438705Y3284332D01*
X439202Y3284501D01*
X439529Y3284566D01*
X439202Y3284631D01*
X438705Y3284800D01*
X438235Y3285032D01*
X437799Y3285323D01*
X437405Y3285669D01*
X437059Y3286063D01*
X436768Y3286499D01*
X436536Y3286969D01*
X436367Y3287465D01*
X436265Y3287980D01*
X436231Y3288503D01*
Y3331810D01*
X436265Y3332333D01*
X436367Y3332848D01*
X436536Y3333344D01*
X436768Y3333814D01*
X437059Y3334250D01*
X437405Y3334645D01*
X437799Y3334990D01*
X438235Y3335282D01*
X438705Y3335514D01*
X439202Y3335682D01*
X439716Y3335784D01*
X440239Y3335819D01*
X475672D01*
X476195Y3335784D01*
D02*
G37*
G36*
X849145Y3315785D02*
X849659Y3315683D01*
X850156Y3315515D01*
X850626Y3315282D01*
X851062Y3314991D01*
X851457Y3314646D01*
X851802Y3314251D01*
X852093Y3313815D01*
X852326Y3313345D01*
X852494Y3312849D01*
X852596Y3312334D01*
X852631Y3311811D01*
Y3296063D01*
X852596Y3295540D01*
X852494Y3295026D01*
X852326Y3294529D01*
X852093Y3294059D01*
X851802Y3293623D01*
X851457Y3293229D01*
X851062Y3292883D01*
X850626Y3292591D01*
X850156Y3292360D01*
X849659Y3292191D01*
X849333Y3292126D01*
X849659Y3292061D01*
X850156Y3291892D01*
X850626Y3291660D01*
X851062Y3291369D01*
X851457Y3291023D01*
X851802Y3290629D01*
X852093Y3290193D01*
X852326Y3289723D01*
X852494Y3289227D01*
X852596Y3288712D01*
X852631Y3288189D01*
Y3244882D01*
X852596Y3244359D01*
X852494Y3243844D01*
X852326Y3243348D01*
X852093Y3242878D01*
X851802Y3242442D01*
X851457Y3242047D01*
X851062Y3241702D01*
X850626Y3241410D01*
X850156Y3241178D01*
X849659Y3241010D01*
X849145Y3240908D01*
X848622Y3240873D01*
X813189D01*
X812666Y3240908D01*
X812151Y3241010D01*
X811655Y3241178D01*
X811185Y3241410D01*
X810749Y3241702D01*
X810354Y3242047D01*
X810009Y3242442D01*
X809717Y3242878D01*
X809485Y3243348D01*
X809317Y3243844D01*
X809215Y3244359D01*
X809180Y3244882D01*
Y3260630D01*
X809215Y3261153D01*
X809317Y3261667D01*
X809485Y3262164D01*
X809717Y3262634D01*
X810009Y3263070D01*
X810354Y3263464D01*
X810749Y3263810D01*
X811185Y3264101D01*
X811655Y3264333D01*
X812151Y3264502D01*
X812478Y3264567D01*
X812151Y3264632D01*
X811655Y3264800D01*
X811185Y3265032D01*
X810749Y3265324D01*
X810354Y3265669D01*
X810009Y3266064D01*
X809717Y3266500D01*
X809485Y3266970D01*
X809317Y3267466D01*
X809215Y3267981D01*
X809180Y3268504D01*
Y3311811D01*
X809215Y3312334D01*
X809317Y3312849D01*
X809485Y3313345D01*
X809717Y3313815D01*
X810009Y3314251D01*
X810354Y3314646D01*
X810749Y3314991D01*
X811185Y3315282D01*
X811655Y3315515D01*
X812151Y3315683D01*
X812666Y3315785D01*
X813189Y3315820D01*
X848622D01*
X849145Y3315785D01*
D02*
G37*
G36*
X1080642Y3227595D02*
X1081157Y3227493D01*
X1081653Y3227325D01*
X1082123Y3227093D01*
X1082559Y3226801D01*
X1082954Y3226456D01*
X1083299Y3226061D01*
X1083591Y3225625D01*
X1083822Y3225155D01*
X1083991Y3224659D01*
X1084093Y3224144D01*
X1084128Y3223621D01*
Y3188188D01*
X1084093Y3187665D01*
X1083991Y3187150D01*
X1083822Y3186654D01*
X1083591Y3186184D01*
X1083299Y3185748D01*
X1082954Y3185353D01*
X1082559Y3185008D01*
X1082123Y3184716D01*
X1081653Y3184484D01*
X1081157Y3184316D01*
X1080642Y3184214D01*
X1080119Y3184179D01*
X1064371D01*
X1063848Y3184214D01*
X1063333Y3184316D01*
X1062837Y3184484D01*
X1062367Y3184716D01*
X1061931Y3185008D01*
X1061536Y3185353D01*
X1061191Y3185748D01*
X1060899Y3186184D01*
X1060668Y3186654D01*
X1060499Y3187150D01*
X1060434Y3187477D01*
X1060369Y3187150D01*
X1060200Y3186654D01*
X1059968Y3186184D01*
X1059677Y3185748D01*
X1059332Y3185353D01*
X1058937Y3185008D01*
X1058501Y3184716D01*
X1058031Y3184484D01*
X1057534Y3184316D01*
X1057020Y3184214D01*
X1056497Y3184179D01*
X1013190D01*
X1012667Y3184214D01*
X1012152Y3184316D01*
X1011656Y3184484D01*
X1011186Y3184716D01*
X1010750Y3185008D01*
X1010355Y3185353D01*
X1010010Y3185748D01*
X1009718Y3186184D01*
X1009486Y3186654D01*
X1009318Y3187150D01*
X1009216Y3187665D01*
X1009181Y3188188D01*
Y3223621D01*
X1009216Y3224144D01*
X1009318Y3224659D01*
X1009486Y3225155D01*
X1009718Y3225625D01*
X1010010Y3226061D01*
X1010355Y3226456D01*
X1010750Y3226801D01*
X1011186Y3227093D01*
X1011656Y3227325D01*
X1012152Y3227493D01*
X1012667Y3227595D01*
X1013190Y3227630D01*
X1028938D01*
X1029461Y3227595D01*
X1029975Y3227493D01*
X1030472Y3227325D01*
X1030942Y3227093D01*
X1031378Y3226801D01*
X1031772Y3226456D01*
X1032118Y3226061D01*
X1032409Y3225625D01*
X1032641Y3225155D01*
X1032810Y3224659D01*
X1032875Y3224332D01*
X1032940Y3224659D01*
X1033108Y3225155D01*
X1033340Y3225625D01*
X1033632Y3226061D01*
X1033977Y3226456D01*
X1034372Y3226801D01*
X1034808Y3227093D01*
X1035278Y3227325D01*
X1035774Y3227493D01*
X1036289Y3227595D01*
X1036812Y3227630D01*
X1080119D01*
X1080642Y3227595D01*
D02*
G37*
G36*
X1549144Y3140784D02*
X1549659Y3140682D01*
X1550155Y3140514D01*
X1550625Y3140282D01*
X1551061Y3139990D01*
X1551456Y3139645D01*
X1551801Y3139250D01*
X1552092Y3138814D01*
X1552324Y3138344D01*
X1552493Y3137848D01*
X1552595Y3137333D01*
X1552630Y3136810D01*
Y3121062D01*
X1552595Y3120539D01*
X1552493Y3120025D01*
X1552324Y3119528D01*
X1552092Y3119058D01*
X1551801Y3118622D01*
X1551456Y3118228D01*
X1551061Y3117882D01*
X1550625Y3117591D01*
X1550155Y3117359D01*
X1549659Y3117190D01*
X1549332Y3117125D01*
X1549659Y3117060D01*
X1550155Y3116892D01*
X1550625Y3116660D01*
X1551061Y3116368D01*
X1551456Y3116023D01*
X1551801Y3115628D01*
X1552092Y3115192D01*
X1552324Y3114722D01*
X1552493Y3114226D01*
X1552595Y3113711D01*
X1552630Y3113188D01*
Y3069881D01*
X1552595Y3069358D01*
X1552493Y3068843D01*
X1552324Y3068347D01*
X1552092Y3067877D01*
X1551801Y3067441D01*
X1551456Y3067046D01*
X1551061Y3066701D01*
X1550625Y3066410D01*
X1550155Y3066177D01*
X1549659Y3066009D01*
X1549144Y3065907D01*
X1548621Y3065872D01*
X1513188D01*
X1512665Y3065907D01*
X1512150Y3066009D01*
X1511654Y3066177D01*
X1511184Y3066410D01*
X1510748Y3066701D01*
X1510353Y3067046D01*
X1510008Y3067441D01*
X1509716Y3067877D01*
X1509484Y3068347D01*
X1509316Y3068843D01*
X1509214Y3069358D01*
X1509179Y3069881D01*
Y3085629D01*
X1509214Y3086152D01*
X1509316Y3086666D01*
X1509484Y3087163D01*
X1509716Y3087633D01*
X1510008Y3088069D01*
X1510353Y3088463D01*
X1510748Y3088809D01*
X1511184Y3089101D01*
X1511654Y3089332D01*
X1512150Y3089501D01*
X1512477Y3089566D01*
X1512150Y3089631D01*
X1511654Y3089800D01*
X1511184Y3090032D01*
X1510748Y3090323D01*
X1510353Y3090669D01*
X1510008Y3091063D01*
X1509716Y3091499D01*
X1509484Y3091969D01*
X1509316Y3092465D01*
X1509214Y3092980D01*
X1509179Y3093503D01*
Y3136810D01*
X1509214Y3137333D01*
X1509316Y3137848D01*
X1509484Y3138344D01*
X1509716Y3138814D01*
X1510008Y3139250D01*
X1510353Y3139645D01*
X1510748Y3139990D01*
X1511184Y3140282D01*
X1511654Y3140514D01*
X1512150Y3140682D01*
X1512665Y3140784D01*
X1513188Y3140819D01*
X1548621D01*
X1549144Y3140784D01*
D02*
G37*
G36*
X1449144D02*
X1449659Y3140682D01*
X1450155Y3140514D01*
X1450625Y3140282D01*
X1451061Y3139990D01*
X1451456Y3139645D01*
X1451801Y3139250D01*
X1452092Y3138814D01*
X1452324Y3138344D01*
X1452493Y3137848D01*
X1452595Y3137333D01*
X1452630Y3136810D01*
Y3121062D01*
X1452595Y3120539D01*
X1452493Y3120025D01*
X1452324Y3119528D01*
X1452092Y3119058D01*
X1451801Y3118622D01*
X1451456Y3118228D01*
X1451061Y3117882D01*
X1450625Y3117591D01*
X1450155Y3117359D01*
X1449659Y3117190D01*
X1449332Y3117125D01*
X1449659Y3117060D01*
X1450155Y3116892D01*
X1450625Y3116660D01*
X1451061Y3116368D01*
X1451456Y3116023D01*
X1451801Y3115628D01*
X1452092Y3115192D01*
X1452324Y3114722D01*
X1452493Y3114226D01*
X1452595Y3113711D01*
X1452630Y3113188D01*
Y3069881D01*
X1452595Y3069358D01*
X1452493Y3068843D01*
X1452324Y3068347D01*
X1452092Y3067877D01*
X1451801Y3067441D01*
X1451456Y3067046D01*
X1451061Y3066701D01*
X1450625Y3066410D01*
X1450155Y3066177D01*
X1449659Y3066009D01*
X1449144Y3065907D01*
X1448621Y3065872D01*
X1413188D01*
X1412665Y3065907D01*
X1412150Y3066009D01*
X1411654Y3066177D01*
X1411184Y3066410D01*
X1410748Y3066701D01*
X1410353Y3067046D01*
X1410008Y3067441D01*
X1409716Y3067877D01*
X1409484Y3068347D01*
X1409316Y3068843D01*
X1409214Y3069358D01*
X1409179Y3069881D01*
Y3085629D01*
X1409214Y3086152D01*
X1409316Y3086666D01*
X1409484Y3087163D01*
X1409716Y3087633D01*
X1410008Y3088069D01*
X1410353Y3088463D01*
X1410748Y3088809D01*
X1411184Y3089101D01*
X1411654Y3089332D01*
X1412150Y3089501D01*
X1412477Y3089566D01*
X1412150Y3089631D01*
X1411654Y3089800D01*
X1411184Y3090032D01*
X1410748Y3090323D01*
X1410353Y3090669D01*
X1410008Y3091063D01*
X1409716Y3091499D01*
X1409484Y3091969D01*
X1409316Y3092465D01*
X1409214Y3092980D01*
X1409179Y3093503D01*
Y3136810D01*
X1409214Y3137333D01*
X1409316Y3137848D01*
X1409484Y3138344D01*
X1409716Y3138814D01*
X1410008Y3139250D01*
X1410353Y3139645D01*
X1410748Y3139990D01*
X1411184Y3140282D01*
X1411654Y3140514D01*
X1412150Y3140682D01*
X1412665Y3140784D01*
X1413188Y3140819D01*
X1448621D01*
X1449144Y3140784D01*
D02*
G37*
G36*
X805641Y2977675D02*
X806156Y2977573D01*
X806652Y2977404D01*
X807122Y2977172D01*
X807558Y2976881D01*
X807953Y2976535D01*
X808298Y2976141D01*
X808590Y2975705D01*
X808822Y2975235D01*
X808990Y2974738D01*
X809092Y2974224D01*
X809127Y2973701D01*
Y2938268D01*
X809092Y2937744D01*
X808990Y2937230D01*
X808822Y2936734D01*
X808590Y2936263D01*
X808298Y2935827D01*
X807953Y2935433D01*
X807558Y2935088D01*
X807122Y2934796D01*
X806652Y2934564D01*
X806156Y2934396D01*
X805641Y2934293D01*
X805118Y2934259D01*
X789370D01*
X788847Y2934293D01*
X788333Y2934396D01*
X787836Y2934564D01*
X787366Y2934796D01*
X786930Y2935088D01*
X786536Y2935433D01*
X786190Y2935827D01*
X785899Y2936263D01*
X785667Y2936734D01*
X785498Y2937230D01*
X785433Y2937557D01*
X785368Y2937230D01*
X785200Y2936734D01*
X784968Y2936263D01*
X784676Y2935827D01*
X784331Y2935433D01*
X783936Y2935088D01*
X783500Y2934796D01*
X783030Y2934564D01*
X782534Y2934396D01*
X782019Y2934293D01*
X781496Y2934259D01*
X738189D01*
X737666Y2934293D01*
X737152Y2934396D01*
X736655Y2934564D01*
X736185Y2934796D01*
X735749Y2935088D01*
X735355Y2935433D01*
X735009Y2935827D01*
X734717Y2936263D01*
X734486Y2936734D01*
X734317Y2937230D01*
X734215Y2937744D01*
X734180Y2938268D01*
Y2973701D01*
X734215Y2974224D01*
X734317Y2974738D01*
X734486Y2975235D01*
X734717Y2975705D01*
X735009Y2976141D01*
X735355Y2976535D01*
X735749Y2976881D01*
X736185Y2977172D01*
X736655Y2977404D01*
X737152Y2977573D01*
X737666Y2977675D01*
X738189Y2977709D01*
X753937D01*
X754460Y2977675D01*
X754975Y2977573D01*
X755471Y2977404D01*
X755941Y2977172D01*
X756377Y2976881D01*
X756771Y2976535D01*
X757117Y2976141D01*
X757409Y2975705D01*
X757640Y2975235D01*
X757809Y2974738D01*
X757874Y2974412D01*
X757939Y2974738D01*
X758107Y2975235D01*
X758340Y2975705D01*
X758631Y2976141D01*
X758976Y2976535D01*
X759371Y2976881D01*
X759807Y2977172D01*
X760277Y2977404D01*
X760774Y2977573D01*
X761288Y2977675D01*
X761811Y2977709D01*
X805118D01*
X805641Y2977675D01*
D02*
G37*
G36*
X838043Y2296022D02*
X838557Y2295919D01*
X839054Y2295751D01*
X839524Y2295519D01*
X839960Y2295227D01*
X840354Y2294882D01*
X840700Y2294488D01*
X840991Y2294052D01*
X841223Y2293581D01*
X841392Y2293085D01*
X841494Y2292570D01*
X841528Y2292047D01*
Y2256614D01*
X841494Y2256091D01*
X841392Y2255577D01*
X841223Y2255080D01*
X840991Y2254610D01*
X840700Y2254174D01*
X840354Y2253780D01*
X839960Y2253434D01*
X839524Y2253143D01*
X839054Y2252911D01*
X838557Y2252742D01*
X838043Y2252640D01*
X837520Y2252606D01*
X821772D01*
X821248Y2252640D01*
X820734Y2252742D01*
X820238Y2252911D01*
X819767Y2253143D01*
X819331Y2253434D01*
X818937Y2253780D01*
X818591Y2254174D01*
X818300Y2254610D01*
X818068Y2255080D01*
X817900Y2255577D01*
X817835Y2255903D01*
X817770Y2255577D01*
X817601Y2255080D01*
X817369Y2254610D01*
X817078Y2254174D01*
X816732Y2253780D01*
X816338Y2253434D01*
X815902Y2253143D01*
X815432Y2252911D01*
X814935Y2252742D01*
X814421Y2252640D01*
X813898Y2252606D01*
X770591D01*
X770067Y2252640D01*
X769553Y2252742D01*
X769057Y2252911D01*
X768586Y2253143D01*
X768150Y2253434D01*
X767756Y2253780D01*
X767410Y2254174D01*
X767119Y2254610D01*
X766887Y2255080D01*
X766718Y2255577D01*
X766616Y2256091D01*
X766582Y2256614D01*
Y2292047D01*
X766616Y2292570D01*
X766718Y2293085D01*
X766887Y2293581D01*
X767119Y2294052D01*
X767410Y2294488D01*
X767756Y2294882D01*
X768150Y2295227D01*
X768586Y2295519D01*
X769057Y2295751D01*
X769553Y2295919D01*
X770067Y2296022D01*
X770591Y2296056D01*
X786338D01*
X786862Y2296022D01*
X787376Y2295919D01*
X787872Y2295751D01*
X788343Y2295519D01*
X788779Y2295227D01*
X789173Y2294882D01*
X789519Y2294488D01*
X789810Y2294052D01*
X790042Y2293581D01*
X790211Y2293085D01*
X790275Y2292758D01*
X790341Y2293085D01*
X790509Y2293581D01*
X790741Y2294052D01*
X791032Y2294488D01*
X791378Y2294882D01*
X791772Y2295227D01*
X792208Y2295519D01*
X792678Y2295751D01*
X793175Y2295919D01*
X793689Y2296022D01*
X794212Y2296056D01*
X837520D01*
X838043Y2296022D01*
D02*
G37*
G36*
X1405641Y347596D02*
X1406156Y347494D01*
X1406652Y347326D01*
X1407122Y347094D01*
X1407558Y346802D01*
X1407953Y346457D01*
X1408298Y346062D01*
X1408590Y345626D01*
X1408822Y345156D01*
X1408990Y344660D01*
X1409092Y344145D01*
X1409127Y343622D01*
Y308189D01*
X1409092Y307666D01*
X1408990Y307151D01*
X1408822Y306655D01*
X1408590Y306185D01*
X1408298Y305749D01*
X1407953Y305354D01*
X1407558Y305009D01*
X1407122Y304717D01*
X1406652Y304486D01*
X1406156Y304317D01*
X1405641Y304215D01*
X1405118Y304180D01*
X1389370D01*
X1388847Y304215D01*
X1388333Y304317D01*
X1387836Y304486D01*
X1387366Y304717D01*
X1386930Y305009D01*
X1386536Y305354D01*
X1386190Y305749D01*
X1385899Y306185D01*
X1385667Y306655D01*
X1385498Y307151D01*
X1385433Y307478D01*
X1385368Y307151D01*
X1385200Y306655D01*
X1384968Y306185D01*
X1384676Y305749D01*
X1384331Y305354D01*
X1383936Y305009D01*
X1383500Y304717D01*
X1383030Y304486D01*
X1382534Y304317D01*
X1382019Y304215D01*
X1381496Y304180D01*
X1338189D01*
X1337666Y304215D01*
X1337151Y304317D01*
X1336655Y304486D01*
X1336185Y304717D01*
X1335749Y305009D01*
X1335354Y305354D01*
X1335009Y305749D01*
X1334717Y306185D01*
X1334486Y306655D01*
X1334317Y307151D01*
X1334215Y307666D01*
X1334180Y308189D01*
Y343622D01*
X1334215Y344145D01*
X1334317Y344660D01*
X1334486Y345156D01*
X1334717Y345626D01*
X1335009Y346062D01*
X1335354Y346457D01*
X1335749Y346802D01*
X1336185Y347094D01*
X1336655Y347326D01*
X1337151Y347494D01*
X1337666Y347596D01*
X1338189Y347631D01*
X1353937D01*
X1354460Y347596D01*
X1354975Y347494D01*
X1355471Y347326D01*
X1355941Y347094D01*
X1356377Y346802D01*
X1356772Y346457D01*
X1357117Y346062D01*
X1357409Y345626D01*
X1357640Y345156D01*
X1357809Y344660D01*
X1357874Y344333D01*
X1357939Y344660D01*
X1358108Y345156D01*
X1358340Y345626D01*
X1358631Y346062D01*
X1358976Y346457D01*
X1359371Y346802D01*
X1359807Y347094D01*
X1360277Y347326D01*
X1360774Y347494D01*
X1361288Y347596D01*
X1361811Y347631D01*
X1405118D01*
X1405641Y347596D01*
D02*
G37*
D86*
X1496850Y2371850D02*
D03*
X1516536D02*
D03*
X1536220D02*
D03*
X1477166D02*
D03*
X1457480D02*
D03*
X1437796D02*
D03*
X1418110D02*
D03*
X1398426D02*
D03*
X1378740D02*
D03*
X1359056D02*
D03*
X1339370D02*
D03*
X1319686D02*
D03*
X1300000D02*
D03*
X1280316D02*
D03*
X1260630D02*
D03*
X1240944D02*
D03*
X1221260D02*
D03*
X1201574D02*
D03*
X1181890D02*
D03*
X1162204D02*
D03*
X1142520D02*
D03*
X1122834D02*
D03*
X1103150D02*
D03*
X1083464D02*
D03*
X1063780D02*
D03*
X1496850Y2978150D02*
D03*
X1516536D02*
D03*
X1536220D02*
D03*
X1477166D02*
D03*
X1457480D02*
D03*
X1437796D02*
D03*
X1418110D02*
D03*
X1398426D02*
D03*
X1378740D02*
D03*
X1359056D02*
D03*
X1339370D02*
D03*
X1319686D02*
D03*
X1300000D02*
D03*
X1280316D02*
D03*
X1260630D02*
D03*
X1240944D02*
D03*
X1221260D02*
D03*
X1201574D02*
D03*
X1181890D02*
D03*
X1162204D02*
D03*
X1142520D02*
D03*
X1122834D02*
D03*
X1103150D02*
D03*
X1083464D02*
D03*
X1063780D02*
D03*
D87*
X1603150Y2438780D02*
D03*
Y2458464D02*
D03*
Y2478150D02*
D03*
Y2497834D02*
D03*
Y2517520D02*
D03*
Y2537204D02*
D03*
Y2556890D02*
D03*
Y2576574D02*
D03*
Y2596260D02*
D03*
Y2615944D02*
D03*
Y2635630D02*
D03*
Y2655316D02*
D03*
Y2675000D02*
D03*
Y2694686D02*
D03*
Y2714370D02*
D03*
Y2734056D02*
D03*
Y2753740D02*
D03*
Y2773426D02*
D03*
Y2793110D02*
D03*
Y2812796D02*
D03*
Y2832480D02*
D03*
Y2852166D02*
D03*
Y2871850D02*
D03*
Y2891536D02*
D03*
Y2911220D02*
D03*
X996850D02*
D03*
Y2891536D02*
D03*
Y2871850D02*
D03*
Y2852166D02*
D03*
Y2832480D02*
D03*
Y2812796D02*
D03*
Y2793110D02*
D03*
Y2773426D02*
D03*
Y2753740D02*
D03*
Y2734056D02*
D03*
Y2714370D02*
D03*
Y2694686D02*
D03*
Y2675000D02*
D03*
Y2655316D02*
D03*
Y2635630D02*
D03*
Y2615944D02*
D03*
Y2596260D02*
D03*
Y2576574D02*
D03*
Y2556890D02*
D03*
Y2537204D02*
D03*
Y2517520D02*
D03*
Y2497834D02*
D03*
Y2478150D02*
D03*
Y2458464D02*
D03*
Y2438780D02*
D03*
D88*
X1788386Y1783858D02*
D03*
X1813976D02*
D03*
X1839566D02*
D03*
X1762796D02*
D03*
X1737204D02*
D03*
X1711614D02*
D03*
X1686024D02*
D03*
X1660434D02*
D03*
X1788386Y2016142D02*
D03*
X1813976D02*
D03*
X1839566D02*
D03*
X1762796D02*
D03*
X1737204D02*
D03*
X1711614D02*
D03*
X1686024D02*
D03*
X1660434D02*
D03*
X1390158Y3233858D02*
D03*
X1364566D02*
D03*
X1338976D02*
D03*
X1313386D02*
D03*
X1287796D02*
D03*
X1262204D02*
D03*
X1236614D02*
D03*
X1211024D02*
D03*
X1185434D02*
D03*
X1159842D02*
D03*
X1287796Y3466142D02*
D03*
X1313386D02*
D03*
X1338976D02*
D03*
X1364566D02*
D03*
X1390158D02*
D03*
X1262204D02*
D03*
X1236614D02*
D03*
X1211024D02*
D03*
X1185434D02*
D03*
X1159842D02*
D03*
D89*
X525000Y300000D02*
D03*
X581000D02*
D03*
X719000D02*
D03*
X775000D02*
D03*
X1969000Y225000D02*
D03*
X2025000D02*
D03*
Y300000D02*
D03*
X1969000D02*
D03*
X1275000Y1890000D02*
D03*
X1219000D02*
D03*
Y2016142D02*
D03*
X1275000D02*
D03*
X1180000Y2230000D02*
D03*
X1124000D02*
D03*
X1519000Y2275000D02*
D03*
X1575000D02*
D03*
X1975000Y2050000D02*
D03*
X2031000D02*
D03*
X2050000Y2236418D02*
D03*
X1994000D02*
D03*
Y2514370D02*
D03*
X2050000D02*
D03*
X2060000Y2760000D02*
D03*
X2004000D02*
D03*
X1847000Y2610000D02*
D03*
X1791000D02*
D03*
X1780000Y2870000D02*
D03*
X1724000D02*
D03*
X1350000Y3100000D02*
D03*
X1294000D02*
D03*
X1612204Y3450000D02*
D03*
X1556204D02*
D03*
X1390000Y3570000D02*
D03*
Y3640316D02*
D03*
X1334000D02*
D03*
Y3570000D02*
D03*
X1220000Y3590000D02*
D03*
Y3660000D02*
D03*
X1164000D02*
D03*
Y3590000D02*
D03*
X1184000Y3880000D02*
D03*
X1240000D02*
D03*
X774000Y3070000D02*
D03*
Y2884056D02*
D03*
X830000D02*
D03*
Y3070000D02*
D03*
X525000Y2525000D02*
D03*
X669000Y2446850D02*
D03*
X725000D02*
D03*
Y2525000D02*
D03*
X669000D02*
D03*
X581000D02*
D03*
D90*
X1494094Y3231890D02*
D03*
Y3350000D02*
D03*
X1440000Y3761890D02*
D03*
Y3880000D02*
D03*
X1069684Y3648110D02*
D03*
Y3530000D02*
D03*
D91*
X362402Y85630D02*
D03*
Y105314D02*
D03*
Y125000D02*
D03*
Y144684D02*
D03*
Y164370D02*
D03*
X537598D02*
D03*
Y144684D02*
D03*
Y125000D02*
D03*
Y105314D02*
D03*
Y85630D02*
D03*
X1312598Y3735630D02*
D03*
Y3755314D02*
D03*
Y3775000D02*
D03*
Y3794684D02*
D03*
Y3814370D02*
D03*
X1137402D02*
D03*
Y3794684D02*
D03*
Y3775000D02*
D03*
Y3755314D02*
D03*
Y3735630D02*
D03*
D92*
X450000Y125000D02*
D03*
X1225000Y3775000D02*
D03*
D93*
X340000Y300000D02*
D03*
X425000D02*
D03*
X690000Y200000D02*
D03*
X775000D02*
D03*
X1375000Y220000D02*
D03*
X1460000D02*
D03*
X1965000Y79804D02*
D03*
X2050000D02*
D03*
X2037000Y2146850D02*
D03*
X1952000D02*
D03*
X2050000Y2612796D02*
D03*
X1965000D02*
D03*
X1810000Y2775000D02*
D03*
X1725000D02*
D03*
X905000Y3410000D02*
D03*
X820000D02*
D03*
X745000Y3160000D02*
D03*
X830000D02*
D03*
X185000Y3800000D02*
D03*
X100000D02*
D03*
X1724056Y3650000D02*
D03*
X1809056D02*
D03*
X1965000Y3590000D02*
D03*
X2050000D02*
D03*
Y3730000D02*
D03*
Y3870000D02*
D03*
X1965000D02*
D03*
Y3730000D02*
D03*
X1825000Y3850000D02*
D03*
X1740000D02*
D03*
D94*
X675000Y63844D02*
D03*
X775000D02*
D03*
Y119844D02*
D03*
X675000D02*
D03*
X1370000Y74000D02*
D03*
X1460000D02*
D03*
Y130000D02*
D03*
X1370000D02*
D03*
X660000Y1740000D02*
D03*
Y1796000D02*
D03*
Y1874000D02*
D03*
Y1930000D02*
D03*
X719000Y2232426D02*
D03*
X872402Y2375000D02*
D03*
Y2431000D02*
D03*
X719000Y2288426D02*
D03*
X900000Y2840158D02*
D03*
Y2896158D02*
D03*
X710000Y3294000D02*
D03*
Y3350000D02*
D03*
X130000Y3604000D02*
D03*
Y3660000D02*
D03*
X1600000Y3274000D02*
D03*
Y3330000D02*
D03*
X1762559Y2505922D02*
D03*
Y2449922D02*
D03*
D95*
X1350000Y320000D02*
D03*
X1393308Y331812D02*
D03*
X825708Y2280236D02*
D03*
X782402Y2268426D02*
D03*
X793308Y2961890D02*
D03*
X750000Y2950078D02*
D03*
X1025000Y3200000D02*
D03*
X1068308Y3211810D02*
D03*
X1025000Y3275000D02*
D03*
X1068308Y3286812D02*
D03*
X1525000Y3775000D02*
D03*
X1568308Y3786812D02*
D03*
X220000Y3530002D02*
D03*
X176692Y3518190D02*
D03*
D96*
X200000Y3325000D02*
D03*
Y3399804D02*
D03*
X93700D02*
D03*
Y3362402D02*
D03*
Y3325000D02*
D03*
D97*
X1891426Y2250000D02*
D03*
X1890000Y2363000D02*
D03*
X1847000D02*
D03*
X1848426Y2250000D02*
D03*
X1300000Y2275000D02*
D03*
X1257000D02*
D03*
X620000Y3320000D02*
D03*
X577000D02*
D03*
X363000D02*
D03*
X320000D02*
D03*
D98*
X1536810Y3081692D02*
D03*
X1525000Y3125000D02*
D03*
X1425000D02*
D03*
X1436810Y3081692D02*
D03*
X825000Y3300000D02*
D03*
X836812Y3256692D02*
D03*
X452052Y3320000D02*
D03*
X463862Y3276692D02*
D03*
D99*
X1158110Y3100000D02*
D03*
X1040000D02*
D03*
X1474410Y3550000D02*
D03*
Y3650000D02*
D03*
X1592520Y3550000D02*
D03*
Y3650000D02*
D03*
X1050000Y3875000D02*
D03*
X931890D02*
D03*
D100*
X920000Y3520000D02*
D03*
Y3752284D02*
D03*
D101*
X203740Y2620472D02*
D03*
Y3211024D02*
D03*
D102*
X597440Y3195276D02*
D03*
D103*
X597440Y2620472D02*
D03*
D104*
X625000Y2683464D02*
D03*
Y2726772D02*
D03*
Y2770078D02*
D03*
Y2813386D02*
D03*
Y2856692D02*
D03*
Y2900000D02*
D03*
Y2943306D02*
D03*
Y2986614D02*
D03*
Y3029920D02*
D03*
D105*
X2000000Y2336850D02*
D03*
Y2421850D02*
D03*
X1950000Y2955000D02*
D03*
Y3040000D02*
D03*
X1850000D02*
D03*
Y2955000D02*
D03*
X1750000Y3040000D02*
D03*
Y2955000D02*
D03*
X1625000Y3065000D02*
D03*
Y3150000D02*
D03*
X1040000Y3445000D02*
D03*
Y3360000D02*
D03*
X925000Y3310000D02*
D03*
Y3225000D02*
D03*
X900000Y2760000D02*
D03*
Y2675000D02*
D03*
D106*
X1125000Y1762992D02*
D03*
X1075000D02*
D03*
X1025000D02*
D03*
X975000D02*
D03*
X925000D02*
D03*
X875000D02*
D03*
X825000D02*
D03*
X775000D02*
D03*
X1125000Y2137008D02*
D03*
X1075000D02*
D03*
X1025000D02*
D03*
X975000D02*
D03*
X925000D02*
D03*
X875000D02*
D03*
X825000D02*
D03*
X775000D02*
D03*
X1400000Y1787402D02*
D03*
X1450000D02*
D03*
X1500000D02*
D03*
X1550000D02*
D03*
Y2000000D02*
D03*
X1500000D02*
D03*
X1450000D02*
D03*
X1400000D02*
D03*
X2000000Y3187204D02*
D03*
X2050000D02*
D03*
X1950000D02*
D03*
X1900000D02*
D03*
X1850000D02*
D03*
X1800000D02*
D03*
X1750000D02*
D03*
X1700000D02*
D03*
X1900000Y3462796D02*
D03*
X1950000D02*
D03*
X2000000D02*
D03*
X2050000D02*
D03*
X1850000D02*
D03*
X1800000D02*
D03*
X1750000D02*
D03*
X1700000D02*
D03*
D107*
X820000Y2513386D02*
D03*
Y2600000D02*
D03*
X760000Y2763308D02*
D03*
Y2676694D02*
D03*
D108*
X2100000Y2900394D02*
D03*
Y3050000D02*
D03*
X2037008D02*
D03*
Y2900394D02*
D03*
D109*
X1359056Y2258000D02*
D03*
Y2301000D02*
D03*
D110*
X1645078Y2150000D02*
D03*
X1275000D02*
D03*
D111*
X1750000Y2250000D02*
D03*
Y2348426D02*
D03*
D112*
X1956692Y1787204D02*
D03*
X2043308D02*
D03*
D113*
X2000000Y1925000D02*
D03*
D114*
X1023818Y241220D02*
D03*
X1049410D02*
D03*
X1075000D02*
D03*
X1100590D02*
D03*
X1126182D02*
D03*
D115*
X917520Y134922D02*
D03*
X1232480D02*
D03*
D116*
X81890Y125000D02*
D03*
X200000D02*
D03*
D117*
X375000Y1807480D02*
D03*
Y2492520D02*
D03*
D118*
X1609684Y110206D02*
D03*
Y200758D02*
D03*
Y291310D02*
D03*
D119*
X1840000Y200758D02*
D03*
D120*
X2075077Y2458971D02*
D03*
X2065000Y2677463D02*
D03*
X2009000Y2679000D02*
D03*
X1952000Y2682024D02*
D03*
X1875000Y2458464D02*
D03*
D121*
X524372Y3425000D02*
D03*
X347206D02*
D03*
%TF.MD5,a7be799f0fb54dbdd2727da0bb1f5451*%
M02*
