%TF.GenerationSoftware,Altium Limited,Altium Designer,19.0.12 (326)*%
G04 Layer_Color=255*
%FSLAX26Y26*%
%MOIN*%
%TF.FileFunction,Pads,Bot*%
%TF.Part,Single*%
G01*
G75*
%TA.AperFunction,SMDPad,CuDef*%
%ADD14R,0.047244X0.118110*%
%ADD15R,0.045000X0.054000*%
%ADD16R,0.031000X0.038000*%
%ADD17R,0.038000X0.031000*%
%ADD18R,0.019685X0.019685*%
%ADD22R,0.047244X0.051181*%
%TA.AperFunction,ViaPad*%
G04:AMPARAMS|DCode=31|XSize=39.37mil|YSize=39.37mil|CornerRadius=0mil|HoleSize=0mil|Usage=FLASHONLY|Rotation=0.000|XOffset=0mil|YOffset=0mil|HoleType=Round|Shape=Octagon|*
%AMOCTAGOND31*
4,1,8,0.019685,-0.009842,0.019685,0.009842,0.009843,0.019685,-0.009843,0.019685,-0.019685,0.009842,-0.019685,-0.009842,-0.009843,-0.019685,0.009843,-0.019685,0.019685,-0.009842,0.0*
%
%ADD31OCTAGOND31*%

%TA.AperFunction,ComponentPad*%
%ADD32C,0.059055*%
%TA.AperFunction,SMDPad,CuDef*%
%ADD36R,0.011811X0.059055*%
%ADD37R,0.059055X0.011811*%
%ADD38R,0.017716X0.059055*%
%ADD39R,0.051181X0.047244*%
%ADD40R,0.053150X0.011811*%
%ADD41R,0.062992X0.078740*%
%ADD42R,0.019685X0.019685*%
%ADD43R,0.039370X0.023622*%
%ADD44R,0.020000X0.025000*%
%ADD45R,0.098425X0.066929*%
%ADD46R,0.098425X0.059055*%
%ADD47R,0.059055X0.066929*%
%ADD48R,0.066929X0.059055*%
%ADD49R,0.062992X0.027559*%
%ADD50R,0.054000X0.045000*%
%ADD51R,0.027559X0.078740*%
%ADD52R,0.015748X0.027559*%
%ADD53R,0.039370X0.047244*%
%ADD54R,0.025000X0.020000*%
%ADD55R,0.157480X0.047244*%
%ADD56R,0.066929X0.039370*%
%ADD57R,0.047244X0.047244*%
%ADD58R,0.062992X0.062992*%
%TA.AperFunction,ConnectorPad*%
%ADD59R,0.015748X0.055118*%
%TA.AperFunction,SMDPad,CuDef*%
%ADD60R,0.078740X0.078740*%
%ADD61R,0.118110X0.157480*%
%ADD62R,0.084646X0.039370*%
%ADD63R,0.084646X0.129921*%
D14*
X81890Y125000D02*
D03*
X200000D02*
D03*
D15*
X340000Y300000D02*
D03*
X425000D02*
D03*
X690000Y200000D02*
D03*
X775000D02*
D03*
X1375000Y220000D02*
D03*
X1460000D02*
D03*
X1965000Y79804D02*
D03*
X2050000D02*
D03*
X2037000Y2146850D02*
D03*
X1952000D02*
D03*
X2050000Y2612796D02*
D03*
X1965000D02*
D03*
X1810000Y2775000D02*
D03*
X1725000D02*
D03*
X905000Y3410000D02*
D03*
X820000D02*
D03*
X745000Y3160000D02*
D03*
X830000D02*
D03*
X185000Y3800000D02*
D03*
X100000D02*
D03*
X1724056Y3650000D02*
D03*
X1809056D02*
D03*
X1965000Y3590000D02*
D03*
X2050000D02*
D03*
Y3730000D02*
D03*
Y3870000D02*
D03*
X1965000D02*
D03*
Y3730000D02*
D03*
X1825000Y3850000D02*
D03*
X1740000D02*
D03*
D16*
X525000Y300000D02*
D03*
X581000D02*
D03*
X719000D02*
D03*
X775000D02*
D03*
X1969000Y225000D02*
D03*
X2025000D02*
D03*
Y300000D02*
D03*
X1969000D02*
D03*
X1275000Y1890000D02*
D03*
X1219000D02*
D03*
Y2016142D02*
D03*
X1275000D02*
D03*
X1180000Y2230000D02*
D03*
X1124000D02*
D03*
X1519000Y2275000D02*
D03*
X1575000D02*
D03*
X1975000Y2050000D02*
D03*
X2031000D02*
D03*
X2050000Y2236418D02*
D03*
X1994000D02*
D03*
Y2514370D02*
D03*
X2050000D02*
D03*
X2060000Y2760000D02*
D03*
X2004000D02*
D03*
X1847000Y2610000D02*
D03*
X1791000D02*
D03*
X1780000Y2870000D02*
D03*
X1724000D02*
D03*
X1350000Y3100000D02*
D03*
X1294000D02*
D03*
X1612204Y3450000D02*
D03*
X1556204D02*
D03*
X1390000Y3570000D02*
D03*
Y3640316D02*
D03*
X1334000D02*
D03*
Y3570000D02*
D03*
X1220000Y3590000D02*
D03*
Y3660000D02*
D03*
X1164000D02*
D03*
Y3590000D02*
D03*
X1184000Y3880000D02*
D03*
X1240000D02*
D03*
X774000Y3070000D02*
D03*
Y2884056D02*
D03*
X830000D02*
D03*
Y3070000D02*
D03*
X525000Y2525000D02*
D03*
X669000Y2446850D02*
D03*
X725000D02*
D03*
Y2525000D02*
D03*
X669000D02*
D03*
X581000D02*
D03*
D17*
X675000Y63844D02*
D03*
X775000D02*
D03*
Y119844D02*
D03*
X675000D02*
D03*
X1370000Y74000D02*
D03*
X1460000D02*
D03*
Y130000D02*
D03*
X1370000D02*
D03*
X660000Y1740000D02*
D03*
Y1796000D02*
D03*
Y1874000D02*
D03*
Y1930000D02*
D03*
X719000Y2232426D02*
D03*
X872402Y2375000D02*
D03*
Y2431000D02*
D03*
X719000Y2288426D02*
D03*
X900000Y2840158D02*
D03*
Y2896158D02*
D03*
X710000Y3294000D02*
D03*
Y3350000D02*
D03*
X130000Y3604000D02*
D03*
Y3660000D02*
D03*
X1600000Y3274000D02*
D03*
Y3330000D02*
D03*
X1762559Y2505922D02*
D03*
Y2449922D02*
D03*
D18*
X1536810Y3081692D02*
D03*
X1525000Y3125000D02*
D03*
X1425000D02*
D03*
X1436810Y3081692D02*
D03*
X825000Y3300000D02*
D03*
X836812Y3256692D02*
D03*
X452052Y3320000D02*
D03*
X463862Y3276692D02*
D03*
D22*
X1158110Y3100000D02*
D03*
X1040000D02*
D03*
X1474410Y3550000D02*
D03*
Y3650000D02*
D03*
X1592520Y3550000D02*
D03*
Y3650000D02*
D03*
X1050000Y3875000D02*
D03*
X931890D02*
D03*
D31*
X2075077Y2458971D02*
D03*
X2065000Y2677463D02*
D03*
X2009000Y2679000D02*
D03*
X1952000Y2682024D02*
D03*
X1875000Y2458464D02*
D03*
D32*
X524372Y3425000D02*
D03*
X347206D02*
D03*
D36*
X1496850Y2371850D02*
D03*
X1516536D02*
D03*
X1536220D02*
D03*
X1477166D02*
D03*
X1457480D02*
D03*
X1437796D02*
D03*
X1418110D02*
D03*
X1398426D02*
D03*
X1378740D02*
D03*
X1359056D02*
D03*
X1339370D02*
D03*
X1319686D02*
D03*
X1300000D02*
D03*
X1280316D02*
D03*
X1260630D02*
D03*
X1240944D02*
D03*
X1221260D02*
D03*
X1201574D02*
D03*
X1181890D02*
D03*
X1162204D02*
D03*
X1142520D02*
D03*
X1122834D02*
D03*
X1103150D02*
D03*
X1083464D02*
D03*
X1063780D02*
D03*
X1496850Y2978150D02*
D03*
X1516536D02*
D03*
X1536220D02*
D03*
X1477166D02*
D03*
X1457480D02*
D03*
X1437796D02*
D03*
X1418110D02*
D03*
X1398426D02*
D03*
X1378740D02*
D03*
X1359056D02*
D03*
X1339370D02*
D03*
X1319686D02*
D03*
X1300000D02*
D03*
X1280316D02*
D03*
X1260630D02*
D03*
X1240944D02*
D03*
X1221260D02*
D03*
X1201574D02*
D03*
X1181890D02*
D03*
X1162204D02*
D03*
X1142520D02*
D03*
X1122834D02*
D03*
X1103150D02*
D03*
X1083464D02*
D03*
X1063780D02*
D03*
D37*
X1603150Y2438780D02*
D03*
Y2458464D02*
D03*
Y2478150D02*
D03*
Y2497834D02*
D03*
Y2517520D02*
D03*
Y2537204D02*
D03*
Y2556890D02*
D03*
Y2576574D02*
D03*
Y2596260D02*
D03*
Y2615944D02*
D03*
Y2635630D02*
D03*
Y2655316D02*
D03*
Y2675000D02*
D03*
Y2694686D02*
D03*
Y2714370D02*
D03*
Y2734056D02*
D03*
Y2753740D02*
D03*
Y2773426D02*
D03*
Y2793110D02*
D03*
Y2812796D02*
D03*
Y2832480D02*
D03*
Y2852166D02*
D03*
Y2871850D02*
D03*
Y2891536D02*
D03*
Y2911220D02*
D03*
X996850D02*
D03*
Y2891536D02*
D03*
Y2871850D02*
D03*
Y2852166D02*
D03*
Y2832480D02*
D03*
Y2812796D02*
D03*
Y2793110D02*
D03*
Y2773426D02*
D03*
Y2753740D02*
D03*
Y2734056D02*
D03*
Y2714370D02*
D03*
Y2694686D02*
D03*
Y2675000D02*
D03*
Y2655316D02*
D03*
Y2635630D02*
D03*
Y2615944D02*
D03*
Y2596260D02*
D03*
Y2576574D02*
D03*
Y2556890D02*
D03*
Y2537204D02*
D03*
Y2517520D02*
D03*
Y2497834D02*
D03*
Y2478150D02*
D03*
Y2458464D02*
D03*
Y2438780D02*
D03*
D38*
X1788386Y1783858D02*
D03*
X1813976D02*
D03*
X1839566D02*
D03*
X1762796D02*
D03*
X1737204D02*
D03*
X1711614D02*
D03*
X1686024D02*
D03*
X1660434D02*
D03*
X1788386Y2016142D02*
D03*
X1813976D02*
D03*
X1839566D02*
D03*
X1762796D02*
D03*
X1737204D02*
D03*
X1711614D02*
D03*
X1686024D02*
D03*
X1660434D02*
D03*
X1390158Y3233858D02*
D03*
X1364566D02*
D03*
X1338976D02*
D03*
X1313386D02*
D03*
X1287796D02*
D03*
X1262204D02*
D03*
X1236614D02*
D03*
X1211024D02*
D03*
X1185434D02*
D03*
X1159842D02*
D03*
X1287796Y3466142D02*
D03*
X1313386D02*
D03*
X1338976D02*
D03*
X1364566D02*
D03*
X1390158D02*
D03*
X1262204D02*
D03*
X1236614D02*
D03*
X1211024D02*
D03*
X1185434D02*
D03*
X1159842D02*
D03*
D39*
X1494094Y3231890D02*
D03*
Y3350000D02*
D03*
X1440000Y3761890D02*
D03*
Y3880000D02*
D03*
X1069684Y3648110D02*
D03*
Y3530000D02*
D03*
D40*
X362402Y85630D02*
D03*
Y105314D02*
D03*
Y125000D02*
D03*
Y144684D02*
D03*
Y164370D02*
D03*
X537598D02*
D03*
Y144684D02*
D03*
Y125000D02*
D03*
Y105314D02*
D03*
Y85630D02*
D03*
X1312598Y3735630D02*
D03*
Y3755314D02*
D03*
Y3775000D02*
D03*
Y3794684D02*
D03*
Y3814370D02*
D03*
X1137402D02*
D03*
Y3794684D02*
D03*
Y3775000D02*
D03*
Y3755314D02*
D03*
Y3735630D02*
D03*
D41*
X450000Y125000D02*
D03*
X1225000Y3775000D02*
D03*
D42*
X1350000Y320000D02*
D03*
X1393308Y331812D02*
D03*
X825708Y2280236D02*
D03*
X782402Y2268426D02*
D03*
X793308Y2961890D02*
D03*
X750000Y2950078D02*
D03*
X1025000Y3200000D02*
D03*
X1068308Y3211810D02*
D03*
X1025000Y3275000D02*
D03*
X1068308Y3286812D02*
D03*
X1525000Y3775000D02*
D03*
X1568308Y3786812D02*
D03*
X220000Y3530002D02*
D03*
X176692Y3518190D02*
D03*
D43*
X200000Y3325000D02*
D03*
Y3399804D02*
D03*
X93700D02*
D03*
Y3362402D02*
D03*
Y3325000D02*
D03*
D44*
X1891426Y2250000D02*
D03*
X1890000Y2363000D02*
D03*
X1847000D02*
D03*
X1848426Y2250000D02*
D03*
X1300000Y2275000D02*
D03*
X1257000D02*
D03*
X620000Y3320000D02*
D03*
X577000D02*
D03*
X363000D02*
D03*
X320000D02*
D03*
D45*
X920000Y3520000D02*
D03*
Y3752284D02*
D03*
D46*
X203740Y2620472D02*
D03*
Y3211024D02*
D03*
D47*
X597440Y3195276D02*
D03*
D48*
X597440Y2620472D02*
D03*
D49*
X625000Y2683464D02*
D03*
Y2726772D02*
D03*
Y2770078D02*
D03*
Y2813386D02*
D03*
Y2856692D02*
D03*
Y2900000D02*
D03*
Y2943306D02*
D03*
Y2986614D02*
D03*
Y3029920D02*
D03*
D50*
X2000000Y2336850D02*
D03*
Y2421850D02*
D03*
X1950000Y2955000D02*
D03*
Y3040000D02*
D03*
X1850000D02*
D03*
Y2955000D02*
D03*
X1750000Y3040000D02*
D03*
Y2955000D02*
D03*
X1625000Y3065000D02*
D03*
Y3150000D02*
D03*
X1040000Y3445000D02*
D03*
Y3360000D02*
D03*
X925000Y3310000D02*
D03*
Y3225000D02*
D03*
X900000Y2760000D02*
D03*
Y2675000D02*
D03*
D51*
X1125000Y1762992D02*
D03*
X1075000D02*
D03*
X1025000D02*
D03*
X975000D02*
D03*
X925000D02*
D03*
X875000D02*
D03*
X825000D02*
D03*
X775000D02*
D03*
X1125000Y2137008D02*
D03*
X1075000D02*
D03*
X1025000D02*
D03*
X975000D02*
D03*
X925000D02*
D03*
X875000D02*
D03*
X825000D02*
D03*
X775000D02*
D03*
X1400000Y1787402D02*
D03*
X1450000D02*
D03*
X1500000D02*
D03*
X1550000D02*
D03*
Y2000000D02*
D03*
X1500000D02*
D03*
X1450000D02*
D03*
X1400000D02*
D03*
X2000000Y3187204D02*
D03*
X2050000D02*
D03*
X1950000D02*
D03*
X1900000D02*
D03*
X1850000D02*
D03*
X1800000D02*
D03*
X1750000D02*
D03*
X1700000D02*
D03*
X1900000Y3462796D02*
D03*
X1950000D02*
D03*
X2000000D02*
D03*
X2050000D02*
D03*
X1850000D02*
D03*
X1800000D02*
D03*
X1750000D02*
D03*
X1700000D02*
D03*
D52*
X820000Y2513386D02*
D03*
Y2600000D02*
D03*
X760000Y2763308D02*
D03*
Y2676694D02*
D03*
D53*
X2100000Y2900394D02*
D03*
Y3050000D02*
D03*
X2037008D02*
D03*
Y2900394D02*
D03*
D54*
X1359056Y2258000D02*
D03*
Y2301000D02*
D03*
D55*
X1645078Y2150000D02*
D03*
X1275000D02*
D03*
D56*
X1750000Y2250000D02*
D03*
Y2348426D02*
D03*
D57*
X1956692Y1787204D02*
D03*
X2043308D02*
D03*
D58*
X2000000Y1925000D02*
D03*
D59*
X1023818Y241220D02*
D03*
X1049410D02*
D03*
X1075000D02*
D03*
X1100590D02*
D03*
X1126182D02*
D03*
D60*
X917520Y134922D02*
D03*
X1232480D02*
D03*
D61*
X375000Y1807480D02*
D03*
Y2492520D02*
D03*
D62*
X1609684Y110206D02*
D03*
Y200758D02*
D03*
Y291310D02*
D03*
D63*
X1840000Y200758D02*
D03*
%TF.MD5,b9d223661da687dcafdc9d42bdc8995e*%
M02*
